<svg width="12" height="12" viewBox="0 0 12 12" fill="none" xmlns="http://www.w3.org/2000/svg">
<path d="M11.2514 0.984025C11.2514 0.735473 11.1527 0.497101 10.9769 0.321348C10.8012 0.145595 10.5628 0.0468585 10.3143 0.0468585L2.81693 0C2.56838 0 2.33001 0.0987371 2.15426 0.27449C1.9785 0.450243 1.87977 0.688615 1.87977 0.937167C1.87977 1.18572 1.9785 1.42409 2.15426 1.59984C2.33001 1.7756 2.56838 1.87433 2.81693 1.87433H8.02758L0.277212 9.64345C0.189373 9.73057 0.119654 9.83422 0.0720748 9.94842C0.0244961 10.0626 0 10.1851 0 10.3088C0 10.4326 0.0244961 10.555 0.0720748 10.6692C0.119654 10.7834 0.189373 10.8871 0.277212 10.9742C0.364334 11.0621 0.467986 11.1318 0.582188 11.1794C0.696391 11.2269 0.818884 11.2514 0.942601 11.2514C1.06632 11.2514 1.18881 11.2269 1.30301 11.1794C1.41722 11.1318 1.52087 11.0621 1.60799 10.9742L9.3771 3.20511V8.4345C9.3771 8.68305 9.47584 8.92142 9.65159 9.09718C9.82734 9.27293 10.0657 9.37167 10.3143 9.37167C10.5628 9.37167 10.8012 9.27293 10.9769 9.09718C11.1527 8.92142 11.2514 8.68305 11.2514 8.4345V0.984025Z" fill="#FF4342"/>
</svg>
