<svg width="12" height="12" viewBox="0 0 12 12" fill="none" xmlns="http://www.w3.org/2000/svg">
<path d="M11.2514 1.35805C11.2514 1.1095 11.1527 0.871124 10.9769 0.695371C10.8012 0.519619 10.5628 0.420882 10.3143 0.420882L2.81693 0.374023C2.56838 0.374023 2.33001 0.472761 2.15426 0.648513C1.9785 0.824266 1.87977 1.06264 1.87977 1.31119C1.87977 1.55974 1.9785 1.79811 2.15426 1.97387C2.33001 2.14962 2.56838 2.24836 2.81693 2.24836H8.02758L0.277212 10.0175C0.189373 10.1046 0.119654 10.2082 0.0720748 10.3224C0.0244961 10.4366 0 10.5591 0 10.6829C0 10.8066 0.0244961 10.9291 0.0720748 11.0433C0.119654 11.1575 0.189373 11.2611 0.277212 11.3482C0.364334 11.4361 0.467986 11.5058 0.582188 11.5534C0.696391 11.601 0.818884 11.6255 0.942601 11.6255C1.06632 11.6255 1.18881 11.601 1.30301 11.5534C1.41722 11.5058 1.52087 11.4361 1.60799 11.3482L9.3771 3.57913V8.80852C9.3771 9.05708 9.47584 9.29545 9.65159 9.4712C9.82734 9.64695 10.0657 9.74569 10.3143 9.74569C10.5628 9.74569 10.8012 9.64695 10.9769 9.4712C11.1527 9.29545 11.2514 9.05708 11.2514 8.80852V1.35805Z" fill="#240000"/>
</svg>
