<svg xmlns="http://www.w3.org/2000/svg" width="17" height="16" fill="none">
  <path fill="#fff" fill-rule="evenodd" d="M12.506 15.998c-1.226-.043-4.701-.495-8.34-3.918C.528 8.656.048 5.387.002 4.232-.066 2.472 1.366.764 3.021.096a1.323 1.323 0 0 1 1.23.128c1.362.934 2.302 2.347 3.11 3.459.177.244.253.54.213.834-.04.294-.194.563-.431.757L5.48 6.434a.384.384 0 0 0-.159.226.365.365 0 0 0 .038.268c.377.644 1.046 1.602 1.812 2.323.767.721 1.833 1.392 2.565 1.787.092.048.2.062.302.037a.41.41 0 0 0 .246-.167l1.082-1.549c.198-.248.492-.415.818-.464.326-.05.66.021.932.198 1.198.78 2.596 1.65 3.62 2.883a1.115 1.115 0 0 1 .16 1.19c-.712 1.564-2.516 2.897-4.391 2.832Z" clip-rule="evenodd"/>
</svg>
