<svg width="14" height="14" viewBox="0 0 14 14" fill="none" xmlns="http://www.w3.org/2000/svg">
<path d="M5.29365 13.9977C4.85865 13.9977 4.44665 13.7947 4.18265 13.4447L0.609648 8.72372C0.499181 8.57792 0.418533 8.41178 0.372315 8.2348C0.326097 8.05781 0.315214 7.87345 0.34029 7.69226C0.365365 7.51106 0.425907 7.33659 0.518454 7.17881C0.611 7.02103 0.733738 6.88303 0.879648 6.77272C1.02551 6.66194 1.19179 6.58104 1.36898 6.53465C1.54616 6.48825 1.73076 6.47728 1.91219 6.50237C2.09362 6.52745 2.26831 6.58809 2.42627 6.68082C2.58422 6.77354 2.72232 6.89652 2.83265 7.04272L5.18365 10.1467L11.0946 0.654717C11.2907 0.341317 11.603 0.118464 11.9631 0.035041C12.3233 -0.0483819 12.7018 0.0144367 13.0156 0.209717C13.6686 0.615717 13.8696 1.47572 13.4616 2.12972L6.47765 13.3397C6.35843 13.5319 6.1941 13.6922 5.99892 13.8065C5.80374 13.9208 5.58362 13.9858 5.35765 13.9957C5.33565 13.9977 5.31565 13.9977 5.29365 13.9977Z" fill="#20DA33"/>
</svg>
