<svg xmlns="http://www.w3.org/2000/svg" width="36" height="29" fill="none">
  <path fill="#240000" d="M6.353 7.517c0-1.238.502-2.425 1.395-3.3a4.816 4.816 0 0 1 3.37-1.367c1.263 0 2.475.492 3.369 1.367a4.618 4.618 0 0 1 1.395 3.3 4.619 4.619 0 0 1-1.395 3.3 4.816 4.816 0 0 1-3.37 1.366 4.816 4.816 0 0 1-3.369-1.367 4.619 4.619 0 0 1-1.395-3.3ZM11.118.776c-1.826 0-3.576.71-4.867 1.974a6.671 6.671 0 0 0-2.016 4.767c0 1.787.725 3.502 2.016 4.766a6.956 6.956 0 0 0 4.867 1.974c1.825 0 3.575-.71 4.866-1.974A6.671 6.671 0 0 0 18 7.517a6.671 6.671 0 0 0-2.016-4.767A6.956 6.956 0 0 0 11.118.776ZM23.16 24.928c1.139.457 2.573.737 4.368.737 3.984 0 6.186-1.386 7.347-2.974a5.973 5.973 0 0 0 1.103-2.821c.01-.095.017-.19.021-.284v-.143c0-.409-.082-.814-.242-1.191a3.105 3.105 0 0 0-.688-1.01 3.18 3.18 0 0 0-1.03-.674 3.233 3.233 0 0 0-1.216-.237h-9.805c.508.602.89 1.305 1.112 2.075h8.693c.28 0 .55.109.748.303.199.195.31.459.31.733v.113l-.01.103a3.93 3.93 0 0 1-.72 1.825c-.693.952-2.196 2.108-5.623 2.108-1.55 0-2.706-.237-3.572-.583-.174.58-.426 1.236-.796 1.92ZM0 20.48c0-1.1.446-2.156 1.24-2.934a4.281 4.281 0 0 1 2.995-1.215H18c1.123 0 2.2.438 2.995 1.215a4.105 4.105 0 0 1 1.24 2.934v.174c0 .02 0 .047-.004.083-.026.41-.086.818-.18 1.22a8.119 8.119 0 0 1-1.26 2.808c-1.484 2.103-4.352 4.01-9.673 4.01-5.322 0-8.19-1.907-9.674-4.01a8.085 8.085 0 0 1-1.419-3.748A5.265 5.265 0 0 1 0 20.654v-.174Zm2.118.124v.037l.014.173a6.038 6.038 0 0 0 1.055 2.77c1.031 1.46 3.193 3.118 7.93 3.118 4.738 0 6.9-1.657 7.931-3.118a6.034 6.034 0 0 0 1.055-2.77c.007-.058.011-.115.012-.173l.003-.035v-.126c0-.55-.223-1.078-.62-1.467A2.14 2.14 0 0 0 18 18.405H4.235c-.561 0-1.1.219-1.497.608s-.62.916-.62 1.467v.124ZM24.353 9.072c0-.825.335-1.616.93-2.2a3.21 3.21 0 0 1 2.246-.91c.843 0 1.65.327 2.247.91.595.584.93 1.375.93 2.2a3.08 3.08 0 0 1-.93 2.2 3.21 3.21 0 0 1-2.247.911 3.21 3.21 0 0 1-2.246-.91 3.08 3.08 0 0 1-.93-2.2Zm3.176-5.185a5.35 5.35 0 0 0-3.743 1.519 5.132 5.132 0 0 0-1.55 3.666c0 1.375.557 2.694 1.55 3.667a5.351 5.351 0 0 0 3.743 1.518c1.404 0 2.751-.546 3.744-1.518a5.132 5.132 0 0 0 1.55-3.667 5.131 5.131 0 0 0-1.55-3.666 5.35 5.35 0 0 0-3.744-1.519Z"/>
</svg>
