<svg width="13" height="13" viewBox="0 0 13 13" fill="none" xmlns="http://www.w3.org/2000/svg">
<path d="M0.357133 0.357133C0.470186 0.243919 0.60445 0.154103 0.752244 0.0928226C0.900039 0.0315424 1.05846 0 1.21846 0C1.37845 0 1.53688 0.0315424 1.68467 0.0928226C1.83247 0.154103 1.96673 0.243919 2.07979 0.357133L6.50018 4.7759L10.9206 0.357133C11.0337 0.244022 11.168 0.154297 11.3158 0.0930818C11.4635 0.0318665 11.6219 0.00035957 11.7819 0.000359567C11.9419 0.000359564 12.1003 0.0318666 12.248 0.0930818C12.3958 0.154297 12.5301 0.244022 12.6432 0.357133C12.7563 0.470244 12.8461 0.604526 12.9073 0.752313C12.9685 0.900099 13 1.0585 13 1.21846C13 1.37842 12.9685 1.53682 12.9073 1.68461C12.8461 1.83239 12.7563 1.96667 12.6432 2.07979L8.22446 6.50018L12.6432 10.9206C12.8717 11.149 13 11.4588 13 11.7819C13 12.105 12.8717 12.4148 12.6432 12.6432C12.4148 12.8717 12.105 13 11.7819 13C11.4588 13 11.149 12.8717 10.9206 12.6432L6.50018 8.22446L2.07979 12.6432C1.85135 12.8717 1.54152 13 1.21846 13C0.895399 13 0.585571 12.8717 0.357133 12.6432C0.128695 12.4148 0.000359567 12.105 0.000359567 11.7819C0.000359567 11.4588 0.128695 11.149 0.357133 10.9206L4.7759 6.50018L0.357133 2.07979C0.243919 1.96673 0.154103 1.83247 0.0928226 1.68467C0.0315424 1.53688 0 1.37845 0 1.21846C0 1.05846 0.0315424 0.900039 0.0928226 0.752244C0.154103 0.60445 0.243919 0.470186 0.357133 0.357133Z" fill="#EA2D2C"/>
</svg>
