<?xml version="1.0" encoding="utf-8"?>
<!-- Generator: Adobe Illustrator 25.0.1, SVG Export Plug-In . SVG Version: 6.00 Build 0)  -->
<svg version="1.1" id="Layer_1" xmlns="http://www.w3.org/2000/svg" xmlns:xlink="http://www.w3.org/1999/xlink" x="0px" y="0px"
	 viewBox="0 0 1519.95 245.82" style="enable-background:new 0 0 1519.95 245.82;" xml:space="preserve">
<style type="text/css">
	.st0{fill:#0D0A0A;}
	.st1{fill:url(#SVGID_1_);}
	.st2{fill:url(#SVGID_2_);}
	.st3{fill:url(#SVGID_3_);}
	.st4{fill:url(#SVGID_4_);}
	.st5{fill:url(#SVGID_5_);}
	.st6{fill:url(#SVGID_6_);}
	.st7{fill:url(#SVGID_7_);}
	.st8{fill:url(#SVGID_8_);}
	.st9{fill:url(#SVGID_9_);}
	.st10{fill:url(#SVGID_10_);}
	.st11{fill:url(#SVGID_11_);}
	.st12{fill:url(#SVGID_12_);}
	.st13{fill:url(#SVGID_13_);}
	.st14{fill:url(#SVGID_14_);}
	.st15{fill:url(#SVGID_15_);}
	.st16{fill:url(#SVGID_16_);}
	.st17{fill:url(#SVGID_17_);}
	.st18{fill:url(#SVGID_18_);}
	.st19{fill:url(#SVGID_19_);}
	.st20{fill:url(#SVGID_20_);}
	.st21{fill:url(#SVGID_21_);}
	.st22{fill:url(#SVGID_22_);}
	.st23{fill:url(#SVGID_23_);}
	.st24{fill:url(#SVGID_24_);}
	.st25{fill:url(#SVGID_25_);}
	.st26{fill:url(#SVGID_26_);}
	.st27{fill:url(#SVGID_27_);}
	.st28{fill:url(#SVGID_28_);}
	.st29{fill:url(#SVGID_29_);}
	.st30{fill:url(#SVGID_30_);}
	.st31{fill:#FFFFFF;}
	.st32{fill:#9B9B9B;}
	.st33{fill:#FF4343;}
</style>
<g>
	<g>
		<g>
			<g>
				<g>
					<g>
						<path class="st0" d="M508.77,192.92c-10.5,0-20.03-1.97-28.59-5.93c-8.56-3.95-15.91-9.27-22.07-15.95
							c-6.16-6.67-10.89-14.2-14.2-22.56c-3.31-8.36-4.96-17.02-4.96-25.96c0-9.2,1.75-17.96,5.25-26.25
							c3.5-8.3,8.39-15.72,14.69-22.27c6.28-6.55,13.74-11.7,22.36-15.46c8.62-3.76,18.05-5.64,28.3-5.64
							c10.5,0,20.03,1.98,28.59,5.93s15.88,9.3,21.97,16.04s10.79,14.29,14.1,22.66c3.31,8.36,4.96,16.95,4.96,25.76
							c0,9.08-1.72,17.76-5.15,26.06s-8.3,15.72-14.59,22.27c-6.29,6.55-13.71,11.73-22.27,15.56
							C528.6,191.01,519.14,192.92,508.77,192.92z M477.46,122.91c0,4.67,0.65,9.17,1.95,13.51c1.29,4.35,3.24,8.23,5.83,11.67
							c2.59,3.44,5.86,6.16,9.82,8.17c3.96,2.02,8.66,3.02,14.1,3.02c5.44,0,10.18-1.04,14.2-3.11c4.01-2.07,7.29-4.89,9.82-8.46
							c2.53-3.56,4.4-7.52,5.64-11.86c1.23-4.34,1.85-8.78,1.85-13.32c0-4.67-0.65-9.14-1.95-13.42s-3.24-8.13-5.83-11.57
							c-2.6-3.43-5.9-6.13-9.92-8.07c-4.02-1.95-8.69-2.92-14-2.92c-5.44,0-10.14,1.04-14.1,3.11s-7.23,4.83-9.82,8.26
							c-2.6,3.44-4.5,7.33-5.74,11.67C478.07,113.94,477.46,118.38,477.46,122.91z"/>
					</g>
				</g>
				<path class="st33" d="M595.3,188.99V56.84c0-1.63,1.32-2.96,2.96-2.96h50.13c15.29,0,28.09,3.08,38.4,9.24
					c10.31,6.16,18.09,14.45,23.34,24.89c5.25,10.44,7.88,22.01,7.88,34.71c0,14.01-2.89,26.19-8.66,36.56
					c-5.77,10.37-13.87,18.41-24.31,24.11c-10.43,5.71-22.65,8.56-36.65,8.56h-50.13C596.63,191.95,595.3,190.62,595.3,188.99z
					 M679.5,122.72c0-7.13-1.23-13.38-3.7-18.76c-2.46-5.38-6.02-9.56-10.69-12.54c-4.67-2.98-10.24-4.47-16.72-4.47h-12.21
					c-1.63,0-2.96,1.32-2.96,2.96v66.04c0,1.63,1.32,2.96,2.96,2.96h12.21c6.61,0,12.22-1.56,16.82-4.67
					c4.6-3.11,8.13-7.42,10.6-12.93C678.27,135.78,679.5,129.59,679.5,122.72z"/>
				<path class="st33" d="M734.53,188.99V56.84c0-1.63,1.32-2.96,2.96-2.96h32c1.63,0,2.96,1.32,2.96,2.96v132.15
					c0,1.63-1.32,2.96-2.96,2.96h-32C735.86,191.95,734.53,190.62,734.53,188.99z"/>
				<path class="st33" d="M881.2,96.47c-0.77,1.48-2.65,1.99-4.11,1.17c-3.37-1.89-6.49-3.49-9.36-4.77
					c-3.63-1.62-7.59-3.08-11.86-4.38c-4.28-1.29-8.49-1.94-12.64-1.94c-3.24,0-5.9,0.52-7.98,1.54c-2.07,1.03-3.11,2.76-3.11,5.2
					c0,2.32,1.03,4.18,3.11,5.59c2.07,1.41,5.02,2.7,8.85,3.86c3.82,1.16,8.39,2.56,13.71,4.24c8.56,2.57,15.94,5.52,22.17,8.86
					c6.22,3.34,11.02,7.62,14.39,12.82c3.37,5.2,5.05,12.11,5.05,20.72c0,8.22-1.49,15.12-4.47,20.72
					c-2.99,5.59-7,10.05-12.06,13.39c-5.05,3.34-10.69,5.75-16.92,7.23c-6.22,1.48-12.58,2.22-19.06,2.22
					c-6.61,0-13.51-0.68-20.71-2.04s-14.16-3.24-20.9-5.64c-5.77-2.05-11.11-4.41-16.02-7.08c-1.39-0.75-1.9-2.5-1.21-3.92
					l13.69-27.86c0.76-1.54,2.68-2.09,4.16-1.23c4.11,2.38,7.93,4.36,11.43,5.96c4.28,1.94,9.04,3.69,14.29,5.25
					c5.25,1.56,10.53,2.33,15.85,2.33c4.15,0,7.03-0.52,8.65-1.58c1.62-1.05,2.43-2.44,2.43-4.17c0-2.71-1.43-4.79-4.28-6.28
					c-2.85-1.48-6.58-2.9-11.18-4.25c-4.6-1.35-9.69-2.93-15.26-4.73c-8.04-2.71-14.65-5.76-19.84-9.17
					c-5.19-3.41-9.01-7.46-11.47-12.16c-2.46-4.7-3.69-10.4-3.69-17.09c0-10.17,2.39-18.67,7.2-25.49
					c4.79-6.82,11.11-12,18.96-15.55c7.84-3.54,16.3-5.31,25.38-5.31c6.74,0,13.25,0.81,19.54,2.43c6.29,1.62,12.19,3.6,17.69,5.93
					c4.35,1.84,8.27,3.61,11.77,5.29c1.5,0.72,2.08,2.55,1.31,4.02L881.2,96.47z"/>
				<path class="st33" d="M916.15,188.99V56.84c0-1.63,1.32-2.96,2.96-2.96h56.54c6.74,0,12.96,1.36,18.67,4.08
					c5.7,2.72,10.63,6.38,14.78,10.99c4.15,4.6,7.35,9.75,9.62,15.46c2.27,5.71,3.41,11.47,3.41,17.31c0,8.17-1.91,15.88-5.74,23.14
					c-3.82,7.26-9.14,13.19-15.95,17.79c-6.8,4.61-14.75,6.91-23.82,6.91h-19.6c-1.63,0-2.96,1.32-2.96,2.96v36.48
					c0,1.63-1.32,2.96-2.96,2.96h-32C917.48,191.95,916.15,190.62,916.15,188.99z M954.07,113.54c0,1.63,1.32,2.96,2.96,2.96h17.07
					c1.56,0,3.04-0.45,4.47-1.36c1.42-0.91,2.63-2.46,3.6-4.67c0.97-2.2,1.46-5.12,1.46-8.75c0-3.89-0.55-6.91-1.66-9.04
					c-1.1-2.14-2.46-3.63-4.08-4.47c-1.62-0.84-3.21-1.27-4.76-1.27h-16.1c-1.63,0-2.96,1.32-2.96,2.96V113.54z"/>
				<path class="st33" d="M1061.23,53.88h38.07c1.29,0,2.43,0.83,2.82,2.06l42.06,132.15c0.61,1.91-0.82,3.85-2.82,3.85h-32.18
					c-1.34,0-2.52-0.9-2.86-2.2l-5.97-22.62c-0.34-1.3-1.52-2.2-2.86-2.2h-34.45c-1.34,0-2.52,0.9-2.86,2.2l-5.97,22.62
					c-0.34,1.3-1.52,2.2-2.86,2.2h-32.37c-2,0-3.43-1.95-2.82-3.86l42.25-132.15C1058.81,54.71,1059.95,53.88,1061.23,53.88z
					 M1092.12,135.93l-8.99-34.07c-0.78-2.94-4.94-2.94-5.72,0l-8.99,34.07c-0.5,1.88,0.92,3.71,2.86,3.71h17.98
					C1091.2,139.64,1092.62,137.8,1092.12,135.93z"/>
				<path class="st33" d="M1248.83,86.94h-33.75c-1.63,0-2.96,1.32-2.96,2.96v99.09c0,1.63-1.32,2.96-2.96,2.96h-32
					c-1.63,0-2.96-1.32-2.96-2.96V89.89c0-1.63-1.32-2.96-2.96-2.96h-33.95c-1.63,0-2.96-1.32-2.96-2.96V56.84
					c0-1.63,1.32-2.96,2.96-2.96h111.53c1.63,0,2.96,1.32,2.96,2.96v27.14C1251.79,85.61,1250.46,86.94,1248.83,86.94z"/>
				<path class="st33" d="M1255.87,121.55c0-8.42,1.59-16.69,4.76-24.79s7.81-15.46,13.9-22.07c6.09-6.61,13.51-11.89,22.27-15.85
					c8.75-3.96,18.63-5.93,29.66-5.93c13.22,0,24.76,2.76,34.61,8.27c8.98,5.03,15.87,11.53,20.65,19.51
					c0.79,1.31,0.37,3.04-0.88,3.93l-23.83,16.95c-1.45,1.03-3.5,0.57-4.3-1.02c-1.55-3.06-3.53-5.52-5.94-7.39
					c-3.18-2.46-6.61-4.18-10.31-5.15c-3.69-0.97-7.29-1.46-10.79-1.46c-5.44,0-10.14,1.07-14.09,3.21
					c-3.96,2.14-7.2,4.96-9.73,8.46c-2.53,3.5-4.4,7.39-5.64,11.66s-1.85,8.56-1.85,12.83c0,4.8,0.71,9.41,2.14,13.81
					c1.42,4.41,3.5,8.33,6.22,11.76s6.06,6.12,10.02,8.07c3.95,1.95,8.39,2.92,13.32,2.92c3.5,0,7.06-0.55,10.69-1.65
					c3.63-1.1,6.94-2.89,9.92-5.35c2.24-1.85,4.07-4.17,5.51-6.96c0.78-1.52,2.6-2.18,4.07-1.3l25.87,15.46
					c1.3,0.77,1.86,2.43,1.2,3.79c-2.78,5.71-6.96,10.67-12.53,14.88c-6.36,4.79-13.55,8.46-21.59,10.98
					c-8.04,2.53-16.02,3.79-23.92,3.79c-10.24,0-19.61-2.04-28.09-6.12c-8.49-4.08-15.82-9.53-21.98-16.33
					c-6.16-6.81-10.92-14.46-14.3-22.95C1257.56,139.02,1255.87,130.37,1255.87,121.55z"/>
				<path class="st33" d="M1519.95,56.84v132.15c0,1.63-1.32,2.96-2.96,2.96h-32c-1.63,0-2.96-1.32-2.96-2.96v-48.14
					c0-1.63-1.32-2.96-2.96-2.96h-40.37c-1.63,0-2.96,1.32-2.96,2.96v48.14c0,1.63-1.32,2.96-2.96,2.96h-32
					c-1.63,0-2.96-1.32-2.96-2.96V56.84c0-1.63,1.32-2.96,2.96-2.96h32c1.63,0,2.96,1.32,2.96,2.96v45.03
					c0,1.63,1.32,2.96,2.96,2.96h40.37c1.63,0,2.96-1.32,2.96-2.96V56.84c0-1.63,1.32-2.96,2.96-2.96h32
					C1518.62,53.88,1519.95,55.21,1519.95,56.84z"/>
			</g>
		</g>
		<path class="st0" d="M346.14,82.82h38.89c3.82,0,6.92,3.1,6.92,6.92c0,2.73,2.21,4.94,4.94,4.94h17.16c4.43,0,8.02-3.59,8.02-8.02
			v-2.92c0-17.78-14.41-32.2-32.19-32.2h-37.7h-9.82h-1.7c-14.04,0-25.01,3.25-33.03,9.7c-7.92,6.46-13.7,16.86-15.26,31.02
			c-2.24,20.82-2.19,41.82,0.15,62.63c1.51,13.26,7.04,23.1,14.74,29.37c7.78,6.26,18.2,9.41,31.4,9.41c1.36,0,2.57,0,3.7,0.01v0.02
			c6.14,0.05,12.22,0.14,18.4,0.25c7.74,0.14,15.7,0.28,24.34,0.32h0.12c5.89,0,11.79-1.22,16.97-4.03
			c12.65-6.86,19.88-19.23,19.88-32.74v-32.3c0-8.46-6.86-15.32-15.32-15.32h-42.48c-3.61,0-6.53,2.93-6.53,6.53v14.32
			c0,3.61,2.92,6.53,6.53,6.53h14.17c2.53,0,4.58,2.05,4.58,4.58v10.79c0,4.99-3.93,9.08-8.91,9.25
			c-9.22,0.33-31.75,0.67-31.75,0.67c-2.54-0.05-4.52-0.68-6.04-1.99c-1.58-1.37-1.97-3.28-2.51-5.68
			c-4.27-19.05-4.42-39.98-0.05-62.63c0.86-4.48,4.06-8.32,8.6-9.36C342.35,82.9,344.8,82.82,346.14,82.82z"/>
	</g>
	<g>
		<polygon class="st0" points="36.79,245.82 0,209.61 0,245.82 		"/>
		<polygon class="st33" points="117.3,148.29 173.19,148.29 173.19,190.82 74.15,190.82 74.15,54.99 192.75,54.99 247.34,0 55.87,0 
			34.35,21.59 182.89,21.59 182.89,6.62 207.32,23.59 182.89,47.55 182.89,32.59 23.38,32.59 0,56.03 0,190.83 55.87,245.82 
			192.35,245.82 247.34,190.83 247.34,98.33 167.31,98.33 		"/>
	</g>
</g>
</svg>
