<svg xmlns="http://www.w3.org/2000/svg" width="326" height="327" fill="none">
  <path fill="#FFD9D9" d="M162.953 326.712c89.997 0 162.953-72.956 162.953-162.953C325.906 73.763 252.95.806 162.953.806 72.957.806 0 73.763 0 163.76c0 89.997 72.957 162.953 162.953 162.953Z"/>
  <path fill="#fff" d="m48.937 242.533 6.147-2.651a61.852 61.852 0 0 0 6.095 7.718l-3.995 5.366 18.172 13.532 4.004-5.378a62.694 62.694 0 0 0 9.134 3.629l-.78 6.66 22.504 2.633.777-6.645a61.754 61.754 0 0 0 9.73-1.429l2.651 6.148 20.805-8.972-2.651-6.147a61.79 61.79 0 0 0 7.718-6.096l5.366 3.996 13.531-18.172-5.378-4.004a62.7 62.7 0 0 0 3.63-9.134l6.66.779 2.632-22.502-6.644-.778a61.883 61.883 0 0 0-1.429-9.731l6.147-2.65-8.971-20.805-6.147 2.651a61.883 61.883 0 0 0-6.096-7.718l3.996-5.366-18.172-13.531-4.005 5.378a62.644 62.644 0 0 0-9.133-3.63l.779-6.66-22.503-2.632-.777 6.644a61.763 61.763 0 0 0-9.73 1.429l-2.652-6.148-20.804 8.972 2.65 6.147a61.885 61.885 0 0 0-7.717 6.096l-5.366-3.996-13.532 18.172 5.378 4.005a62.666 62.666 0 0 0-3.63 9.133l-6.659-.779-2.633 22.503 6.645.777a61.86 61.86 0 0 0 1.428 9.731l-6.147 2.651 8.972 20.804Zm43.296-74.554c19.5-7.68 41.923 1.23 50.832 20.201 9.837 20.949-.036 45.793-21.569 54.274-19.501 7.681-41.923-1.23-50.832-20.201-9.838-20.948.035-45.792 21.569-54.274Z"/>
  <path fill="#FFD9D9" d="M106.862 255.178c-15.059 0-29.734-6.812-39.414-19.256a.393.393 0 1 1 .62-.482c13.736 17.658 37.696 23.796 58.267 14.926 24.895-10.736 36.415-39.724 25.68-64.619-9.559-22.166-34.339-34.243-57.64-28.093a.393.393 0 0 1-.201-.759c11.445-3.021 23.653-1.842 34.376 3.319a49.927 49.927 0 0 1 24.186 25.222c10.906 25.293-.797 54.744-26.09 65.651a49.906 49.906 0 0 1-19.784 4.091Z"/>
  <path fill="#F7F1EB" d="M204.008 14.439a3.64 3.64 0 0 0-3.641 3.64v191.002a2.41 2.41 0 0 0 2.41 2.41h112.312a3.64 3.64 0 0 0 3.64-3.64V18.079a3.64 3.64 0 0 0-3.64-3.64H204.008Z"/>
  <path fill="#363E44" d="M316.708 221.934H202.387c-4.706 0-8.535-3.829-8.535-8.535V9.723c0-4.706 3.829-8.535 8.535-8.535h114.321c4.706 0 8.535 3.829 8.535 8.535V213.4c0 4.706-3.829 8.535-8.535 8.535ZM202.387 1.974c-4.274 0-7.75 3.476-7.75 7.75v203.675c0 4.273 3.476 7.75 7.75 7.75h114.321c4.273 0 7.75-3.477 7.75-7.75V9.723c0-4.273-3.477-7.75-7.75-7.75H202.387Z"/>
  <path fill="#363E44" d="M269.102 8.361H248.17a.393.393 0 1 1 0-.785h20.932a.393.393 0 1 1 0 .785Z"/>
  <path fill="#fff" d="M303.312 123.248h-87.527v30.007h87.527v-30.007ZM303.312 160.727h-87.527v11.951h87.527v-11.951ZM303.312 179.455h-87.527v11.951h87.527v-11.951Z"/>
  <path fill="#363E44" d="M72.336 325.002h126.862l12.845-16.145c11.853-15.397.877-37.698-18.554-37.698H44.754l-3.141 7.382c-9.37 22.022 6.79 46.461 30.723 46.461Z"/>
  <path fill="#D87355" d="M208.242 293.726h-71.939a8.836 8.836 0 0 1-8.836-8.837h80.775v8.837Z"/>
  <path fill="#D87355" d="m208.775 293.476 21.789-68.56a8.837 8.837 0 0 0-5.745-11.098l-24.465 76.981 8.421 2.677Z"/>
  <path fill="#363E44" d="M200.606 281.589a.394.394 0 0 1-.375-.512l21.414-67.378a.393.393 0 0 1 .748.238l-21.413 67.378a.393.393 0 0 1-.374.274Z"/>
  <path fill="#84524D" d="M178.949 214.669s-16.611 9.266-50.198 13.184c-37.22 4.341-.928-34.34-.928-34.34s26.911-10.518 40.509-15.864c11.645-4.578 10.617 37.02 10.617 37.02Z"/>
  <path fill="#84524D" d="M153.98 198.323s11.699-34.549 17.322-48.171c5.906-14.306 16.707-34.568 19.522-33.02 1.604.882.702 3.949-2.254 11.989.556-.257 2.432-.619 3.786.442 2.002 1.571 1.177 3.538 1.187 3.744.181-.102 2.31-1.158 3.829-.333 1.71.928 2.133 2.525 1.993 4.046.459-.24 2.569-.937 3.987-.071 1.844 1.124 1.807 3.515 1.102 5.153-1.293 3.005-5.029 11.128-6.457 15.676-2.809 8.95-6.597 43.53-15.999 53.935-16.797 18.59-30.991-4.361-28.018-13.39Z"/>
  <path fill="#363E44" d="m187.021 156.567-.021-.001a.393.393 0 0 1-.371-.414c.181-3.306-.907-5.776-1.782-7.76-.918-2.082-1.643-3.727-.229-5.127.883-.875 1.514-2.384 1.824-4.367a.988.988 0 0 0-.505-1.033 1.005 1.005 0 0 0-1.164.111l-7.671 6.509a.393.393 0 1 1-.508-.599l7.671-6.509a1.795 1.795 0 0 1 2.057-.197 1.778 1.778 0 0 1 .896 1.84c-.341 2.179-1.03 3.795-2.047 4.802-.984.975-.542 2.129.394 4.253.909 2.061 2.039 4.626 1.848 8.12a.392.392 0 0 1-.392.372ZM200.456 146.884a.38.38 0 0 1-.154-.032c-2.251-.961-3.539-3.307-3.251-5.654l-.427.704a3.61 3.61 0 0 1-4.372 1.5 3.583 3.583 0 0 1-2.027-1.939 3.58 3.58 0 0 1-.026-2.805l.501-1.22a2.98 2.98 0 0 1-2.97.151 2.963 2.963 0 0 1-1.41-3.689l1.313-3.443a.393.393 0 0 1 .734.28l-1.313 3.443a2.176 2.176 0 0 0 1.036 2.711 2.19 2.19 0 0 0 2.915-.898l1.209-2.234a.392.392 0 0 1 .709.336l-1.998 4.861a2.807 2.807 0 0 0 .021 2.195 2.798 2.798 0 0 0 1.586 1.517 2.822 2.822 0 0 0 3.42-1.173l2.048-3.376a.393.393 0 0 1 .707.332l-.657 1.898a4.651 4.651 0 0 0 2.56 5.781.392.392 0 0 1-.154.754Z"/>
  <path fill="#C46565" d="M162.46 179.955s-43.136 5.084-74.277 2.639c-14.651-1.15-42.174-1.276-51.451 4.808-20.74 13.603-26.312 35.782-26.312 35.782l36.042 6.594-13.268 44.664c-4.603 15.499-1.78 28.827 7.648 41.96h22.475l-4.063-21.585 11.935 21.585 61.482-45.243.708-39.27 40.405-13.11-11.324-38.824Z"/>
  <path fill="#363E44" d="M132.498 229.622a.392.392 0 0 1-.393-.392v-10.452a.393.393 0 0 1 .786 0v10.452a.393.393 0 0 1-.393.392Z"/>
  <path fill="#C46565" d="M156.262 184.567c.381-1.487 10.666-28.394 10.666-28.394l30.855 11.74s-1.524 45.805-23.998 50.865c-22.475 5.06-17.523-34.211-17.523-34.211Z"/>
  <path fill="#84524D" d="M104.15 238.851c-3.117 1.091-16.794 3.553-18.691 9.742-1.912 6.233.848 12.866 5.136 17.747l.081.008c1.648.726 4.225 1.559 7.174 1.083 3.363-.542 3.988-2.265 7.45-3.389 5.843-1.897 9.874 1.301 10.788-.674.628-1.355-1.64-3.32-4.177-4.572-2.605-1.286-4.837-1.019-4.857-1.495-.021-.523 2.28-.501 5.145-.736 1.331-.109 5.16 1.839 6.29.112.901-1.376-2.567-4.399-6.537-5.042-2.809-.454-5.176.983-5.35.495-.132-.367 1.3-1.189 2.743-1.531 2.381-.565 6.32 1.386 7.33-.223.988-1.576-2.088-4.163-5.7-4.985-3.046-.694-5.61 1.035-5.831.429-.155-.426.833-1.437 3.435-2.849 2.173-1.179 7.151-2.075 6.267-4.524-.743-2.06-5.992-1.242-10.696.404Z"/>
  <path fill="#84524D" d="M37.171 255.64c-6.85 2.489-11.407 9.145-10.939 16.386.308 4.748 2.783 9.583 10.301 12.32 18.304 6.663 57.995-20.39 57.995-20.39l4.031-23.533c-23.3 4.889-42.532 8.365-61.388 15.217Z"/>
  <path fill="#C46565" d="m60.755 248.597 4.846 34.664-30.656 6.082c-19.687 3.906-37.077-13.374-33.266-33.079 3.335-17.243 8.315-36.089 15.446-48.179l37.81 8.134-9.904 33.673 15.724-1.295Z"/>
  <path fill="#363E44" d="M45.033 250.285a.394.394 0 0 1-.377-.504l4.476-15.215a.393.393 0 0 1 .753.222l-4.475 15.215a.393.393 0 0 1-.377.282ZM29.34 290.292c-1.468 0-2.93-.113-4.38-.34a.394.394 0 0 1 .122-.776c3.223.504 6.516.431 9.786-.218l30.292-6.009-1.11-7.937a.393.393 0 1 1 .778-.109l1.161 8.304a.393.393 0 0 1-.312.44l-30.656 6.082a29.208 29.208 0 0 1-5.682.563Z"/>
  <path fill="#363E44" d="M40.37 250.668a.392.392 0 0 1-.031-.784l20.383-1.678a.392.392 0 1 1 .064.782l-20.383 1.679-.032.001ZM94.046 229.622a.392.392 0 0 1-.393-.392v-30.133c-17.038.194-20.022-11.186-20.05-11.302a.393.393 0 0 1 .763-.188c.112.452 2.939 11.068 19.671 10.698a.39.39 0 0 1 .401.393v30.532a.393.393 0 0 1-.392.392Z"/>
  <path fill="#84524D" d="m90.261 191.984-1.581-.435a8.778 8.778 0 0 1-6.135-10.792l8.19-29.761a8.779 8.779 0 0 1 10.792-6.135l1.581.435a8.778 8.778 0 0 1 6.135 10.792l-8.19 29.762a8.778 8.778 0 0 1-10.792 6.134Z"/>
  <path fill="#84524D" d="M119.43 169.154c-2.673 5.475-19.627 1.969-19.627 1.969l-15.04-9.09c-4.102-7.526-1.327-16.953 6.199-21.055 7.526-4.103 16.953-1.328 21.055 6.198 0 0 10.135 16.401 7.413 21.978Z"/>
  <path fill="#84524D" d="M112.404 151.613s6.005 1.921 6.378 3.089c.446 1.395-3.392 4.486-3.392 4.486s-2.879-7.62-2.986-7.575Z"/>
  <path fill="#fff" d="M99.2 154.641s1.798-1.848 4.409-2.67c.555-.176.908 4.6.302 4.514-2.667-.375-4.712-1.844-4.712-1.844Z"/>
  <mask id="a" width="13" height="6" x="99" y="151" maskUnits="userSpaceOnUse" style="mask-type:luminance">
    <path fill="#fff" d="M99.197 154.641s2.646-2.717 6.177-3.029c3.532-.311 6.612 1.901 6.612 1.901s-2.646 2.718-6.177 3.029c-3.532.312-6.612-1.901-6.612-1.901Z"/>
  </mask>
  <g mask="url(#a)">
    <path fill="#363E44" d="M103.683 151.822a4.637 4.637 0 1 1 8.225 4.283 4.637 4.637 0 0 1-8.225-4.283Z"/>
  </g>
  <path fill="#363E44" d="M74.754 148.126s1.351 17.944 13.99 18.423l1.6-3.513 7.459-.266-5.99-6.304c-1.994-2.584-1.126-6.345 1.798-7.794l12.764-6.324-3.782-6.624c-11.102-.802-20.641 2.63-27.84 12.402Z"/>
  <path fill="#363E44" d="M87.815 138.952a2.958 2.958 0 0 1-4.171-.329c-1.061-1.242-1.47-3.76-.227-4.821 1.243-1.061 3.665-.264 4.727.979a2.958 2.958 0 0 1-.329 4.171Z"/>
  <path fill="#363E44" d="M90.17 138.677a2.958 2.958 0 0 1-3.486-2.314c-.323-1.601.543-4 2.145-4.324 1.602-.323 3.332 1.551 3.655 3.153a2.958 2.958 0 0 1-2.314 3.485Z"/>
  <path fill="#363E44" d="M95.234 138.138a4.01 4.01 0 0 1-4.106-3.912c-.053-2.214 1.67-5.21 3.884-5.264 2.214-.053 4.08 2.857 4.134 5.071a4.01 4.01 0 0 1-3.912 4.105ZM83.803 141.39a2.959 2.959 0 0 1-4.18-.193c-1.1-1.208-1.59-3.711-.382-4.812 1.208-1.101 3.656-.382 4.756.826a2.958 2.958 0 0 1-.194 4.179Z"/>
  <path fill="#363E44" d="M98.85 137.113a3.57 3.57 0 0 1-.565-5.016c1.229-1.541 4.118-2.601 5.659-1.372 1.541 1.229 1.151 4.281-.078 5.823a3.57 3.57 0 0 1-5.016.565ZM80.99 144.058a3.687 3.687 0 0 1-5.162.72c-1.625-1.227-2.797-4.181-1.57-5.806 1.227-1.624 4.389-1.304 6.013-.077a3.686 3.686 0 0 1 .72 5.163Z"/>
  <path fill="#363E44" d="M77.973 146.222a2.878 2.878 0 0 1-3.364 2.29c-1.561-.297-3.403-1.958-3.107-3.519.297-1.562 2.62-2.431 4.181-2.135a2.878 2.878 0 0 1 2.29 3.364ZM101.687 140.652a4.351 4.351 0 0 1 1.265-6.023c2.012-1.313 5.761-1.434 7.075.578 1.313 2.012-.306 5.396-2.318 6.709a4.35 4.35 0 0 1-6.022-1.264Z"/>
  <path fill="#84524D" d="M82.15 163.528a5.352 5.352 0 0 0 5.847 4.809 5.352 5.352 0 1 0-1.037-10.656 5.354 5.354 0 0 0-4.81 5.847Z"/>
  <path fill="#363E44" d="m117.327 157.39 4.731 12.143a3.186 3.186 0 0 1-1.943 4.172c-.432.147-.9.302-1.401.459a26.276 26.276 0 0 1-25.027-5.151 7.342 7.342 0 0 1-2.113-8.057l.34-.944 2.896.045s4.982 5.347 7.571 4.576c2.589-.772 5.937-4.949 14.946-7.243Z"/>
  <path fill="#84524D" d="M112.268 164.044a2.59 2.59 0 0 1-2.384-1.62.393.393 0 1 1 .729-.293c.252.63.849 1.071 1.52 1.122a1.79 1.79 0 0 0 1.703-.93.394.394 0 0 1 .69.377 2.582 2.582 0 0 1-2.258 1.344ZM90.41 151.222a.383.383 0 0 1-.075-.007l-7.71-1.492a.394.394 0 0 1 .15-.772l7.71 1.493a.392.392 0 0 1-.075.778Z"/>
  <path fill="#FF706F" d="M17.14 33.138H7.084V69.9H17.14V33.138Z"/>
  <path fill="#D3BBA3" d="M69.1 102.629H.845a.393.393 0 0 1-.393-.393V54.268a.393.393 0 1 1 .786 0v47.575H69.1a.393.393 0 0 1 0 .786Z"/>
  <path fill="#fff" d="M17.14 69.901H7.084V95.6H17.14V69.9ZM33.734 64.782H23.678v30.816h10.056V64.782ZM50.33 45.904H40.272v49.694H50.33V45.904ZM66.923 53.697H56.867v41.9h10.056v-41.9ZM83.542 33.138H73.486v62.46h10.056v-62.46ZM100.136 45.481H90.08v50.117h10.056V45.481ZM116.732 63.367h-10.056v32.23h10.056v-32.23ZM133.327 51.859h-10.056v43.74h10.056v-43.74ZM149.933 58.772h-10.056v36.826h10.056V58.772ZM166.527 40.83h-10.056v54.768h10.056V40.83ZM183.146 69.901H173.09V95.6h10.056V69.9Z"/>
  <path fill="#FF706F" d="M33.734 33.138H23.678v31.644h10.056V33.138ZM50.33 33.138H40.272v18.381H50.33V33.138ZM66.923 33.138H56.867v20.559h10.056v-20.56ZM100.136 33.138H90.08V45.48h10.056V33.138ZM116.732 33.138h-10.056v30.23h10.056v-30.23ZM133.327 33.138h-10.056v21.13h10.056v-21.13ZM149.933 33.138h-10.056v25.634h10.056V33.138ZM166.527 33.138h-10.056v7.692h10.056v-7.692ZM183.146 33.106H173.09v36.795h10.056V33.106Z"/>
  <path fill="#FF4342" d="M279.822 85.819c-9.435 0-18.425-3.642-25.313-10.255-6.955-6.676-10.784-15.476-10.784-24.777 0-19.318 15.747-35.033 35.103-35.033s35.104 15.715 35.104 35.032c0 19.645-14.983 35.033-34.11 35.033Zm-.994-69.28c-18.923 0-34.318 15.363-34.318 34.247 0 18.564 16.171 34.248 35.312 34.248 18.686 0 33.324-15.043 33.324-34.248 0-18.884-15.395-34.247-34.318-34.247Z"/>
  <path fill="#FF4342" d="M295.258 78.396a.393.393 0 0 1-.194-.734c4.231-2.395 6.982-5.812 9.812-10.206a.393.393 0 0 1 .661.425c-2.893 4.492-5.715 7.99-10.086 10.464a.385.385 0 0 1-.193.051ZM310.128 49.705a.393.393 0 0 1-.392-.374c-.767-16.498-14.343-29.421-30.906-29.421-14.25 0-26.598 9.625-30.029 23.406a.393.393 0 0 1-.762-.19c3.518-14.131 16.18-24.001 30.791-24.001 16.984 0 30.904 13.252 31.691 30.17a.393.393 0 0 1-.393.41Z"/>
  <path fill="#FF4342" d="M278.828 79.553c15.92 0 28.826-12.88 28.826-28.767 0-15.887-12.906-28.767-28.826-28.767s-28.826 12.88-28.826 28.767c0 15.888 12.906 28.767 28.826 28.767Z"/>
  <path fill="#fff" d="M284.809 58.931c0-1.318-.475-2.452-1.425-3.4-.95-.948-2.509-1.792-4.676-2.533-2.999-.904-5.264-2.111-6.793-3.623-1.529-1.51-2.293-3.526-2.293-6.044 0-2.445.701-4.437 2.104-5.978 1.403-1.54 3.337-2.467 5.801-2.778v-4.911h3.519v4.933c2.494.356 4.427 1.419 5.8 3.19 1.374 1.77 2.06 4.144 2.06 7.121h-4.364c0-2.014-.468-3.644-1.403-4.889-.936-1.244-2.235-1.866-3.897-1.866-1.752 0-3.062.455-3.93 1.366-.869.911-1.303 2.16-1.303 3.745 0 1.437.449 2.6 1.347 3.489.898.889 2.52 1.733 4.866 2.533 3.043.978 5.3 2.197 6.769 3.656 1.47 1.46 2.205 3.44 2.205 5.944 0 2.549-.765 4.575-2.294 6.078-1.529 1.504-3.629 2.397-6.302 2.678v4.267h-3.496v-4.244c-2.553-.267-4.647-1.196-6.28-2.79-1.633-1.592-2.42-3.929-2.36-7.01l.045-.112h4.231c0 2.282.575 3.908 1.725 4.878 1.151.97 2.565 1.456 4.243 1.456 1.915 0 3.41-.456 4.487-1.367 1.076-.911 1.614-2.174 1.614-3.789Z"/>
  <path fill="#FF4342" d="M274.777 154.112c-7.721 0-15.077-2.98-20.713-8.391-5.691-5.464-8.826-12.665-8.826-20.278 0-15.809 12.887-28.67 28.728-28.67 15.84 0 28.727 12.861 28.727 28.67 0 16.076-12.262 28.669-27.916 28.669Zm-.811-56.553c-15.408 0-27.942 12.509-27.942 27.884 0 15.114 13.167 27.884 28.753 27.884 15.213 0 27.131-12.248 27.131-27.884-.001-15.375-12.535-27.884-27.942-27.884Z"/>
  <path fill="#FF4342" d="M287.378 148.053a.393.393 0 0 1-.194-.734c3.44-1.948 5.68-4.73 7.984-8.308a.392.392 0 0 1 .66.425c-2.367 3.676-4.677 6.539-8.257 8.566a.39.39 0 0 1-.193.051ZM299.515 124.633a.393.393 0 0 1-.392-.375c-.624-13.428-11.674-23.947-25.157-23.947-11.598 0-21.65 7.834-24.442 19.052a.392.392 0 1 1-.762-.19c2.88-11.568 13.244-19.648 25.204-19.648 13.903 0 25.298 10.848 25.942 24.697.01.216-.158.4-.374.41l-.019.001Z"/>
  <path fill="#FF4342" d="M273.967 148.926c12.995 0 23.53-10.513 23.53-23.483 0-12.969-10.535-23.483-23.53-23.483-12.996 0-23.531 10.514-23.531 23.483 0 12.97 10.535 23.483 23.531 23.483Z"/>
  <path fill="#fff" d="M278.847 132.092c0-1.076-.388-2.001-1.163-2.776-.776-.773-2.049-1.463-3.818-2.068-2.448-.737-4.296-1.723-5.544-2.957-1.248-1.233-1.872-2.878-1.872-4.934 0-1.995.572-3.622 1.718-4.88 1.145-1.257 2.723-2.013 4.735-2.267v-4.009h2.872v4.027c2.036.29 3.614 1.158 4.735 2.603 1.121 1.445 1.682 3.383 1.682 5.814h-3.563c0-1.644-.382-2.975-1.145-3.991-.764-1.016-1.824-1.524-3.181-1.524-1.431 0-2.5.372-3.209 1.116-.709.744-1.063 1.763-1.063 3.057 0 1.173.366 2.122 1.1 2.848.733.725 2.057 1.415 3.971 2.068 2.485.798 4.327 1.793 5.527 2.984 1.199 1.191 1.799 2.809 1.799 4.852 0 2.081-.624 3.735-1.872 4.962-1.248 1.227-2.963 1.956-5.144 2.186v3.483h-2.854v-3.465c-2.085-.218-3.794-.976-5.127-2.277-1.333-1.3-1.975-3.207-1.926-5.723l.036-.091h3.454c0 1.863.469 3.19 1.408 3.982.939.792 2.094 1.188 3.463 1.188 1.564 0 2.784-.371 3.663-1.115s1.318-1.775 1.318-3.093Z"/>
  <path fill="#FF4342" d="M231.663 204.819c-12.022 0-22.179-9.859-22.179-21.529 0-11.871 9.678-21.529 21.573-21.529s21.573 9.658 21.573 21.529c0 12.073-9.21 21.529-20.967 21.529Zm-.606-42.273c-11.462 0-20.787 9.306-20.787 20.744 0 11.245 9.797 20.744 21.393 20.744 11.317 0 20.181-9.112 20.181-20.744 0-11.438-9.325-20.744-20.787-20.744Z"/>
  <path fill="#FF4342" d="M241.083 200.29a.393.393 0 0 1-.194-.734c2.554-1.446 4.219-3.515 5.933-6.177a.393.393 0 0 1 .661.425c-1.777 2.76-3.513 4.91-6.207 6.435a.387.387 0 0 1-.193.051ZM250.155 182.784a.393.393 0 0 1-.392-.375c-.464-9.985-8.68-17.806-18.705-17.806-8.625 0-16.098 5.825-18.175 14.166a.392.392 0 0 1-.762-.189c2.164-8.692 9.951-14.762 18.937-14.762 10.445 0 19.006 8.15 19.49 18.555.01.217-.158.4-.374.41l-.019.001Z"/>
  <path fill="#FF4342" d="M231.058 200.844c9.714 0 17.589-7.859 17.589-17.554 0-9.694-7.875-17.553-17.589-17.553-9.714 0-17.589 7.859-17.589 17.553 0 9.695 7.875 17.554 17.589 17.554Z"/>
  <path fill="#fff" d="M234.708 188.26c0-.804-.29-1.496-.869-2.075-.58-.578-1.532-1.093-2.854-1.546-1.83-.551-3.211-1.288-4.144-2.21-.933-.922-1.4-2.151-1.4-3.688 0-1.492.428-2.707 1.284-3.648.856-.94 2.036-1.505 3.54-1.695v-2.997h2.147v3.011c1.521.217 2.701.865 3.539 1.945.838 1.081 1.257 2.529 1.257 4.346h-2.663c0-1.229-.285-2.223-.856-2.983-.571-.759-1.364-1.139-2.378-1.139-1.069 0-1.868.278-2.398.834-.53.556-.795 1.318-.795 2.285 0 .877.274 1.586.822 2.129.548.542 1.538 1.058 2.969 1.546 1.857.596 3.234 1.34 4.131 2.23.897.891 1.345 2.1 1.345 3.628 0 1.555-.467 2.791-1.4 3.708-.933.918-2.215 1.462-3.845 1.634v2.604h-2.133v-2.59c-1.559-.163-2.836-.73-3.832-1.702-.997-.972-1.477-2.398-1.441-4.278l.028-.068h2.581c0 1.392.351 2.384 1.053 2.976.702.592 1.565.888 2.589.888 1.168 0 2.081-.278 2.738-.834.657-.555.985-1.326.985-2.311Z"/>
  <path fill="#D3BBA3" d="M280.595 315.182a.367.367 0 0 1-.046-.003l-12.319-1.441a.393.393 0 0 1-.344-.435l.388-3.324a34.875 34.875 0 0 1-4.451-1.768l-1.998 2.683a.392.392 0 0 1-.55.081l-9.948-7.408a.392.392 0 0 1-.081-.55l1.994-2.676a34.38 34.38 0 0 1-2.972-3.763l-3.066 1.323a.397.397 0 0 1-.517-.205l-4.911-11.39a.393.393 0 0 1 .205-.516l3.067-1.322a34.425 34.425 0 0 1-.697-4.744l-3.315-.387a.394.394 0 0 1-.344-.436l1.442-12.32a.395.395 0 0 1 .146-.262.396.396 0 0 1 .289-.082l3.323.389a34.924 34.924 0 0 1 1.769-4.452l-2.683-1.998a.393.393 0 0 1-.081-.549l7.408-9.948a.394.394 0 0 1 .55-.081l2.676 1.993a34.372 34.372 0 0 1 3.763-2.971l-1.323-3.067a.393.393 0 0 1 .206-.516l11.389-4.911a.393.393 0 0 1 .516.205l1.322 3.066a34.423 34.423 0 0 1 4.744-.696l.387-3.315a.39.39 0 0 1 .436-.344l12.32 1.441c.215.025.369.22.344.436l-.389 3.323a34.747 34.747 0 0 1 4.452 1.769l1.998-2.684a.393.393 0 0 1 .55-.08l9.948 7.408a.394.394 0 0 1 .08.549l-1.993 2.677a34.335 34.335 0 0 1 2.971 3.762l3.067-1.322a.39.39 0 0 1 .516.205l4.912 11.39a.395.395 0 0 1-.205.516l-3.067 1.322a34.43 34.43 0 0 1 .696 4.743l3.315.388c.215.025.37.22.344.436l-1.441 12.319a.395.395 0 0 1-.436.344l-3.323-.388a34.734 34.734 0 0 1-1.769 4.451l2.684 1.998c.174.13.21.376.08.55l-7.408 9.948a.39.39 0 0 1-.549.081l-2.677-1.994a34.344 34.344 0 0 1-3.762 2.972l1.322 3.066a.393.393 0 0 1-.205.517l-11.389 4.911a.393.393 0 0 1-.516-.205l-1.323-3.067a34.234 34.234 0 0 1-4.743.696l-.388 3.315a.398.398 0 0 1-.146.263.394.394 0 0 1-.244.084Zm-11.884-2.178 11.54 1.35.38-3.248a.393.393 0 0 1 .364-.346 33.557 33.557 0 0 0 5.265-.773.392.392 0 0 1 .448.227l1.296 3.005 10.669-4.6-1.296-3.005a.393.393 0 0 1 .142-.482 33.634 33.634 0 0 0 4.177-3.298c.139-.13.35-.14.501-.028l2.623 1.953 6.938-9.318-2.629-1.958a.393.393 0 0 1-.118-.488 34.048 34.048 0 0 0 1.965-4.943.392.392 0 0 1 .421-.274l3.255.381 1.351-11.54-3.248-.38a.392.392 0 0 1-.346-.363 33.722 33.722 0 0 0-.773-5.266.391.391 0 0 1 .227-.448l3.005-1.296-4.601-10.668-3.005 1.295a.391.391 0 0 1-.482-.142 33.54 33.54 0 0 0-3.298-4.177.392.392 0 0 1-.027-.501l1.953-2.623-9.319-6.939-1.957 2.63a.393.393 0 0 1-.489.117 34.19 34.19 0 0 0-4.942-1.964.393.393 0 0 1-.274-.421l.38-3.255-11.539-1.35-.38 3.247a.392.392 0 0 1-.364.346c-1.77.118-3.541.378-5.265.773a.392.392 0 0 1-.449-.227l-1.296-3.005-10.668 4.601 1.296 3.005a.393.393 0 0 1-.143.482 33.496 33.496 0 0 0-4.176 3.298.393.393 0 0 1-.502.027l-2.622-1.953-6.939 9.319 2.629 1.957a.394.394 0 0 1 .118.489 33.976 33.976 0 0 0-1.964 4.943.393.393 0 0 1-.421.273l-3.256-.38-1.35 11.539 3.248.38a.393.393 0 0 1 .346.364 33.54 33.54 0 0 0 .773 5.265.394.394 0 0 1-.227.449l-3.005 1.295 4.6 10.669 3.005-1.296a.392.392 0 0 1 .482.143 33.651 33.651 0 0 0 3.299 4.176c.129.139.14.35.027.502l-1.953 2.622 9.318 6.939 1.958-2.629a.393.393 0 0 1 .488-.118 34.157 34.157 0 0 0 4.943 1.964.393.393 0 0 1 .274.421l-.381 3.256Zm10.08-13.597c-8.407 0-16.439-4.782-20.205-12.803-2.651-5.646-2.845-11.941-.546-17.727 2.3-5.786 6.762-10.232 12.565-12.518 10.903-4.294 23.347.651 28.328 11.258 2.652 5.646 2.845 11.942.546 17.728-2.3 5.786-6.762 10.231-12.565 12.517a22.145 22.145 0 0 1-8.123 1.545Zm-8.042-42.682.144.365c-5.599 2.206-9.905 6.495-12.123 12.077-2.219 5.582-2.032 11.656.526 17.103 3.634 7.737 11.383 12.352 19.493 12.352 2.617 0 5.27-.48 7.836-1.491 5.6-2.205 9.905-6.494 12.124-12.076 2.218-5.582 2.031-11.657-.527-17.104-4.805-10.233-16.81-15.004-27.329-10.861l-.144-.365Z"/>
  <path fill="#D3BBA3" d="M278.758 304.64c-8.298 0-16.385-3.753-21.718-10.61a.393.393 0 1 1 .62-.482c7.47 9.603 20.5 12.941 31.688 8.117 6.558-2.828 11.623-8.041 14.261-14.679 2.638-6.637 2.533-13.905-.296-20.464-5.198-12.055-18.676-18.623-31.346-15.278a.393.393 0 0 1-.201-.759 27.523 27.523 0 0 1 18.942 1.828 27.516 27.516 0 0 1 13.327 13.898c2.911 6.751 3.019 14.232.304 21.065-2.715 6.832-7.929 12.198-14.68 15.11a27.508 27.508 0 0 1-10.901 2.254Z"/>
</svg>
