<svg width="326" height="327" viewBox="0 0 326 327" fill="none" xmlns="http://www.w3.org/2000/svg">
<path d="M162.953 326.712C252.95 326.712 325.906 253.756 325.906 163.759C325.906 73.7628 252.95 0.806152 162.953 0.806152C72.9566 0.806152 0 73.7628 0 163.759C0 253.756 72.9566 326.712 162.953 326.712Z" fill="#FFD9D9"/>
<path d="M48.9366 242.533L55.084 239.882C56.9267 242.641 58.9685 245.217 61.1795 247.6L57.184 252.966L75.3557 266.498L79.3602 261.12C82.3048 262.567 85.3591 263.78 88.4936 264.749L87.7147 271.409L110.218 274.042L110.995 267.397C114.239 267.182 117.491 266.71 120.725 265.968L123.376 272.116L144.181 263.144L141.53 256.997C144.289 255.154 146.865 253.113 149.248 250.901L154.614 254.897L168.145 236.725L162.767 232.721C164.214 229.776 165.428 226.722 166.397 223.587L173.057 224.366L175.689 201.864L169.045 201.086C168.829 197.842 168.358 194.589 167.616 191.355L173.763 188.705L164.792 167.9L158.645 170.551C156.802 167.792 154.76 165.216 152.549 162.833L156.545 157.467L138.373 143.936L134.368 149.314C131.424 147.867 128.37 146.653 125.235 145.684L126.014 139.024L103.511 136.392L102.734 143.036C99.4899 143.251 96.2374 143.723 93.0033 144.465L90.3524 138.317L69.548 147.289L72.1989 153.436C69.4395 155.279 66.8641 157.321 64.4807 159.532L59.1149 155.536L45.5835 173.708L50.9613 177.713C49.5143 180.657 48.3007 183.711 47.3315 186.846L40.672 186.067L38.0391 208.57L44.6836 209.347C44.8991 212.591 45.3707 215.844 46.1124 219.078L39.9651 221.729L48.9366 242.533ZM92.2328 167.979C111.733 160.299 134.156 169.209 143.065 188.18C152.902 209.129 143.029 233.973 121.496 242.454C101.995 250.135 79.5727 241.224 70.6639 222.253C60.8263 201.305 70.6995 176.461 92.2328 167.979Z" fill="white"/>
<path d="M106.862 255.178C91.8032 255.178 77.128 248.366 67.448 235.922C67.3148 235.751 67.3456 235.504 67.5168 235.371C67.6872 235.238 67.9344 235.268 68.0678 235.44C81.8039 253.098 105.764 259.236 126.335 250.366C151.23 239.63 162.75 210.642 152.015 185.747C142.456 163.581 117.676 151.504 94.3747 157.654C94.1652 157.709 93.9499 157.584 93.8947 157.375C93.8393 157.165 93.9645 156.95 94.174 156.895C105.619 153.874 117.827 155.053 128.55 160.214C139.381 165.427 147.97 174.384 152.736 185.436C163.642 210.729 151.939 240.18 126.646 251.087C120.243 253.848 113.514 255.178 106.862 255.178Z" fill="#FFD9D9"/>
<path d="M204.008 14.439C201.997 14.439 200.367 16.0689 200.367 18.0793V209.081C200.367 210.412 201.446 211.491 202.777 211.491H315.089C317.099 211.491 318.729 209.861 318.729 207.851V18.0793C318.729 16.0689 317.099 14.439 315.089 14.439H204.008Z" fill="#F7F1EB"/>
<path d="M316.708 221.934H202.387C197.681 221.934 193.852 218.105 193.852 213.399V9.72335C193.852 5.01694 197.681 1.18799 202.387 1.18799H316.708C321.414 1.18799 325.243 5.01694 325.243 9.72335V213.399C325.243 218.105 321.414 221.934 316.708 221.934ZM202.387 1.97337C198.113 1.97337 194.637 5.44988 194.637 9.72335V213.399C194.637 217.672 198.113 221.149 202.387 221.149H316.708C320.981 221.149 324.458 217.672 324.458 213.399V9.72335C324.458 5.44988 320.981 1.97337 316.708 1.97337H202.387Z" fill="#363E44"/>
<path d="M269.102 8.36106H248.17C247.953 8.36106 247.777 8.18529 247.777 7.96837C247.777 7.75146 247.953 7.57568 248.17 7.57568H269.102C269.319 7.57568 269.495 7.75146 269.495 7.96837C269.495 8.18529 269.319 8.36106 269.102 8.36106Z" fill="#363E44"/>
<path d="M303.312 123.248H215.785V153.255H303.312V123.248Z" fill="white"/>
<path d="M303.312 160.727H215.785V172.678H303.312V160.727Z" fill="white"/>
<path d="M303.312 179.455H215.785V191.406H303.312V179.455Z" fill="white"/>
<path d="M72.3361 325.002H199.198L212.043 308.857C223.896 293.46 212.92 271.159 193.489 271.159H44.754L41.613 278.541C32.2433 300.563 48.4038 325.002 72.3361 325.002Z" fill="#363E44"/>
<path d="M208.242 293.726H136.303C131.423 293.726 127.467 289.77 127.467 284.889H208.242L208.242 293.726Z" fill="#D87355"/>
<path d="M208.775 293.476L230.564 224.916C232.042 220.265 229.47 215.296 224.819 213.818L200.354 290.799L208.775 293.476Z" fill="#D87355"/>
<path d="M200.606 281.589C200.566 281.589 200.526 281.583 200.487 281.571C200.28 281.505 200.166 281.284 200.231 281.077L221.645 213.699C221.71 213.492 221.932 213.379 222.138 213.444C222.344 213.509 222.459 213.73 222.393 213.937L200.98 281.315C200.927 281.482 200.772 281.589 200.606 281.589Z" fill="#363E44"/>
<path d="M178.949 214.669C178.949 214.669 162.338 223.935 128.751 227.853C91.5311 232.194 127.823 193.513 127.823 193.513C127.823 193.513 154.734 182.995 168.332 177.649C179.977 173.071 178.949 214.669 178.949 214.669Z" fill="#84524D"/>
<path d="M153.98 198.323C153.98 198.323 165.679 163.774 171.302 150.152C177.208 135.846 188.009 115.584 190.824 117.132C192.428 118.014 191.526 121.081 188.57 129.121C189.126 128.864 191.002 128.502 192.356 129.563C194.358 131.134 193.533 133.101 193.543 133.307C193.724 133.205 195.853 132.149 197.372 132.974C199.082 133.902 199.505 135.499 199.365 137.02C199.824 136.78 201.934 136.083 203.352 136.949C205.196 138.073 205.159 140.464 204.454 142.102C203.161 145.107 199.425 153.23 197.997 157.778C195.188 166.728 191.4 201.308 181.998 211.713C165.201 230.303 151.007 207.352 153.98 198.323Z" fill="#84524D"/>
<path d="M187.021 156.567C187.014 156.567 187.007 156.566 187 156.566C186.783 156.554 186.617 156.369 186.629 156.152C186.81 152.846 185.722 150.376 184.847 148.392C183.929 146.31 183.204 144.665 184.618 143.265C185.501 142.39 186.132 140.881 186.442 138.898C186.522 138.39 186.233 138.031 185.937 137.865C185.636 137.696 185.172 137.637 184.773 137.976L177.102 144.485C176.937 144.626 176.689 144.605 176.548 144.44C176.408 144.275 176.428 144.027 176.594 143.886L184.265 137.377C184.847 136.883 185.654 136.806 186.322 137.18C186.983 137.551 187.335 138.273 187.218 139.02C186.877 141.199 186.188 142.815 185.171 143.822C184.187 144.797 184.629 145.951 185.565 148.075C186.474 150.136 187.604 152.701 187.413 156.195C187.402 156.405 187.229 156.567 187.021 156.567Z" fill="#363E44"/>
<path d="M200.456 146.884C200.404 146.884 200.352 146.874 200.302 146.852C198.051 145.891 196.763 143.545 197.051 141.198L196.624 141.902C195.72 143.392 193.88 144.023 192.252 143.402C191.335 143.052 190.615 142.364 190.225 141.463C189.835 140.562 189.826 139.566 190.199 138.658L190.7 137.438C189.834 137.994 188.699 138.089 187.73 137.589C186.389 136.896 185.783 135.311 186.32 133.9L187.633 130.457C187.71 130.255 187.937 130.153 188.14 130.23C188.342 130.308 188.444 130.535 188.367 130.737L187.054 134.18C186.659 135.217 187.104 136.382 188.09 136.891C189.138 137.432 190.444 137.028 191.005 135.993L192.214 133.759C192.314 133.575 192.539 133.501 192.728 133.591C192.916 133.68 193.002 133.902 192.923 134.095L190.925 138.956C190.634 139.667 190.641 140.446 190.946 141.151C191.251 141.856 191.814 142.395 192.532 142.668C193.806 143.154 195.245 142.661 195.952 141.495L198 138.119C198.104 137.947 198.321 137.883 198.503 137.967C198.685 138.053 198.773 138.262 198.707 138.451L198.05 140.349C197.257 142.639 198.381 145.178 200.61 146.13C200.81 146.215 200.902 146.445 200.817 146.645C200.754 146.794 200.609 146.884 200.456 146.884Z" fill="#363E44"/>
<path d="M162.46 179.955C162.46 179.955 119.324 185.039 88.1828 182.594C73.5318 181.444 46.0089 181.318 36.7318 187.402C15.9919 201.005 10.4199 223.184 10.4199 223.184L46.4623 229.778L33.1945 274.442C28.5907 289.941 31.4142 303.269 40.8425 316.402H63.3168L59.2537 294.817L71.1892 316.402L132.671 271.159L133.379 231.889L173.784 218.779L162.46 179.955Z" fill="#C46565"/>
<path d="M132.498 229.622C132.281 229.622 132.105 229.447 132.105 229.23V218.778C132.105 218.562 132.281 218.386 132.498 218.386C132.715 218.386 132.891 218.562 132.891 218.778V229.23C132.891 229.446 132.715 229.622 132.498 229.622Z" fill="#363E44"/>
<path d="M156.262 184.567C156.643 183.08 166.928 156.173 166.928 156.173L197.783 167.913C197.783 167.913 196.259 213.718 173.785 218.778C151.31 223.838 156.262 184.567 156.262 184.567Z" fill="#C46565"/>
<path d="M104.15 238.851C101.033 239.942 87.3565 242.404 85.4586 248.593C83.5472 254.826 86.3067 261.459 90.5946 266.34C90.6209 266.342 90.6501 266.345 90.6763 266.348C92.3238 267.074 94.901 267.907 97.8505 267.431C101.213 266.889 101.838 265.166 105.3 264.042C111.143 262.145 115.174 265.343 116.088 263.368C116.716 262.013 114.448 260.048 111.911 258.796C109.306 257.51 107.074 257.777 107.054 257.301C107.033 256.778 109.334 256.8 112.199 256.565C113.53 256.456 117.359 258.404 118.489 256.677C119.39 255.301 115.922 252.278 111.952 251.635C109.143 251.181 106.776 252.618 106.602 252.13C106.47 251.763 107.902 250.941 109.345 250.599C111.726 250.034 115.665 251.985 116.675 250.376C117.663 248.8 114.587 246.213 110.975 245.391C107.929 244.697 105.365 246.426 105.144 245.82C104.989 245.394 105.977 244.383 108.579 242.971C110.752 241.792 115.73 240.896 114.846 238.447C114.103 236.387 108.854 237.205 104.15 238.851Z" fill="#84524D"/>
<path d="M37.171 255.64C30.3203 258.129 25.7637 264.785 26.2323 272.026C26.5395 276.774 29.0153 281.609 36.533 284.346C54.8372 291.009 94.5282 263.956 94.5282 263.956L98.5593 240.423C75.2591 245.312 56.0274 248.788 37.171 255.64Z" fill="#84524D"/>
<path d="M60.7546 248.597L65.601 283.261L34.9453 289.343C15.2585 293.249 -2.13246 275.969 1.67886 256.264C5.01397 239.021 9.99375 220.175 17.125 208.085L54.9353 216.219L45.0314 249.892L60.7546 248.597Z" fill="#C46565"/>
<path d="M45.0335 250.285C44.9967 250.285 44.9596 250.28 44.9226 250.269C44.7146 250.207 44.5954 249.989 44.6567 249.781L49.1318 234.566C49.193 234.358 49.4119 234.239 49.6194 234.3C49.8274 234.361 49.9465 234.58 49.8853 234.788L45.4102 250.003C45.3596 250.174 45.2033 250.285 45.0335 250.285Z" fill="#363E44"/>
<path d="M29.3394 290.292C27.8715 290.292 26.4096 290.179 24.9608 289.952C24.7468 289.918 24.6002 289.717 24.6337 289.503C24.6672 289.289 24.8684 289.142 25.0823 289.176C28.3047 289.68 31.5976 289.607 34.8682 288.958L65.1602 282.949L64.0505 275.012C64.0204 274.797 64.1702 274.598 64.385 274.568C64.6001 274.536 64.7982 274.688 64.8283 274.903L65.9894 283.207C66.0184 283.413 65.8813 283.606 65.677 283.647L35.0214 289.729C33.1291 290.104 31.2294 290.292 29.3394 290.292Z" fill="#363E44"/>
<path d="M40.3708 250.668C40.1685 250.668 39.9968 250.513 39.9799 250.308C39.9621 250.092 40.1229 249.902 40.3389 249.884L60.7216 248.206C60.9365 248.186 61.1273 248.349 61.1451 248.565C61.1629 248.781 61.0021 248.97 60.7861 248.988L40.4034 250.667C40.3923 250.668 40.3815 250.668 40.3708 250.668Z" fill="#363E44"/>
<path d="M94.0455 229.622C93.8286 229.622 93.6529 229.447 93.6529 229.23V199.097C76.6153 199.291 73.6315 187.911 73.6032 187.795C73.5516 187.584 73.6801 187.372 73.8905 187.32C74.1026 187.27 74.3136 187.397 74.3658 187.607C74.4782 188.059 77.3048 198.675 94.037 198.305C94.1399 198.301 94.2447 198.343 94.3202 198.417C94.3957 198.491 94.4382 198.592 94.4382 198.698V229.23C94.4381 229.446 94.2623 229.622 94.0455 229.622Z" fill="#363E44"/>
<path d="M90.2611 191.984L88.6798 191.549C84.0056 190.263 81.2591 185.431 82.5453 180.757L90.7346 150.996C92.0208 146.322 96.8526 143.575 101.527 144.861L103.108 145.296C107.782 146.582 110.529 151.414 109.243 156.088L101.053 185.85C99.767 190.524 94.9353 193.27 90.2611 191.984Z" fill="#84524D"/>
<path d="M119.43 169.154C116.757 174.629 99.803 171.123 99.803 171.123L84.7634 162.033C80.6607 154.507 83.4359 145.08 90.9618 140.978C98.488 136.875 107.915 139.65 112.017 147.176C112.017 147.176 122.152 163.577 119.43 169.154Z" fill="#84524D"/>
<path d="M112.404 151.613C112.404 151.613 118.409 153.534 118.782 154.702C119.228 156.097 115.39 159.188 115.39 159.188C115.39 159.188 112.511 151.568 112.404 151.613Z" fill="#84524D"/>
<path d="M99.1992 154.641C99.1992 154.641 100.998 152.793 103.609 151.971C104.164 151.795 104.517 156.571 103.911 156.485C101.244 156.11 99.1992 154.641 99.1992 154.641Z" fill="white"/>
<mask id="mask0_447_213" style="mask-type:luminance" maskUnits="userSpaceOnUse" x="99" y="151" width="13" height="6">
<path d="M99.1973 154.641C99.1973 154.641 101.843 151.924 105.374 151.612C108.906 151.301 111.986 153.513 111.986 153.513C111.986 153.513 109.34 156.231 105.809 156.542C102.277 156.854 99.1973 154.641 99.1973 154.641Z" fill="white"/>
</mask>
<g mask="url(#mask0_447_213)">
<path d="M103.683 151.822C104.866 149.551 107.665 148.668 109.937 149.851C112.208 151.033 113.09 153.833 111.908 156.104C110.725 158.375 107.926 159.258 105.654 158.075C103.383 156.893 102.501 154.093 103.683 151.822Z" fill="#363E44"/>
</g>
<path d="M74.7539 148.126C74.7539 148.126 76.1053 166.07 88.7444 166.549L90.3438 163.036L97.803 162.77L91.8129 156.466C89.8193 153.882 90.6873 150.121 93.6114 148.672L106.375 142.348L102.593 135.724C91.4911 134.922 81.952 138.354 74.7539 148.126Z" fill="#363E44"/>
<path d="M87.815 138.952C86.5725 140.013 84.7048 139.866 83.6438 138.623C82.5827 137.381 82.1743 134.863 83.4171 133.802C84.6596 132.741 87.0825 133.538 88.1436 134.781C89.2048 136.023 89.0575 137.891 87.815 138.952Z" fill="#363E44"/>
<path d="M90.1703 138.677C88.5687 139.001 87.008 137.965 86.6844 136.363C86.3608 134.762 87.2274 132.363 88.8289 132.039C90.4305 131.716 92.1607 133.59 92.4844 135.192C92.808 136.793 91.7719 138.354 90.1703 138.677Z" fill="#363E44"/>
<path d="M95.2337 138.138C93.0197 138.192 91.1816 136.44 91.1282 134.226C91.0747 132.012 92.7983 129.016 95.0123 128.962C97.2264 128.909 99.0924 131.819 99.1458 134.033C99.1992 136.247 97.4477 138.085 95.2337 138.138Z" fill="#363E44"/>
<path d="M83.8035 141.39C82.5959 142.491 80.7245 142.404 79.6239 141.197C78.5233 139.989 78.0339 137.486 79.2415 136.385C80.4492 135.284 82.8965 136.003 83.9973 137.211C85.0979 138.418 85.0111 140.29 83.8035 141.39Z" fill="#363E44"/>
<path d="M98.8498 137.113C97.3086 135.884 97.0557 133.638 98.2847 132.097C99.5137 130.556 102.403 129.496 103.944 130.725C105.485 131.954 105.095 135.006 103.866 136.548C102.637 138.089 100.391 138.342 98.8498 137.113Z" fill="#363E44"/>
<path d="M80.9907 144.058C79.7637 145.682 77.4521 146.005 75.8277 144.778C74.2032 143.551 73.0306 140.597 74.2577 138.972C75.4847 137.348 78.6465 137.668 80.2711 138.895C81.8954 140.122 82.2176 142.433 80.9907 144.058Z" fill="#363E44"/>
<path d="M77.9728 146.222C77.6761 147.783 76.1702 148.808 74.6091 148.512C73.0479 148.215 71.2057 146.554 71.5024 144.993C71.799 143.431 74.1221 142.562 75.6833 142.858C77.2444 143.155 78.2695 144.661 77.9728 146.222Z" fill="#363E44"/>
<path d="M101.687 140.652C100.373 138.639 100.939 135.943 102.952 134.629C104.964 133.316 108.713 133.195 110.027 135.207C111.34 137.219 109.721 140.603 107.709 141.916C105.697 143.23 103 142.664 101.687 140.652Z" fill="#363E44"/>
<path d="M82.1506 163.528C82.4371 166.471 85.0547 168.624 87.9973 168.337C90.9399 168.051 93.0932 165.433 92.8066 162.491C92.5201 159.548 89.9025 157.395 86.9601 157.681C84.0173 157.968 81.8642 160.585 82.1506 163.528Z" fill="#84524D"/>
<path d="M117.327 157.39L122.058 169.533C122.717 171.223 121.833 173.118 120.115 173.705C119.683 173.852 119.215 174.007 118.714 174.164C110.042 176.89 100.575 174.945 93.6873 169.013C91.38 167.026 90.5392 163.82 91.5737 160.956L91.9148 160.012L94.8097 160.057C94.8097 160.057 99.7918 165.404 102.381 164.633C104.97 163.861 108.318 159.684 117.327 157.39Z" fill="#363E44"/>
<path d="M112.268 164.044C112.203 164.044 112.138 164.041 112.073 164.036C111.106 163.962 110.247 163.329 109.884 162.424C109.803 162.222 109.901 161.994 110.102 161.913C110.305 161.832 110.532 161.93 110.613 162.131C110.865 162.761 111.462 163.202 112.133 163.253C112.831 163.306 113.498 162.942 113.836 162.323C113.94 162.133 114.179 162.063 114.37 162.167C114.56 162.272 114.63 162.51 114.526 162.7C114.071 163.531 113.2 164.044 112.268 164.044Z" fill="#84524D"/>
<path d="M90.4101 151.222C90.3853 151.222 90.3602 151.22 90.3351 151.215L82.6249 149.723C82.4119 149.681 82.2726 149.475 82.3139 149.262C82.3552 149.049 82.5613 148.911 82.7741 148.951L90.4844 150.444C90.6973 150.485 90.8366 150.691 90.7953 150.904C90.7588 151.092 90.5946 151.222 90.4101 151.222Z" fill="#84524D"/>
<path d="M17.1399 33.1377H7.08398V69.901H17.1399V33.1377Z" fill="#FF706F"/>
<path d="M69.1009 102.629H0.84386C0.626945 102.629 0.451172 102.453 0.451172 102.236V54.2682C0.451172 54.0513 0.626945 53.8755 0.84386 53.8755C1.06077 53.8755 1.23655 54.0513 1.23655 54.2682V101.843H69.1011C69.318 101.843 69.4938 102.019 69.4938 102.236C69.4938 102.453 69.3179 102.629 69.1009 102.629Z" fill="#D3BBA3"/>
<path d="M17.1399 69.9014H7.08398V95.5985H17.1399V69.9014Z" fill="white"/>
<path d="M33.7336 64.7817H23.6777V95.5981H33.7336V64.7817Z" fill="white"/>
<path d="M50.3293 45.9043H40.2734V95.5977H50.3293V45.9043Z" fill="white"/>
<path d="M66.9231 53.6968H56.8672V95.5978H66.9231V53.6968Z" fill="white"/>
<path d="M83.5422 33.1377H73.4863V95.5983H83.5422V33.1377Z" fill="white"/>
<path d="M100.136 45.481H90.0801V95.5982H100.136V45.481Z" fill="white"/>
<path d="M116.732 63.3672H106.676V95.5979H116.732V63.3672Z" fill="white"/>
<path d="M133.327 51.8589H123.271V95.5982H133.327V51.8589Z" fill="white"/>
<path d="M149.933 58.772H139.877V95.5981H149.933V58.772Z" fill="white"/>
<path d="M166.527 40.8296H156.471V95.5979H166.527V40.8296Z" fill="white"/>
<path d="M183.146 69.9014H173.09V95.5985H183.146V69.9014Z" fill="white"/>
<path d="M33.7336 33.1377H23.6777V64.7816H33.7336V33.1377Z" fill="#FF706F"/>
<path d="M50.3293 33.1377H40.2734V51.5193H50.3293V33.1377Z" fill="#FF706F"/>
<path d="M66.9231 33.1377H56.8672V53.6969H66.9231V33.1377Z" fill="#FF706F"/>
<path d="M100.136 33.1377H90.0801V45.481H100.136V33.1377Z" fill="#FF706F"/>
<path d="M116.732 33.1377H106.676V63.3676H116.732V33.1377Z" fill="#FF706F"/>
<path d="M133.327 33.1377H123.271V54.2685H133.327V33.1377Z" fill="#FF706F"/>
<path d="M149.933 33.1377H139.877V58.7721H149.933V33.1377Z" fill="#FF706F"/>
<path d="M166.527 33.1377H156.471V40.83H166.527V33.1377Z" fill="#FF706F"/>
<path d="M183.146 33.106H173.09V69.901H183.146V33.106Z" fill="#FF706F"/>
<path d="M279.822 85.819C270.387 85.819 261.397 82.1768 254.509 75.5638C247.554 68.8879 243.725 60.0882 243.725 50.7865C243.725 31.4694 259.472 15.7539 278.828 15.7539C298.184 15.7539 313.932 31.4694 313.932 50.7865C313.932 70.4308 298.949 85.819 279.822 85.819ZM278.828 16.5391C259.905 16.5391 244.51 31.9025 244.51 50.7865C244.51 69.3504 260.681 85.0338 279.822 85.0338C298.508 85.0338 313.146 69.9906 313.146 50.7865C313.146 31.9025 297.751 16.5391 278.828 16.5391Z" fill="#FF4342"/>
<path d="M295.258 78.3962C295.121 78.3962 294.989 78.3246 294.916 78.1969C294.809 78.0081 294.876 77.7686 295.064 77.6617C299.295 75.2669 302.046 71.8499 304.876 67.456C304.994 67.2735 305.236 67.2211 305.419 67.3385C305.601 67.456 305.654 67.6989 305.537 67.8813C302.644 72.3729 299.822 75.8712 295.451 78.345C295.39 78.38 295.324 78.3962 295.258 78.3962Z" fill="#FF4342"/>
<path d="M310.128 49.7052C309.92 49.7052 309.746 49.5412 309.736 49.3307C308.969 32.8331 295.393 19.9099 278.83 19.9099C264.58 19.9099 252.232 29.535 248.801 43.3164C248.748 43.5267 248.535 43.6555 248.325 43.6024C248.115 43.55 247.987 43.337 248.039 43.1265C251.557 28.9945 264.219 19.1245 278.83 19.1245C295.814 19.1245 309.734 32.3766 310.521 49.2942C310.531 49.5107 310.363 49.6945 310.147 49.7047C310.14 49.705 310.134 49.7052 310.128 49.7052Z" fill="#FF4342"/>
<path d="M278.828 79.5534C294.748 79.5534 307.654 66.6739 307.654 50.7862C307.654 34.8986 294.748 22.019 278.828 22.019C262.908 22.019 250.002 34.8986 250.002 50.7862C250.002 66.6739 262.908 79.5534 278.828 79.5534Z" fill="#FF4342"/>
<path d="M284.809 58.9312C284.809 57.6128 284.334 56.4794 283.384 55.5311C282.434 54.5831 280.875 53.7386 278.708 52.9978C275.709 52.0941 273.444 50.8865 271.915 49.3754C270.386 47.8643 269.622 45.8495 269.622 43.3308C269.622 40.8861 270.323 38.8939 271.726 37.3528C273.129 35.8122 275.063 34.8861 277.527 34.5748V29.6636H281.046V34.5971C283.54 34.9527 285.473 36.0159 286.846 37.7861C288.22 39.5567 288.906 41.9307 288.906 44.9085H284.542C284.542 42.8938 284.074 41.2639 283.139 40.0194C282.203 38.7749 280.904 38.1526 279.242 38.1526C277.49 38.1526 276.18 38.6082 275.312 39.5193C274.443 40.4304 274.009 41.6788 274.009 43.2638C274.009 44.701 274.458 45.864 275.356 46.7528C276.254 47.6417 277.876 48.4862 280.222 49.2862C283.265 50.2639 285.522 51.4827 286.991 52.9418C288.461 54.4011 289.196 56.3829 289.196 58.8865C289.196 61.4348 288.431 63.461 286.902 64.9644C285.373 66.4684 283.273 67.3608 280.6 67.6424V71.9091H277.104V67.6648C274.551 67.3982 272.457 66.4686 270.824 64.8759C269.191 63.2834 268.404 60.9461 268.464 57.8645L268.509 57.7533H272.74C272.74 60.035 273.315 61.6612 274.465 62.6312C275.616 63.6018 277.03 64.0869 278.708 64.0869C280.623 64.0869 282.118 63.6314 283.195 62.7203C284.271 61.809 284.809 60.5461 284.809 58.9312Z" fill="white"/>
<path d="M274.777 154.112C267.056 154.112 259.7 151.132 254.064 145.721C248.373 140.257 245.238 133.056 245.238 125.443C245.238 109.634 258.125 96.7734 273.966 96.7734C289.806 96.7734 302.693 109.634 302.693 125.443C302.693 141.519 290.431 154.112 274.777 154.112ZM273.966 97.5588C258.558 97.5588 246.024 110.068 246.024 125.443C246.024 140.557 259.191 153.327 274.777 153.327C289.99 153.327 301.908 141.079 301.908 125.443C301.907 110.068 289.373 97.5588 273.966 97.5588Z" fill="#FF4342"/>
<path d="M287.378 148.053C287.241 148.053 287.108 147.982 287.035 147.854C286.929 147.665 286.995 147.425 287.184 147.319C290.624 145.371 292.864 142.589 295.168 139.011C295.285 138.829 295.528 138.776 295.711 138.894C295.893 139.011 295.945 139.254 295.828 139.436C293.461 143.112 291.151 145.975 287.571 148.002C287.509 148.037 287.443 148.053 287.378 148.053Z" fill="#FF4342"/>
<path d="M299.515 124.633C299.306 124.633 299.133 124.469 299.123 124.258C298.499 110.83 287.449 100.311 273.966 100.311C262.368 100.311 252.316 108.145 249.524 119.363C249.471 119.573 249.257 119.701 249.048 119.649C248.837 119.596 248.709 119.383 248.762 119.173C251.642 107.605 262.006 99.5254 273.966 99.5254C287.869 99.5254 299.264 110.373 299.908 124.222C299.918 124.438 299.75 124.622 299.534 124.632C299.527 124.632 299.521 124.633 299.515 124.633Z" fill="#FF4342"/>
<path d="M273.967 148.926C286.962 148.926 297.497 138.413 297.497 125.443C297.497 112.474 286.962 101.96 273.967 101.96C260.971 101.96 250.436 112.474 250.436 125.443C250.436 138.413 260.971 148.926 273.967 148.926Z" fill="#FF4342"/>
<path d="M278.847 132.092C278.847 131.016 278.459 130.091 277.684 129.316C276.908 128.543 275.635 127.853 273.866 127.248C271.418 126.511 269.57 125.525 268.322 124.291C267.074 123.058 266.45 121.413 266.45 119.357C266.45 117.362 267.022 115.735 268.168 114.477C269.313 113.22 270.891 112.464 272.903 112.21V108.201H275.775V112.228C277.811 112.518 279.389 113.386 280.51 114.831C281.631 116.276 282.192 118.214 282.192 120.645H278.629C278.629 119.001 278.247 117.67 277.484 116.654C276.72 115.638 275.66 115.13 274.303 115.13C272.872 115.13 271.803 115.502 271.094 116.246C270.385 116.99 270.031 118.009 270.031 119.303C270.031 120.476 270.397 121.425 271.131 122.151C271.864 122.876 273.188 123.566 275.102 124.219C277.587 125.017 279.429 126.012 280.629 127.203C281.828 128.394 282.428 130.012 282.428 132.055C282.428 134.136 281.804 135.79 280.556 137.017C279.308 138.244 277.593 138.973 275.412 139.203V142.686H272.558V139.221C270.473 139.003 268.764 138.245 267.431 136.944C266.098 135.644 265.456 133.737 265.505 131.221L265.541 131.13H268.995C268.995 132.993 269.464 134.32 270.403 135.112C271.342 135.904 272.497 136.3 273.866 136.3C275.43 136.3 276.65 135.929 277.529 135.185C278.408 134.441 278.847 133.41 278.847 132.092Z" fill="white"/>
<path d="M231.663 204.819C219.641 204.819 209.484 194.96 209.484 183.29C209.484 171.419 219.162 161.761 231.057 161.761C242.952 161.761 252.63 171.419 252.63 183.29C252.63 195.363 243.42 204.819 231.663 204.819ZM231.057 162.546C219.595 162.546 210.27 171.852 210.27 183.29C210.27 194.535 220.067 204.034 231.663 204.034C242.98 204.034 251.844 194.922 251.844 183.29C251.844 171.852 242.519 162.546 231.057 162.546Z" fill="#FF4342"/>
<path d="M241.083 200.29C240.946 200.29 240.813 200.219 240.74 200.091C240.634 199.903 240.7 199.663 240.889 199.556C243.443 198.11 245.108 196.041 246.822 193.379C246.94 193.197 247.183 193.144 247.365 193.261C247.548 193.379 247.6 193.622 247.483 193.804C245.706 196.564 243.97 198.714 241.276 200.239C241.215 200.274 241.148 200.29 241.083 200.29Z" fill="#FF4342"/>
<path d="M250.155 182.784C249.947 182.784 249.773 182.62 249.763 182.409C249.299 172.424 241.083 164.603 231.058 164.603C222.433 164.603 214.96 170.428 212.883 178.769C212.83 178.98 212.617 179.109 212.407 179.055C212.197 179.003 212.069 178.79 212.121 178.58C214.285 169.888 222.072 163.818 231.058 163.818C241.503 163.818 250.064 171.968 250.548 182.373C250.558 182.59 250.39 182.773 250.174 182.783C250.167 182.783 250.161 182.784 250.155 182.784Z" fill="#FF4342"/>
<path d="M231.058 200.844C240.772 200.844 248.647 192.985 248.647 183.29C248.647 173.596 240.772 165.737 231.058 165.737C221.344 165.737 213.469 173.596 213.469 183.29C213.469 192.985 221.344 200.844 231.058 200.844Z" fill="#FF4342"/>
<path d="M234.708 188.26C234.708 187.456 234.418 186.764 233.839 186.185C233.259 185.607 232.307 185.092 230.985 184.639C229.155 184.088 227.774 183.351 226.841 182.429C225.908 181.507 225.441 180.278 225.441 178.741C225.441 177.249 225.869 176.034 226.725 175.093C227.581 174.153 228.761 173.588 230.265 173.398V170.401H232.412V173.412C233.933 173.629 235.113 174.277 235.951 175.357C236.789 176.438 237.208 177.886 237.208 179.703H234.545C234.545 178.474 234.26 177.48 233.689 176.72C233.118 175.961 232.325 175.581 231.311 175.581C230.242 175.581 229.443 175.859 228.913 176.415C228.383 176.971 228.118 177.733 228.118 178.7C228.118 179.577 228.392 180.286 228.94 180.829C229.488 181.371 230.478 181.887 231.909 182.375C233.766 182.971 235.143 183.715 236.04 184.605C236.937 185.496 237.385 186.705 237.385 188.233C237.385 189.788 236.918 191.024 235.985 191.941C235.052 192.859 233.77 193.403 232.14 193.575V196.179H230.007V193.589C228.448 193.426 227.171 192.859 226.175 191.887C225.178 190.915 224.698 189.489 224.734 187.609L224.762 187.541H227.343C227.343 188.933 227.694 189.925 228.396 190.517C229.098 191.109 229.961 191.405 230.985 191.405C232.153 191.405 233.066 191.127 233.723 190.571C234.38 190.016 234.708 189.245 234.708 188.26Z" fill="white"/>
<path d="M280.595 315.182C280.58 315.182 280.565 315.181 280.549 315.179L268.23 313.738C268.127 313.726 268.032 313.673 267.968 313.592C267.903 313.51 267.874 313.406 267.886 313.303L268.274 309.979C266.755 309.494 265.261 308.9 263.823 308.211L261.825 310.894C261.762 310.978 261.67 311.033 261.567 311.048C261.464 311.063 261.359 311.037 261.275 310.975L251.327 303.567C251.243 303.504 251.188 303.412 251.173 303.309C251.158 303.206 251.184 303.101 251.246 303.017L253.24 300.341C252.164 299.159 251.167 297.896 250.268 296.578L247.202 297.901C247.106 297.942 246.998 297.943 246.901 297.905C246.804 297.867 246.727 297.791 246.685 297.696L241.774 286.306C241.733 286.21 241.731 286.102 241.77 286.005C241.808 285.909 241.883 285.831 241.979 285.79L245.046 284.468C244.704 282.91 244.471 281.318 244.349 279.724L241.034 279.337C240.819 279.311 240.665 279.116 240.69 278.901L242.132 266.581C242.144 266.478 242.197 266.384 242.278 266.319C242.36 266.254 242.464 266.226 242.567 266.237L245.89 266.626C246.376 265.106 246.97 263.611 247.659 262.174L244.976 260.176C244.802 260.046 244.766 259.8 244.895 259.627L252.303 249.679C252.366 249.595 252.458 249.539 252.561 249.524C252.664 249.508 252.769 249.536 252.853 249.598L255.529 251.591C256.711 250.516 257.974 249.518 259.292 248.62L257.969 245.553C257.884 245.354 257.975 245.123 258.175 245.037L269.564 240.126C269.66 240.084 269.768 240.083 269.865 240.121C269.961 240.16 270.039 240.235 270.08 240.331L271.402 243.397C272.96 243.056 274.552 242.822 276.146 242.701L276.533 239.386C276.545 239.283 276.598 239.188 276.68 239.124C276.761 239.059 276.865 239.029 276.969 239.042L289.289 240.483C289.504 240.508 289.658 240.703 289.633 240.919L289.244 244.242C290.763 244.727 292.258 245.321 293.696 246.011L295.694 243.327C295.824 243.153 296.07 243.117 296.244 243.247L306.192 250.655C306.275 250.717 306.331 250.81 306.346 250.913C306.361 251.016 306.334 251.121 306.272 251.204L304.279 253.881C305.355 255.063 306.352 256.326 307.25 257.643L310.317 256.321C310.413 256.279 310.521 256.278 310.617 256.316C310.714 256.355 310.792 256.43 310.833 256.526L315.745 267.916C315.786 268.011 315.787 268.119 315.749 268.216C315.711 268.313 315.635 268.391 315.54 268.432L312.473 269.754C312.814 271.312 313.048 272.904 313.169 274.497L316.484 274.885C316.699 274.91 316.854 275.105 316.828 275.321L315.387 287.64C315.375 287.743 315.322 287.838 315.24 287.903C315.159 287.967 315.054 287.997 314.951 287.984L311.628 287.596C311.143 289.115 310.549 290.609 309.859 292.047L312.543 294.045C312.717 294.175 312.753 294.421 312.623 294.595L305.215 304.543C305.153 304.627 305.06 304.682 304.957 304.697C304.854 304.712 304.749 304.686 304.666 304.624L301.989 302.63C300.807 303.706 299.544 304.704 298.227 305.602L299.549 308.668C299.635 308.868 299.543 309.099 299.344 309.185L287.955 314.096C287.755 314.181 287.524 314.09 287.439 313.891L286.116 310.824C284.559 311.166 282.967 311.399 281.373 311.52L280.985 314.835C280.973 314.938 280.92 315.033 280.839 315.098C280.769 315.153 280.683 315.182 280.595 315.182ZM268.711 313.004L280.251 314.354L280.631 311.106C280.653 310.918 280.806 310.773 280.995 310.76C282.765 310.643 284.536 310.382 286.26 309.987C286.443 309.944 286.633 310.04 286.708 310.214L288.004 313.219L298.673 308.619L297.377 305.614C297.302 305.44 297.362 305.237 297.519 305.132C298.99 304.15 300.395 303.04 301.696 301.834C301.835 301.704 302.046 301.694 302.197 301.806L304.82 303.759L311.758 294.441L309.129 292.483C308.977 292.37 308.928 292.165 309.011 291.995C309.792 290.406 310.453 288.743 310.976 287.052C311.032 286.871 311.209 286.755 311.397 286.778L314.652 287.159L316.003 275.619L312.755 275.239C312.567 275.217 312.421 275.064 312.409 274.876C312.291 273.107 312.031 271.335 311.636 269.61C311.593 269.425 311.689 269.237 311.863 269.162L314.868 267.866L310.267 257.198L307.262 258.493C307.088 258.569 306.886 258.509 306.78 258.351C305.798 256.88 304.689 255.475 303.482 254.174C303.353 254.036 303.342 253.825 303.455 253.673L305.408 251.05L296.089 244.111L294.132 246.741C294.018 246.893 293.814 246.942 293.643 246.858C292.054 246.078 290.391 245.417 288.701 244.894C288.52 244.838 288.405 244.661 288.427 244.473L288.807 241.218L277.268 239.868L276.888 243.115C276.866 243.303 276.713 243.449 276.524 243.461C274.754 243.579 272.983 243.839 271.259 244.234C271.074 244.277 270.885 244.181 270.81 244.007L269.514 241.002L258.846 245.603L260.142 248.608C260.217 248.782 260.157 248.984 259.999 249.09C258.527 250.073 257.122 251.182 255.823 252.388C255.684 252.517 255.473 252.528 255.321 252.415L252.699 250.462L245.76 259.781L248.389 261.738C248.541 261.852 248.59 262.057 248.507 262.227C247.727 263.814 247.066 265.477 246.543 267.17C246.487 267.35 246.309 267.466 246.122 267.443L242.866 267.063L241.516 278.602L244.764 278.982C244.952 279.004 245.097 279.157 245.11 279.346C245.227 281.116 245.488 282.888 245.883 284.611C245.925 284.796 245.83 284.985 245.656 285.06L242.651 286.355L247.251 297.024L250.256 295.728C250.43 295.653 250.633 295.713 250.738 295.871C251.721 297.342 252.831 298.747 254.037 300.047C254.166 300.186 254.177 300.397 254.064 300.549L252.111 303.171L261.429 310.11L263.387 307.481C263.5 307.329 263.705 307.28 263.875 307.363C265.464 308.143 267.127 308.804 268.818 309.327C268.999 309.383 269.114 309.56 269.092 309.748L268.711 313.004ZM278.791 299.407C270.384 299.407 262.352 294.625 258.586 286.604C255.935 280.958 255.741 274.663 258.04 268.877C260.34 263.091 264.802 258.645 270.605 256.359C281.508 252.065 293.952 257.01 298.933 267.617C301.585 273.263 301.778 279.559 299.479 285.345C297.179 291.131 292.717 295.576 286.914 297.862C284.254 298.909 281.502 299.407 278.791 299.407ZM270.749 256.725L270.893 257.09C265.294 259.296 260.988 263.585 258.77 269.167C256.551 274.749 256.738 280.823 259.296 286.27C262.93 294.007 270.679 298.622 278.789 298.622C281.406 298.622 284.059 298.142 286.625 297.131C292.225 294.926 296.53 290.637 298.749 285.055C300.967 279.473 300.78 273.398 298.222 267.951C293.417 257.718 281.412 252.947 270.893 257.09L270.749 256.725Z" fill="#D3BBA3"/>
<path d="M278.758 304.64C270.46 304.64 262.373 300.887 257.04 294.03C256.907 293.859 256.937 293.612 257.109 293.478C257.279 293.346 257.526 293.376 257.66 293.548C265.13 303.151 278.16 306.489 289.348 301.665C295.906 298.837 300.971 293.624 303.609 286.986C306.247 280.349 306.142 273.081 303.313 266.522C298.115 254.467 284.637 247.899 271.967 251.244C271.757 251.299 271.542 251.174 271.487 250.965C271.431 250.755 271.557 250.54 271.766 250.485C278.073 248.82 284.799 249.47 290.708 252.313C296.676 255.186 301.409 260.122 304.035 266.211C306.946 272.962 307.054 280.443 304.339 287.276C301.624 294.108 296.41 299.474 289.659 302.386C286.13 303.907 282.423 304.64 278.758 304.64Z" fill="#D3BBA3"/>
</svg>
