<svg xmlns="http://www.w3.org/2000/svg" width="327" height="328" fill="none">
  <path fill="#FFD9D9" d="M163.5 327.712c90.299 0 163.5-73.201 163.5-163.5C327 73.914 253.799.712 163.5.712S0 73.914 0 164.212c0 90.299 73.201 163.5 163.5 163.5Z"/>
  <path fill="#C46565" d="M13.079 172.308c5.639 8.918 13.715 13.774 19.486 11.128 3.447-1.58 5.405-5.528 5.768-10.602 4.08 3.037 8.35 4.131 11.796 2.551 6.75-3.095 7.79-15.274 2.321-27.203-1.336-2.914-3.559-5.585-6.262-7.997l-3.602 8.737a2.884 2.884 0 0 1-5.332-2.199l4.208-10.206c-3.725-2.55-7.83-4.709-11.623-6.449l-1.117 2.71a2.885 2.885 0 0 1-5.332-2.199l1.145-2.776c-4.759-1.889-8.167-2.881-8.167-2.881s-2.58 5.653-4.794 13.212l5.889 1.951a2.884 2.884 0 0 1-1.815 5.475l-5.534-1.834c-1.63 7.156-2.458 15.083-.564 21.336l13.086 4.337a2.884 2.884 0 0 1-1.814 5.475l-7.743-2.566Zm29.57-7.353a3.12 3.12 0 1 1 5.673-2.6 3.12 3.12 0 0 1-5.673 2.6Zm-23.924-5.477a3.12 3.12 0 1 1-2.602-5.672 3.12 3.12 0 0 1 2.602 5.672Z"/>
  <path fill="#363E44" d="M44.999 201.432a.178.178 0 0 1-.178-.157c-2.735-22.378-11.774-47.006-26.865-73.2a.179.179 0 0 1 .309-.179c6.19 10.744 11.194 20.835 15.298 30.85 6.07 14.816 9.978 29.111 11.613 42.486a.18.18 0 0 1-.156.199l-.021.001Z"/>
  <path fill="#C46565" d="M88.946 158.629a2.884 2.884 0 1 1-1.246-5.631l13.46-2.98c2.523-6.027 2.507-13.997 1.616-21.282l-5.692 1.26a2.884 2.884 0 1 1-1.247-5.631l6.058-1.341c-1.431-7.745-3.422-13.632-3.422-13.632s-3.491.639-8.417 2.034l.855 2.878a2.884 2.884 0 0 1-5.528 1.643l-.835-2.81c-3.951 1.344-8.255 3.073-12.22 5.229l3.145 10.582a2.883 2.883 0 1 1-5.529 1.644l-2.692-9.059c-2.935 2.123-5.419 4.554-7.045 7.317-6.657 11.309-6.866 23.53-.466 27.297 3.267 1.924 7.625 1.271 11.995-1.333-.157 5.084 1.388 9.211 4.655 11.134 5.471 3.221 14-.785 20.52-9.082l-7.965 1.763Zm-27.588-12.29a3.12 3.12 0 1 1 3.166-5.378 3.12 3.12 0 0 1-3.166 5.378Zm30.139-7.083a3.12 3.12 0 1 1 5.378 3.165 3.12 3.12 0 0 1-5.378-3.165Z"/>
  <path fill="#363E44" d="M56.11 215.462h-.006a.18.18 0 0 1-.172-.185c.675-18.167 6.056-38.531 15.993-60.527 9.626-21.307 20.243-36.885 24.36-42.593a.179.179 0 1 1 .29.209c-3.935 5.455-38.494 54.686-40.286 102.924a.179.179 0 0 1-.179.172Z"/>
  <path fill="#FF706F" d="M39.592 239.58h31.494l3.6-41.281H35.991l3.6 41.281Z"/>
  <path fill="#FF9D9C" d="M289.519 178.677c-8.732 23.74-23.813 41.571-23.813 41.571s-.925-20.659 7.807-44.398c8.732-23.74 23.813-41.571 23.813-41.571s.925 20.659-7.807 44.398Z"/>
  <path fill="#C46565" d="M274.933 196.794a.179.179 0 0 1-.168-.24l17.486-47.928a.179.179 0 0 1 .335.123l-17.485 47.928a.18.18 0 0 1-.168.117ZM267.228 222.002c1.741-5.301 7.726-24.983 8.992-48.57 1.487-27.675-4.086-50.241-4.086-50.241s-7.983 22.305-9.47 49.98c-1.269 23.627 2.607 43.527 3.768 48.844l.796-.013Z"/>
  <path fill="#FF9D9C" d="M268.232 188.005h-.011a.179.179 0 0 1-.168-.189l3.289-55.84a.18.18 0 0 1 .189-.168.179.179 0 0 1 .167.189l-3.288 55.84a.18.18 0 0 1-.178.168ZM264.538 221.881h2.179c.642-7.125 1.584-25.983-3.507-47.415-6.488-27.308-20.316-48.45-20.316-48.45s-3.308 23.133 3.179 50.441c5.032 21.181 14.478 38.65 18.465 45.424Z"/>
  <path fill="#C46565" d="M260.025 193.225a.18.18 0 0 1-.173-.134l-14.21-54.97a.179.179 0 0 1 .346-.09l14.21 54.97a.179.179 0 0 1-.173.224Z"/>
  <path fill="#FF706F" d="M295.569 191.396h-54.63l8.819 43.779h36.992l8.819-43.779Z"/>
  <path fill="#F7F1EB" d="M287.534 58.038C257.546 22.954 212.971.712 163.199.712c-46.324 0-88.146 19.267-117.896 50.222 11.116 13.892 21.584 18.741 30.13 20.061 12.392 1.915 19.903-3.722 31.575 1.926 13.179 6.377 12.423 17.833 24.644 25.799 6.703 4.369 18.179 8.255 38.506 3.465 19.947.355 32.501-5.074 40.431-10.396 10.197-6.845 10.99-12.333 20.794-16.173 15.158-5.938 24.062 2.952 36.966-.77 5.794-1.671 12.681-5.97 19.185-16.808Z"/>
  <path fill="#BC8271" d="M181.289 241.453s12.435-3.559 20.824 2.503c7.45 5.383 4.494 25.858 4.494 25.858s4.332 8.724 3.767 16.762c-.534 7.611-4.269 13.356-7.434 13.029-2.53-.262-4.476-8.873-4.476-8.873s-11.611-14.254-13.748-17.505c-2.138-3.251-6.286-9.708-6.286-9.708l-13.866-5.602 5.749-21.112 10.976 4.648Z"/>
  <path fill="#FF4342" d="M216.84 224.134a148.245 148.245 0 0 0-17.468-2.232V209.76h-70.735v11.677a147.287 147.287 0 0 0-16.591 2.162c-34.168 6.413-62.508 25.968-59.834 40.215 2.675 14.248 35.35 17.794 69.518 11.38 17.277-3.243 32.342-9.129 42.673-15.997.633.42 3.083 2.553 3.083 2.553l-2.955 22.575s106.223 0 109.381-23.032c1.95-14.222-22.904-30.745-57.072-37.159Z"/>
  <path fill="#363E44" d="M165.001 242.709a.18.18 0 0 1-.04-.353 200.512 200.512 0 0 1 38.206-4.975 200.525 200.525 0 0 1 50.453 4.763.18.18 0 0 1 .135.214.18.18 0 0 1-.214.135 200.129 200.129 0 0 0-50.362-4.755 200.051 200.051 0 0 0-38.138 4.967.181.181 0 0 1-.04.004Z"/>
  <path fill="#363E44" d="M165.248 242.709a.187.187 0 0 1-.04-.004 200.04 200.04 0 0 0-38.138-4.967 200.132 200.132 0 0 0-50.362 4.755.18.18 0 0 1-.078-.349 200.519 200.519 0 0 1 50.452-4.763 200.501 200.501 0 0 1 38.206 4.975.18.18 0 0 1 .135.214.18.18 0 0 1-.175.139Z"/>
  <path fill="#BC8271" d="M160.552 239.329s-10.245-10.213-20.222-7.461c-10.535 2.907-11.725 15.088-15.509 20.448-2.635 3.733-8.696 7.199-11.278 14.379-2.581 7.181-1.077 13.362 1.418 13.859 3.613.719 6.929-6.029 6.929-6.029s17.066-7.397 20.489-9.248c3.422-1.851 10.24-5.161 10.24-5.161l14.865 1.634 4.936-21.317-11.868-1.104Z"/>
  <path fill="#363E44" d="M159.389 248.35a.18.18 0 0 1-.138-.065 6.118 6.118 0 0 0-3.867-2.132c-1.831-.258-3.366.327-4.118.699a.179.179 0 1 1-.158-.321c.789-.39 2.4-1.003 4.326-.732a6.475 6.475 0 0 1 4.092 2.258.18.18 0 0 1-.137.293Z"/>
  <path fill="#BC8271" d="m101.698 222.302 31.908-34.502-22.665-29.632-25.134 45.243 15.891 18.891ZM224.691 222.302 192.783 187.8l22.665-29.632 25.135 45.243-15.892 18.891Z"/>
  <path fill="#fff" d="M99.33 171.574s14.519-35.866 65.426-35.866c48.439 0 62.308 33.973 62.308 33.973l-20.724 15.577-3.194 36.948-80.25-.237-3.939-37.294-19.627-13.101Z"/>
  <path fill="#BC8271" d="M104.101 208.606c-3.603-7.683-10.432-11.841-17.241-6.776-17.76 13.209-33.416 25.094-42.371 30.948-4.7 3.072-9.992 5.25-12.088 10.227-.93 2.206-1.487 4.788.2 5.306 2.635.808 5.29-5.669 7.42-4.951 2.139.722 1.31 7.728-1.18 8.663-2.009.755-3.777-4.853-5.898-3.451-1.452.959-.096 4.352.939 6.083.328.549 1.707 2.855 4.544 3.239 3 .406 5.044-1.687 5.25-1.904.259 1.7 1.41 2.985 2.638 3.142 1.64.209 3.694-1.555 3.587-4.186.073.321.631 2.696 1.866 2.92 1.21.219 3.005-1.643 3.81-4.959.526 1.87 1.497 2.924 2.218 2.924 2.02.002 4.093-3.147 5.526-11.712 4.286-2.574 24.965-13.918 35.71-19.797 5.478-2.997 7.778-9.705 5.216-15.399a22.35 22.35 0 0 0-.146-.317Z"/>
  <path fill="#363E44" d="M45.903 242.621a8.4 8.4 0 0 1-2.64-.428.179.179 0 0 1 .113-.339c1.009.338 3.043.772 5.324-.116 2.017-.785 3.183-2.221 3.698-3.007a.18.18 0 0 1 .299.196c-.539.822-1.757 2.323-3.868 3.144a8.034 8.034 0 0 1-2.926.55ZM60.285 251.286a.179.179 0 0 1-.179-.171c-.127-2.982-1.261-4.865-2.018-4.902l-.026-.001c-.798 0-1.954 1.742-2.363 4.291a.212.212 0 0 1-.226.178.21.21 0 0 1-.192-.215c.054-2.93-.758-4.857-1.575-5.027-.988-.207-2.77 1.826-3.74 5.072a.211.211 0 0 1-.244.148.21.21 0 0 1-.167-.23c.307-2.883-.552-5.075-1.546-5.313-1.046-.251-3.13 1.578-4.014 5.014a.178.178 0 0 1-.218.128.178.178 0 0 1-.129-.217c.88-3.417 3.07-5.602 4.444-5.273 1.133.272 1.897 2.236 1.88 4.602 1.105-2.933 2.762-4.499 3.807-4.281.962.2 1.671 1.87 1.829 4.141.548-2.009 1.56-3.42 2.497-3.374 1.18.058 2.237 2.41 2.358 5.244a.179.179 0 0 1-.17.186h-.008ZM98.722 209.315a5.448 5.448 0 0 1-2.629-.666c-1.492-.82-2.168-2.097-2.438-2.786a.18.18 0 0 1 .101-.232.18.18 0 0 1 .231.102c.204.518.833 1.808 2.278 2.603a5.138 5.138 0 0 0 3.04.589.179.179 0 1 1 .042.355 5.6 5.6 0 0 1-.625.035Z"/>
  <path fill="#BC8271" d="M222.291 208.606c3.603-7.683 10.432-11.841 17.241-6.776 17.76 13.209 33.417 25.094 42.371 30.948 4.701 3.072 9.992 5.25 12.088 10.227.93 2.206 1.487 4.788-.2 5.306-2.635.808-5.291-5.669-7.42-4.951-2.139.722-1.31 7.728 1.18 8.663 2.009.755 3.778-4.853 5.899-3.451 1.451.959.096 4.352-.94 6.083-.328.549-1.707 2.855-4.543 3.239-3.001.406-5.045-1.687-5.25-1.904-.26 1.7-1.411 2.985-2.639 3.142-1.639.209-3.694-1.555-3.587-4.186-.072.321-.631 2.696-1.866 2.92-1.211.219-3.004-1.643-3.809-4.959-.527 1.87-1.497 2.924-2.218 2.924-2.021.002-4.094-3.147-5.527-11.712-4.285-2.574-24.965-13.918-35.71-19.797-5.478-2.997-7.778-9.705-5.215-15.399.047-.106.095-.211.145-.317Z"/>
  <path fill="#363E44" d="M280.491 242.621a8.032 8.032 0 0 1-2.926-.549c-2.111-.821-3.329-2.322-3.868-3.144a.18.18 0 0 1 .299-.196c.515.786 1.681 2.222 3.699 3.007 2.28.887 4.314.453 5.323.116a.178.178 0 1 1 .113.339 8.4 8.4 0 0 1-2.64.427ZM266.109 251.287l-.008-.001a.178.178 0 0 1-.171-.186c.121-2.833 1.179-5.186 2.358-5.244.95-.047 1.949 1.366 2.497 3.374.158-2.271.867-3.94 1.829-4.141 1.044-.217 2.702 1.349 3.806 4.281-.016-2.365.748-4.33 1.881-4.601 1.372-.33 3.564 1.855 4.444 5.272a.18.18 0 0 1-.347.089c-.884-3.436-2.966-5.265-4.014-5.014-.994.239-1.853 2.431-1.546 5.314a.21.21 0 0 1-.167.23.213.213 0 0 1-.244-.149c-.969-3.246-2.749-5.278-3.74-5.072-.816.17-1.629 2.097-1.575 5.027a.208.208 0 0 1-.192.215.211.211 0 0 1-.226-.178c-.414-2.577-1.599-4.33-2.389-4.29-.757.038-1.891 1.92-2.018 4.903a.178.178 0 0 1-.178.171ZM227.67 209.315c-.244 0-.456-.015-.625-.035a.18.18 0 0 1 .041-.356c.607.072 1.808.09 3.041-.588 1.445-.795 2.074-2.085 2.277-2.603a.18.18 0 0 1 .232-.102.18.18 0 0 1 .101.232c-.27.688-.946 1.966-2.438 2.786a5.448 5.448 0 0 1-2.629.666ZM206.339 185.438l-.014-.001a.178.178 0 0 1-.164-.192l1.134-14.487a.18.18 0 0 1 .192-.164.178.178 0 0 1 .164.192l-1.134 14.487a.18.18 0 0 1-.178.165ZM118.262 179.761a.176.176 0 0 1-.1-.031l-17.093-11.608a.179.179 0 1 1 .2-.295l17.094 11.607a.179.179 0 0 1-.101.327Z"/>
  <path fill="#363E44" d="M206.755 180.154a.178.178 0 0 1-.111-.318l18.127-14.414a.178.178 0 1 1 .222.279l-18.127 14.414a.173.173 0 0 1-.111.039ZM118.953 184.854a.18.18 0 0 1-.178-.163l-1.382-15.567a.18.18 0 0 1 .162-.194.178.178 0 0 1 .194.163l1.382 15.566a.18.18 0 0 1-.162.194l-.016.001ZM181.182 103.63c0 9.401-7.621 17.021-17.022 17.021-9.401 0-17.021-7.621-17.021-17.021s3.967-17.922 15.286-17.58c1.762.054 5.124 1.255 6.797 1.324 9.544.388 11.96 8.618 11.96 16.256Z"/>
  <path fill="#BC8271" d="M164.499 146.79c-5.725 0-10.366-4.642-10.366-10.367v-18.795h20.733v18.795c0 5.725-4.641 10.367-10.367 10.367Z"/>
  <path fill="#BC8271" d="M178.209 109.819c0 9.067-6.28 18.631-14.026 18.631-7.747 0-14.027-9.564-14.027-18.631 0-1.033.082-2.044.238-3.024 0 0 6.493-1.327 10.999-4.225 4.516-2.903 7.709-7.124 7.709-7.124 5.32 2.332 9.107 7.331 9.107 14.373Z"/>
  <path fill="#363E44" d="M164.181 128.628c-2.801 0-5.556-1.229-7.966-3.555a.178.178 0 1 1 .248-.257c2.343 2.26 5.012 3.454 7.718 3.454 2.944 0 5.808-1.392 8.282-4.026a.18.18 0 0 1 .253-.008.18.18 0 0 1 .008.253c-2.544 2.708-5.498 4.139-8.543 4.139Z"/>
  <path fill="#BC8271" d="M151.602 116.073c1.869-.852 2.357-3.794 1.09-6.571-1.267-2.776-3.809-4.336-5.677-3.483-1.869.853-2.357 3.795-1.09 6.571 1.266 2.777 3.808 4.336 5.677 3.483Z"/>
  <path fill="#363E44" d="M148.378 113.382a.18.18 0 0 1-.116-.042 4.239 4.239 0 0 1-1.081-1.464c-.346-.76-.472-1.568-.355-2.276.122-.733.489-1.274 1.035-1.523.411-.188.887-.19 1.374-.007a.18.18 0 0 1-.125.335c-.397-.149-.778-.15-1.101-.002-.434.198-.729.644-.83 1.256-.106.638.01 1.373.328 2.069.244.534.585.998.987 1.34a.179.179 0 0 1 .02.252.18.18 0 0 1-.136.062Z"/>
  <path fill="#BC8271" d="M182.698 112.576c1.267-2.776.779-5.718-1.09-6.571-1.869-.853-4.411.707-5.678 3.483-1.266 2.777-.778 5.719 1.09 6.571 1.869.853 4.411-.706 5.678-3.483Z"/>
  <path fill="#363E44" d="M177.271 116.001a.179.179 0 0 1-.17-.235c.626-1.913.944-3.931.944-5.999 0-.881-.059-1.765-.175-2.629a.178.178 0 1 1 .354-.047c.118.879.178 1.78.178 2.677 0 2.105-.324 4.161-.962 6.11a.178.178 0 0 1-.169.123ZM151.102 115.932a.179.179 0 0 1-.17-.122 19.01 19.01 0 0 1-.953-5.992c0-1.025.08-2.052.239-3.052a.178.178 0 0 1 .205-.148.178.178 0 0 1 .148.204c-.156.982-.235 1.99-.235 2.996 0 2.028.315 4.006.936 5.879a.179.179 0 0 1-.17.235ZM164.462 117.792a.178.178 0 0 1-.096-.329c.469-.298.752-.642.843-1.024.095-.401-.048-.726-.246-1.177-.153-.347-.327-.74-.428-1.262a4.849 4.849 0 0 1 .072-2.096.179.179 0 0 1 .347.085 4.503 4.503 0 0 0-.069 1.942c.094.483.259.857.405 1.187.209.475.39.886.267 1.404-.113.475-.449.893-.999 1.243a.186.186 0 0 1-.096.027ZM163.595 121.029c-.284 0-.562-.054-.815-.159a2.233 2.233 0 0 1-1.149-1.125.178.178 0 1 1 .322-.153c.209.44.551.777.964.948.268.111.571.154.876.122a.179.179 0 0 1 .037.355 2.326 2.326 0 0 1-.235.012ZM180.048 113.382a.179.179 0 0 1-.116-.315c.402-.342.743-.806.987-1.34.317-.696.434-1.431.328-2.069-.102-.612-.397-1.058-.831-1.256-.323-.148-.703-.147-1.1.002a.179.179 0 0 1-.126-.335c.488-.183.963-.181 1.375.007.545.249.913.79 1.035 1.524.117.707-.009 1.515-.356 2.275a4.236 4.236 0 0 1-1.08 1.464.178.178 0 0 1-.116.043ZM157.337 112.976c-2.857 0-5.124-2.563-5.219-2.672a.179.179 0 1 1 .27-.235c.022.026 2.257 2.549 4.949 2.549 2.691 0 4.926-2.523 4.948-2.549a.179.179 0 1 1 .27.235c-.095.109-2.362 2.672-5.218 2.672ZM171.254 112.976c-2.856 0-5.123-2.563-5.218-2.672a.179.179 0 1 1 .27-.235c.022.026 2.257 2.549 4.948 2.549 2.692 0 4.927-2.523 4.949-2.549a.179.179 0 1 1 .27.235c-.095.109-2.362 2.672-5.219 2.672Z"/>
  <path fill="#fff" d="m160.282 70.293-.063-.013a24.576 24.576 0 0 1-19.188-19.137l-.013.063a24.579 24.579 0 0 1-19.137 19.189l.063.013a24.578 24.578 0 0 1 19.189 19.136l.012-.063a24.579 24.579 0 0 1 19.137-19.188ZM130.884 104.845l-.028-.006a11.094 11.094 0 0 1-8.663-8.64l-.006.03a11.096 11.096 0 0 1-8.64 8.662l.028.006a11.095 11.095 0 0 1 8.663 8.64l.006-.029a11.096 11.096 0 0 1 8.64-8.663Z"/>
  <path fill="#FF706F" d="m195.789 61.964-.028-.006a10.617 10.617 0 0 1-8.289-8.267l-.006.027a10.616 10.616 0 0 1-8.267 8.29l.028.005c4.17.846 7.432 4.1 8.289 8.268l.006-.028a10.616 10.616 0 0 1 8.267-8.29Z"/>
  <path fill="#fff" d="m209.078 96.876-.026-.005a10.204 10.204 0 0 1-7.966-7.944l-.005.026a10.203 10.203 0 0 1-7.944 7.966l.026.005a10.204 10.204 0 0 1 7.966 7.944l.005-.026a10.203 10.203 0 0 1 7.944-7.966Z"/>
  <path fill="#FF4342" d="m68.904 56.159-16.09 8.222 24.313 7.867-13.614 6.958 31.793 10.287-12.743-11.698 9.489-4.85L68.904 56.16ZM262.516 101.929l-4.443-18.618-14.175 23.061-3.759-15.753-18.535 30.155 15.226-10.193 2.62 10.98 23.066-19.632Z"/>
  <path fill="#363E44" d="M229.817 133.652a.178.178 0 0 1-.167-.116c-3.353-8.959-8.726-14.656-12.644-17.858-4.247-3.471-7.747-4.84-7.782-4.854a.178.178 0 1 1 .128-.333c.036.014 3.578 1.398 7.868 4.9 3.956 3.231 9.382 8.979 12.765 18.02a.18.18 0 0 1-.168.241ZM85.032 104.566a.179.179 0 0 1-.168-.24c3.33-9.029 9.382-14.72 13.873-17.904 4.866-3.45 9.005-4.786 9.046-4.8a.179.179 0 0 1 .109.341c-.041.014-4.137 1.336-8.959 4.758-4.446 3.155-10.437 8.791-13.733 17.729a.18.18 0 0 1-.168.116ZM189.932 269.179a73.998 73.998 0 0 0-.571 9.224c0 14.718 4.229 27.523 10.462 34.107h19.175c6.232-6.585 10.461-19.389 10.461-34.107 0-3.179-.198-6.267-.571-9.224h-38.956Z"/>
  <path fill="#363E44" d="M194.023 306.428c-11.523.001-18.976-4.646-22.188-13.854-1.072-3.073-.93-6.958.38-10.392 1.468-3.849 4.167-6.674 7.601-7.954 3.635-1.356 7.944-1.025 11.821.906 4.027 2.006 7.224 5.513 9.001 9.875l-2.451.999c-2.7-6.627-10.353-11.944-17.446-9.3-4.762 1.776-8.598 8.712-6.407 14.994 3.255 9.331 11.29 13.195 24.562 11.813l.274 2.633c-1.797.187-3.513.28-5.147.28Z"/>
  <path fill="#fff" d="M208.054 265.276a.179.179 0 0 1-.159-.259c1.372-2.736 1.726-5.195 1.053-7.309-.443-1.388-1.204-2.235-1.939-3.054-.729-.811-1.418-1.577-1.784-2.797-.747-2.493.336-5.589 3.222-9.201a.18.18 0 0 1 .251-.029.18.18 0 0 1 .028.252c-2.808 3.515-3.871 6.502-3.158 8.875.342 1.144 1.005 1.881 1.706 2.662.761.847 1.548 1.722 2.014 3.184.703 2.206.342 4.755-1.074 7.578a.178.178 0 0 1-.16.098ZM202.614 265.276a.177.177 0 0 1-.159-.258c1.372-2.737 1.726-5.196 1.052-7.309a.18.18 0 0 1 .341-.109c.703 2.206.342 4.755-1.074 7.578a.18.18 0 0 1-.16.098ZM213.497 265.276a.18.18 0 0 1-.16-.259c1.373-2.736 1.727-5.195 1.053-7.309-.442-1.388-1.203-2.235-1.939-3.053-.729-.812-1.418-1.578-1.783-2.798a.177.177 0 0 1 .12-.222.178.178 0 0 1 .222.119c.343 1.144 1.006 1.881 1.707 2.662.761.847 1.548 1.723 2.014 3.184.703 2.205.342 4.755-1.074 7.578a.18.18 0 0 1-.16.098Z"/>
  <path fill="#363E44" d="M147.132 295.433H85.948a.179.179 0 1 1 0-.358h61.184a.179.179 0 0 1 0 .358Z"/>
  <path fill="#363E44" d="M143.362 301.838a.178.178 0 0 1-.178-.179v-6.405a.179.179 0 1 1 .357 0v6.405c0 .099-.08.179-.179.179ZM89.782 301.838a.179.179 0 0 1-.178-.179v-6.405a.179.179 0 1 1 .357 0v6.405c0 .099-.08.179-.179.179ZM138.658 295.433a.155.155 0 0 1-.037-.004l-49.432-10.367a.179.179 0 1 1 .073-.35l49.433 10.368a.179.179 0 0 1-.037.353Z"/>
  <path fill="#363E44" d="M115.019 290.296a1.298 1.298 0 0 1-1.537 1.004l-31.933-6.697a1.298 1.298 0 1 1 .533-2.54l31.933 6.697a1.298 1.298 0 0 1 1.004 1.536Z"/>
  <path fill="#fff" d="M91.498 276.119a.179.179 0 0 1-.16-.259c1.63-3.25 2.051-6.173 1.25-8.687-.527-1.652-1.43-2.658-2.305-3.631-.861-.958-1.675-1.864-2.106-3.303-.883-2.942.399-6.601 3.812-10.874a.178.178 0 1 1 .279.223c-3.335 4.176-4.597 7.725-3.749 10.549.408 1.362 1.196 2.238 2.03 3.166.9 1.001 1.83 2.037 2.38 3.762.83 2.605.402 5.618-1.271 8.955a.178.178 0 0 1-.16.099ZM85.052 276.12a.18.18 0 0 1-.16-.259c1.63-3.251 2.05-6.174 1.25-8.687a.18.18 0 0 1 .34-.109c.83 2.606.403 5.619-1.27 8.956a.18.18 0 0 1-.16.099ZM97.948 276.119a.179.179 0 0 1-.16-.259c1.63-3.251 2.051-6.173 1.25-8.687-.527-1.652-1.43-2.658-2.305-3.631-.861-.959-1.675-1.864-2.106-3.303a.178.178 0 1 1 .342-.102c.409 1.362 1.196 2.238 2.03 3.166.9 1.001 1.83 2.037 2.38 3.762.83 2.605.403 5.618-1.271 8.955a.178.178 0 0 1-.16.099Z"/>
</svg>
