<svg width="327" height="328" viewBox="0 0 327 328" fill="none" xmlns="http://www.w3.org/2000/svg">
<path d="M163.5 327.712C253.799 327.712 327 254.511 327 164.212C327 73.9138 253.799 0.712402 163.5 0.712402C73.2014 0.712402 0 73.9138 0 164.212C0 254.511 73.2014 327.712 163.5 327.712Z" fill="#FFD9D9"/>
<path d="M13.0788 172.308C18.718 181.226 26.7938 186.082 32.5655 183.436C36.012 181.856 37.9696 177.908 38.3325 172.834C42.4136 175.871 46.6822 176.965 50.1288 175.385C56.8793 172.29 57.9185 160.111 52.4501 148.182C51.1139 145.268 48.891 142.597 46.1882 140.185L42.586 148.922C41.9788 150.394 40.2929 151.095 38.8205 150.488C37.3481 149.881 36.6467 148.195 37.2537 146.723L41.4622 136.517C37.7373 133.967 33.6326 131.808 29.8394 130.068L28.7221 132.778C28.1149 134.25 26.429 134.952 24.9566 134.345C23.4842 133.738 22.7828 132.052 23.3898 130.579L24.5345 127.803C19.7764 125.914 16.3684 124.922 16.3684 124.922C16.3684 124.922 13.7875 130.575 11.5741 138.134L17.4627 140.085C18.9746 140.586 19.7941 142.218 19.293 143.73C18.792 145.242 17.1602 146.061 15.6483 145.56L10.1143 143.726C8.48488 150.882 7.65595 158.809 9.55005 165.062L22.6363 169.399C24.1482 169.9 24.9677 171.532 24.4666 173.044C23.9656 174.555 22.3338 175.375 20.8219 174.874L13.0788 172.308ZM42.6491 164.955C41.9309 163.388 42.6187 161.536 44.1854 160.818C45.7518 160.1 47.6041 160.788 48.3222 162.354C49.0404 163.921 48.3526 165.773 46.7862 166.491C45.2195 167.209 43.3672 166.521 42.6491 164.955ZM18.7246 159.478C17.1579 160.196 15.3058 159.509 14.5876 157.942C13.8695 156.376 14.5573 154.523 16.124 153.805C17.6907 153.087 19.5428 153.775 20.261 155.341C20.9791 156.908 20.2914 158.76 18.7246 159.478Z" fill="#C46565"/>
<path d="M44.9986 201.432C44.9096 201.432 44.8324 201.366 44.8215 201.275C42.086 178.897 33.0472 154.269 17.9555 128.075C17.9062 127.989 17.9357 127.88 18.0211 127.831C18.1067 127.781 18.2162 127.811 18.265 127.896C24.455 138.64 29.459 148.731 33.5626 158.746C39.6339 173.562 43.5411 187.857 45.1759 201.232C45.1879 201.329 45.1183 201.419 45.0202 201.431C45.0133 201.432 45.0058 201.432 44.9986 201.432Z" fill="#363E44"/>
<path d="M88.9462 158.629C87.3911 158.973 85.8515 157.992 85.5073 156.436C85.1632 154.881 86.1449 153.342 87.6999 152.998L101.16 150.018C103.683 143.991 103.667 136.021 102.776 128.736L97.0837 129.996C95.5286 130.34 93.989 129.359 93.6448 127.804C93.3007 126.249 94.2824 124.709 95.8373 124.365L101.895 123.024C100.464 115.279 98.4732 109.392 98.4732 109.392C98.4732 109.392 94.9819 110.031 90.0559 111.426L90.9112 114.304C91.3649 115.83 90.4953 117.436 88.9685 117.89C87.4418 118.343 85.8363 117.474 85.3826 115.947L84.5476 113.137C80.5966 114.481 76.2931 116.21 72.3275 118.366L75.4727 128.948C75.9264 130.475 75.0567 132.081 73.53 132.534C72.0033 132.988 70.3978 132.118 69.9441 130.592L67.252 121.533C64.3172 123.656 61.8333 126.087 60.2066 128.85C53.5498 140.159 53.3411 152.38 59.7406 156.147C63.008 158.071 67.366 157.418 71.7356 154.814C71.5789 159.898 73.1235 164.025 76.3908 165.948C81.8625 169.169 90.3914 165.163 96.9112 156.866L88.9462 158.629ZM61.3576 146.339C59.8725 145.464 59.3774 143.552 60.2517 142.067C61.126 140.582 63.0385 140.086 64.5236 140.96C66.0088 141.835 66.504 143.747 65.6299 145.233C64.7555 146.718 62.8428 147.213 61.3576 146.339ZM91.497 139.256C92.3713 137.771 94.2838 137.275 95.7691 138.15C97.2543 139.024 97.7495 140.937 96.8753 142.422C96.001 143.907 94.0883 144.402 92.6032 143.528C91.118 142.654 90.6227 140.741 91.497 139.256Z" fill="#C46565"/>
<path d="M56.1104 215.462C56.1081 215.462 56.106 215.462 56.1037 215.462C56.005 215.458 55.9282 215.375 55.9318 215.277C56.6067 197.11 61.9877 176.746 71.9247 154.75C81.5511 133.443 92.1675 117.865 96.285 112.157C96.3427 112.077 96.4544 112.058 96.5346 112.116C96.6147 112.174 96.6327 112.286 96.5748 112.366C92.6403 117.821 58.0812 167.052 56.2888 215.29C56.2854 215.386 56.206 215.462 56.1104 215.462Z" fill="#363E44"/>
<path d="M39.5915 239.58H71.0859L74.6852 198.299H35.9922L39.5915 239.58Z" fill="#FF706F"/>
<path d="M289.519 178.677C280.787 202.417 265.706 220.248 265.706 220.248C265.706 220.248 264.781 199.589 273.513 175.85C282.245 152.11 297.326 134.279 297.326 134.279C297.326 134.279 298.251 154.938 289.519 178.677Z" fill="#FF9D9C"/>
<path d="M274.933 196.794C274.912 196.794 274.892 196.791 274.871 196.783C274.779 196.749 274.731 196.647 274.765 196.554L292.251 148.626C292.285 148.534 292.387 148.486 292.48 148.52C292.573 148.553 292.62 148.656 292.586 148.749L275.101 196.677C275.074 196.749 275.006 196.794 274.933 196.794Z" fill="#C46565"/>
<path d="M267.228 222.002C268.969 216.701 274.954 197.019 276.22 173.432C277.707 145.757 272.134 123.191 272.134 123.191C272.134 123.191 264.151 145.496 262.664 173.171C261.395 196.798 265.271 216.698 266.432 222.015L267.228 222.002Z" fill="#C46565"/>
<path d="M268.232 188.005C268.228 188.005 268.224 188.005 268.221 188.005C268.122 187.999 268.047 187.914 268.053 187.816L271.342 131.976C271.348 131.878 271.434 131.803 271.531 131.808C271.629 131.814 271.704 131.899 271.698 131.997L268.41 187.837C268.404 187.932 268.325 188.005 268.232 188.005Z" fill="#FF9D9C"/>
<path d="M264.538 221.881H266.717C267.359 214.756 268.301 195.898 263.21 174.466C256.722 147.158 242.894 126.016 242.894 126.016C242.894 126.016 239.586 149.149 246.073 176.457C251.105 197.638 260.551 215.107 264.538 221.881Z" fill="#FF9D9C"/>
<path d="M260.025 193.225C259.945 193.225 259.873 193.171 259.852 193.091L245.642 138.121C245.618 138.025 245.675 137.928 245.771 137.903C245.866 137.879 245.964 137.936 245.988 138.031L260.198 193.001C260.223 193.097 260.165 193.194 260.069 193.219C260.054 193.223 260.039 193.225 260.025 193.225Z" fill="#C46565"/>
<path d="M295.569 191.396H240.939L249.758 235.175H286.75L295.569 191.396Z" fill="#FF706F"/>
<path d="M287.534 58.0384C257.546 22.9541 212.971 0.712402 163.199 0.712402C116.875 0.712402 75.0526 19.979 45.3027 50.9339C56.4186 64.8255 66.8867 69.6753 75.4327 70.9954C87.8251 72.9097 95.3362 67.2728 107.008 72.9208C120.187 79.2984 119.431 90.7539 131.652 98.7198C138.355 103.089 149.831 106.975 170.158 102.185C190.105 102.54 202.659 97.1111 210.589 91.7887C220.786 84.9444 221.579 79.4563 231.383 75.6161C246.541 69.6783 255.445 78.5682 268.349 74.846C274.143 73.1747 281.03 68.876 287.534 58.0384Z" fill="#F7F1EB"/>
<path d="M181.289 241.453C181.289 241.453 193.724 237.894 202.113 243.956C209.563 249.339 206.607 269.814 206.607 269.814C206.607 269.814 210.939 278.538 210.374 286.576C209.84 294.187 206.105 299.932 202.94 299.605C200.41 299.343 198.464 290.732 198.464 290.732C198.464 290.732 186.853 276.478 184.716 273.227C182.578 269.976 178.43 263.519 178.43 263.519L164.564 257.917L170.313 236.805L181.289 241.453Z" fill="#BC8271"/>
<path d="M216.84 224.134C210.843 223.009 204.98 222.274 199.372 221.902V209.76H128.637V221.437C123.296 221.82 117.731 222.532 112.046 223.599C77.8777 230.012 49.5377 249.567 52.2121 263.814C54.8866 278.062 87.5625 281.608 121.73 275.194C139.007 271.951 154.072 266.065 164.403 259.197C165.036 259.617 167.486 261.75 167.486 261.75L164.531 284.325C164.531 284.325 270.754 284.325 273.912 261.293C275.862 247.071 251.008 230.548 216.84 224.134Z" fill="#FF4342"/>
<path d="M165.001 242.709C164.92 242.709 164.846 242.653 164.827 242.57C164.805 242.474 164.865 242.378 164.961 242.356C177.493 239.477 190.348 237.803 203.167 237.381C220.073 236.824 237.046 238.427 253.62 242.144C253.716 242.166 253.776 242.261 253.755 242.358C253.733 242.454 253.638 242.514 253.541 242.493C236.998 238.782 220.054 237.182 203.179 237.738C190.383 238.159 177.551 239.83 165.041 242.705C165.028 242.708 165.014 242.709 165.001 242.709Z" fill="#363E44"/>
<path d="M165.248 242.709C165.235 242.709 165.222 242.708 165.208 242.705C152.698 239.83 139.867 238.159 127.07 237.738C110.195 237.182 93.2517 238.782 76.708 242.493C76.6127 242.514 76.5162 242.454 76.4946 242.358C76.473 242.261 76.5336 242.166 76.6299 242.144C93.2031 238.427 110.177 236.824 127.082 237.381C139.902 237.803 152.756 239.477 165.288 242.356C165.384 242.378 165.445 242.474 165.423 242.57C165.403 242.653 165.33 242.709 165.248 242.709Z" fill="#363E44"/>
<path d="M160.552 239.329C160.552 239.329 150.307 229.116 140.33 231.868C129.795 234.775 128.605 246.956 124.821 252.316C122.186 256.049 116.125 259.515 113.543 266.695C110.962 273.876 112.466 280.057 114.961 280.554C118.574 281.273 121.89 274.525 121.89 274.525C121.89 274.525 138.956 267.128 142.379 265.277C145.801 263.426 152.619 260.116 152.619 260.116L167.484 261.75L172.42 240.433L160.552 239.329Z" fill="#BC8271"/>
<path d="M159.389 248.35C159.338 248.35 159.287 248.328 159.251 248.285C158.693 247.614 157.448 246.444 155.384 246.153C153.553 245.895 152.018 246.48 151.266 246.852C151.178 246.895 151.07 246.859 151.026 246.77C150.983 246.682 151.019 246.575 151.108 246.531C151.897 246.141 153.508 245.528 155.434 245.799C157.617 246.107 158.935 247.346 159.526 248.057C159.589 248.133 159.579 248.245 159.503 248.309C159.47 248.336 159.429 248.35 159.389 248.35Z" fill="#363E44"/>
<path d="M101.698 222.302L133.606 187.8L110.941 158.168L85.8066 203.411L101.698 222.302Z" fill="#BC8271"/>
<path d="M224.691 222.302L192.783 187.8L215.448 158.168L240.583 203.411L224.691 222.302Z" fill="#BC8271"/>
<path d="M99.3301 171.574C99.3301 171.574 113.849 135.708 164.756 135.708C213.195 135.708 227.064 169.681 227.064 169.681L206.34 185.258L203.146 222.206L122.896 221.969L118.957 184.675L99.3301 171.574Z" fill="white"/>
<path d="M104.101 208.606C100.498 200.923 93.6693 196.765 86.86 201.83C69.1006 215.039 53.4435 226.924 44.4889 232.778C39.7885 235.85 34.4972 238.028 32.401 243.005C31.4716 245.211 30.9145 247.793 32.6016 248.311C35.2364 249.119 37.8919 242.642 40.021 243.36C42.16 244.082 41.3313 251.088 38.8414 252.023C36.8323 252.778 35.0638 247.17 32.9426 248.572C31.4911 249.531 32.8466 252.924 33.8818 254.655C34.2104 255.204 35.589 257.51 38.4255 257.894C41.4262 258.3 43.4705 256.207 43.6751 255.99C43.9348 257.69 45.0864 258.975 46.3142 259.132C47.9533 259.341 50.008 257.577 49.9014 254.946C49.9737 255.267 50.532 257.642 51.7669 257.866C52.9778 258.085 54.7717 256.223 55.5765 252.907C56.1029 254.777 57.0737 255.831 57.7948 255.831C59.8157 255.833 61.8882 252.684 63.3211 244.119C67.6067 241.545 88.2863 230.201 99.0311 224.322C104.509 221.325 106.809 214.617 104.247 208.923C104.199 208.817 104.151 208.712 104.101 208.606Z" fill="#BC8271"/>
<path d="M45.9028 242.621C44.7814 242.621 43.8538 242.391 43.2627 242.193C43.1692 242.162 43.1185 242.061 43.1499 241.967C43.1812 241.873 43.2829 241.823 43.3762 241.854C44.385 242.192 46.4185 242.626 48.6997 241.738C50.7172 240.953 51.8828 239.517 52.3981 238.731C52.4523 238.649 52.5631 238.626 52.6454 238.68C52.728 238.734 52.7511 238.845 52.6969 238.927C52.1583 239.749 50.9397 241.25 48.8292 242.071C47.7807 242.479 46.782 242.621 45.9028 242.621Z" fill="#363E44"/>
<path d="M60.2847 251.286C60.1896 251.286 60.1104 251.211 60.1063 251.115C59.9787 248.133 58.8448 246.25 58.088 246.213C58.0793 246.213 58.0703 246.212 58.0618 246.212C57.2641 246.212 56.1078 247.954 55.6992 250.503C55.6813 250.614 55.581 250.69 55.4726 250.681C55.3614 250.671 55.2791 250.579 55.281 250.466C55.3346 247.536 54.5225 245.609 53.7062 245.439C52.7179 245.232 50.9351 247.265 49.9658 250.511C49.9339 250.617 49.8282 250.681 49.7218 250.659C49.615 250.638 49.5433 250.539 49.5549 250.429C49.8621 247.546 49.0033 245.354 48.0088 245.116C46.9627 244.865 44.8796 246.694 43.9945 250.13C43.9699 250.226 43.8714 250.283 43.7769 250.258C43.6813 250.234 43.6237 250.136 43.6482 250.041C44.5284 246.624 46.7172 244.439 48.092 244.768C49.2247 245.04 49.9888 247.004 49.9725 249.37C51.077 246.437 52.7336 244.871 53.779 245.089C54.7407 245.289 55.4502 246.959 55.6077 249.23C56.1559 247.221 57.1683 245.81 58.1052 245.856C59.2844 245.914 60.342 248.266 60.463 251.1C60.4671 251.198 60.3908 251.282 60.2922 251.286C60.2898 251.286 60.2872 251.286 60.2847 251.286Z" fill="#363E44"/>
<path d="M98.7217 209.315C98.0266 209.315 97.0692 209.186 96.093 208.649C94.601 207.829 93.925 206.552 93.655 205.863C93.6189 205.771 93.6641 205.668 93.756 205.631C93.8475 205.596 93.9516 205.641 93.9875 205.733C94.1909 206.251 94.8197 207.541 96.2651 208.336C97.4977 209.014 98.699 208.996 99.3059 208.925C99.4022 208.913 99.4926 208.983 99.504 209.081C99.5155 209.179 99.4454 209.268 99.3473 209.28C99.1784 209.299 98.9664 209.315 98.7217 209.315Z" fill="#363E44"/>
<path d="M222.291 208.606C225.894 200.923 232.723 196.765 239.532 201.83C257.292 215.039 272.949 226.924 281.903 232.778C286.604 235.85 291.895 238.028 293.991 243.005C294.921 245.211 295.478 247.793 293.791 248.311C291.156 249.119 288.5 242.642 286.371 243.36C284.232 244.082 285.061 251.088 287.551 252.023C289.56 252.778 291.329 247.17 293.45 248.572C294.901 249.531 293.546 252.924 292.51 254.655C292.182 255.204 290.803 257.51 287.967 257.894C284.966 258.3 282.922 256.207 282.717 255.99C282.457 257.69 281.306 258.975 280.078 259.132C278.439 259.341 276.384 257.577 276.491 254.946C276.419 255.267 275.86 257.642 274.625 257.866C273.414 258.085 271.621 256.223 270.816 252.907C270.289 254.777 269.319 255.831 268.598 255.831C266.577 255.833 264.504 252.684 263.071 244.119C258.786 241.545 238.106 230.201 227.361 224.322C221.883 221.325 219.583 214.617 222.146 208.923C222.193 208.817 222.241 208.712 222.291 208.606Z" fill="#BC8271"/>
<path d="M280.491 242.621C279.612 242.621 278.614 242.48 277.565 242.072C275.454 241.251 274.236 239.75 273.697 238.928C273.643 238.845 273.666 238.734 273.749 238.68C273.831 238.626 273.942 238.649 273.996 238.732C274.511 239.518 275.677 240.954 277.695 241.739C279.975 242.626 282.009 242.192 283.018 241.855C283.112 241.824 283.213 241.874 283.244 241.968C283.276 242.061 283.225 242.162 283.131 242.194C282.54 242.392 281.613 242.621 280.491 242.621Z" fill="#363E44"/>
<path d="M266.109 251.287C266.106 251.287 266.103 251.287 266.101 251.286C266.002 251.282 265.926 251.199 265.93 251.1C266.051 248.267 267.109 245.914 268.288 245.856C269.238 245.809 270.237 247.222 270.785 249.23C270.943 246.959 271.652 245.29 272.614 245.089C273.658 244.872 275.316 246.438 276.42 249.37C276.404 247.005 277.168 245.04 278.301 244.769C279.673 244.439 281.865 246.624 282.745 250.041C282.769 250.137 282.712 250.234 282.616 250.259C282.522 250.284 282.423 250.226 282.398 250.13C281.514 246.694 279.432 244.865 278.384 245.116C277.39 245.355 276.531 247.547 276.838 250.43C276.85 250.539 276.778 250.638 276.671 250.66C276.565 250.681 276.459 250.617 276.427 250.511C275.458 247.265 273.678 245.233 272.687 245.439C271.871 245.609 271.058 247.536 271.112 250.466C271.114 250.579 271.032 250.672 270.92 250.681C270.813 250.691 270.712 250.615 270.694 250.503C270.28 247.926 269.095 246.173 268.305 246.213C267.548 246.251 266.414 248.133 266.287 251.116C266.283 251.212 266.204 251.287 266.109 251.287Z" fill="#363E44"/>
<path d="M227.67 209.315C227.426 209.315 227.214 209.3 227.045 209.28C226.947 209.268 226.877 209.179 226.888 209.081C226.899 208.983 226.989 208.913 227.086 208.924C227.693 208.996 228.894 209.014 230.127 208.336C231.572 207.541 232.201 206.251 232.404 205.733C232.44 205.641 232.544 205.596 232.636 205.631C232.728 205.668 232.773 205.771 232.737 205.863C232.467 206.551 231.791 207.829 230.299 208.649C229.323 209.186 228.365 209.315 227.67 209.315Z" fill="#363E44"/>
<path d="M206.339 185.438C206.334 185.438 206.33 185.437 206.325 185.437C206.226 185.429 206.153 185.343 206.161 185.245L207.295 170.758C207.302 170.66 207.392 170.586 207.487 170.594C207.585 170.601 207.659 170.687 207.651 170.786L206.517 185.273C206.51 185.366 206.431 185.438 206.339 185.438Z" fill="#363E44"/>
<path d="M118.262 179.761C118.228 179.761 118.192 179.751 118.162 179.73L101.069 168.122C100.987 168.067 100.966 167.956 101.021 167.874C101.077 167.793 101.188 167.771 101.269 167.827L118.363 179.434C118.444 179.49 118.466 179.601 118.41 179.682C118.375 179.733 118.319 179.761 118.262 179.761Z" fill="#363E44"/>
<path d="M206.755 180.154C206.702 180.154 206.65 180.131 206.615 180.087C206.554 180.01 206.566 179.897 206.644 179.836L224.771 165.422C224.848 165.36 224.961 165.373 225.022 165.45C225.083 165.527 225.071 165.64 224.993 165.701L206.866 180.115C206.833 180.142 206.794 180.154 206.755 180.154Z" fill="#363E44"/>
<path d="M118.953 184.854C118.862 184.854 118.784 184.784 118.775 184.691L117.393 169.124C117.385 169.026 117.457 168.939 117.555 168.93C117.656 168.922 117.741 168.994 117.749 169.093L119.131 184.659C119.14 184.757 119.067 184.844 118.969 184.853C118.964 184.853 118.958 184.854 118.953 184.854Z" fill="#363E44"/>
<path d="M181.182 103.63C181.182 113.031 173.561 120.651 164.16 120.651C154.759 120.651 147.139 113.03 147.139 103.63C147.139 94.2291 151.106 85.7083 162.425 86.0505C164.187 86.1037 167.549 87.3054 169.222 87.3735C178.766 87.7618 181.182 95.9917 181.182 103.63Z" fill="#363E44"/>
<path d="M164.499 146.79C158.774 146.79 154.133 142.148 154.133 136.423V117.628H174.866V136.423C174.866 142.148 170.225 146.79 164.499 146.79Z" fill="#BC8271"/>
<path d="M178.209 109.819C178.209 118.886 171.929 128.45 164.183 128.45C156.436 128.45 150.156 118.886 150.156 109.819C150.156 108.786 150.238 107.775 150.394 106.795C150.394 106.795 156.887 105.468 161.393 102.57C165.909 99.6666 169.102 95.4458 169.102 95.4458C174.422 97.778 178.209 102.777 178.209 109.819Z" fill="#BC8271"/>
<path d="M164.181 128.628C161.38 128.628 158.625 127.399 156.215 125.073C156.144 125.005 156.142 124.892 156.21 124.821C156.279 124.749 156.392 124.748 156.463 124.816C158.806 127.076 161.475 128.27 164.181 128.27C167.125 128.27 169.989 126.878 172.463 124.244C172.531 124.172 172.644 124.169 172.716 124.236C172.788 124.304 172.791 124.417 172.724 124.489C170.18 127.197 167.226 128.628 164.181 128.628Z" fill="#363E44"/>
<path d="M151.602 116.073C153.471 115.221 153.959 112.279 152.692 109.502C151.425 106.726 148.883 105.166 147.015 106.019C145.146 106.872 144.658 109.814 145.925 112.59C147.191 115.367 149.733 116.926 151.602 116.073Z" fill="#BC8271"/>
<path d="M148.378 113.382C148.337 113.382 148.295 113.368 148.262 113.34C147.82 112.964 147.447 112.457 147.181 111.876C146.835 111.116 146.709 110.308 146.826 109.6C146.948 108.867 147.315 108.326 147.861 108.077C148.272 107.889 148.748 107.887 149.235 108.07C149.328 108.105 149.374 108.208 149.34 108.3C149.305 108.393 149.202 108.439 149.11 108.405C148.713 108.256 148.332 108.255 148.009 108.403C147.575 108.601 147.28 109.047 147.179 109.659C147.073 110.297 147.189 111.032 147.507 111.728C147.751 112.262 148.092 112.726 148.494 113.068C148.569 113.132 148.578 113.245 148.514 113.32C148.478 113.361 148.428 113.382 148.378 113.382Z" fill="#363E44"/>
<path d="M182.698 112.576C183.965 109.8 183.477 106.858 181.608 106.005C179.739 105.152 177.197 106.712 175.93 109.488C174.664 112.265 175.152 115.207 177.02 116.059C178.889 116.912 181.431 115.353 182.698 112.576Z" fill="#BC8271"/>
<path d="M177.271 116.001C177.252 116.001 177.233 115.998 177.215 115.992C177.121 115.961 177.07 115.86 177.101 115.766C177.727 113.853 178.045 111.835 178.045 109.767C178.045 108.886 177.986 108.002 177.87 107.138C177.857 107.04 177.925 106.95 178.023 106.937C178.12 106.924 178.211 106.993 178.224 107.091C178.342 107.97 178.402 108.871 178.402 109.768C178.402 111.873 178.078 113.929 177.44 115.878C177.416 115.953 177.346 116.001 177.271 116.001Z" fill="#363E44"/>
<path d="M151.102 115.932C151.027 115.932 150.957 115.885 150.932 115.81C150.299 113.9 149.979 111.884 149.979 109.818C149.979 108.793 150.059 107.766 150.218 106.766C150.234 106.669 150.324 106.602 150.423 106.618C150.52 106.633 150.587 106.725 150.571 106.822C150.415 107.804 150.336 108.812 150.336 109.818C150.336 111.846 150.651 113.824 151.272 115.697C151.303 115.791 151.252 115.892 151.158 115.923C151.139 115.929 151.121 115.932 151.102 115.932Z" fill="#363E44"/>
<path d="M164.462 117.792C164.403 117.792 164.345 117.763 164.311 117.709C164.258 117.626 164.283 117.516 164.366 117.463C164.835 117.165 165.118 116.821 165.209 116.439C165.304 116.038 165.161 115.713 164.963 115.262C164.81 114.915 164.636 114.522 164.535 114C164.405 113.334 164.429 112.629 164.607 111.904C164.631 111.808 164.728 111.749 164.823 111.773C164.919 111.796 164.978 111.893 164.954 111.989C164.789 112.664 164.765 113.317 164.885 113.931C164.979 114.414 165.144 114.788 165.29 115.118C165.499 115.593 165.68 116.004 165.557 116.522C165.444 116.997 165.108 117.415 164.558 117.765C164.528 117.783 164.495 117.792 164.462 117.792Z" fill="#363E44"/>
<path d="M163.595 121.029C163.311 121.029 163.033 120.975 162.78 120.87C162.285 120.665 161.877 120.265 161.631 119.745C161.588 119.656 161.626 119.55 161.716 119.507C161.804 119.465 161.911 119.503 161.953 119.592C162.162 120.032 162.504 120.369 162.917 120.54C163.185 120.651 163.488 120.694 163.793 120.662C163.891 120.651 163.979 120.723 163.989 120.821C163.999 120.919 163.928 121.007 163.83 121.017C163.751 121.025 163.673 121.029 163.595 121.029Z" fill="#363E44"/>
<path d="M180.048 113.382C179.998 113.382 179.947 113.361 179.912 113.319C179.848 113.244 179.857 113.131 179.932 113.067C180.334 112.725 180.675 112.261 180.919 111.727C181.236 111.031 181.353 110.296 181.247 109.658C181.145 109.046 180.85 108.6 180.416 108.402C180.093 108.254 179.713 108.255 179.316 108.404C179.224 108.438 179.12 108.392 179.086 108.299C179.051 108.207 179.098 108.104 179.19 108.069C179.678 107.886 180.153 107.888 180.565 108.076C181.11 108.325 181.478 108.866 181.6 109.6C181.717 110.307 181.591 111.115 181.244 111.875C180.979 112.456 180.605 112.963 180.164 113.339C180.13 113.368 180.089 113.382 180.048 113.382Z" fill="#363E44"/>
<path d="M157.337 112.976C154.48 112.976 152.213 110.413 152.118 110.304C152.053 110.229 152.061 110.117 152.135 110.052C152.209 109.987 152.322 109.995 152.388 110.069C152.41 110.095 154.645 112.618 157.337 112.618C160.028 112.618 162.263 110.095 162.285 110.069C162.351 109.995 162.464 109.987 162.538 110.052C162.612 110.117 162.62 110.229 162.555 110.304C162.46 110.413 160.193 112.976 157.337 112.976Z" fill="#363E44"/>
<path d="M171.254 112.976C168.398 112.976 166.131 110.413 166.036 110.304C165.971 110.229 165.979 110.117 166.053 110.052C166.128 109.987 166.24 109.995 166.306 110.069C166.328 110.095 168.563 112.618 171.254 112.618C173.946 112.618 176.181 110.095 176.203 110.069C176.269 109.995 176.381 109.987 176.456 110.052C176.53 110.117 176.538 110.229 176.473 110.304C176.378 110.413 174.111 112.976 171.254 112.976Z" fill="#363E44"/>
<path d="M160.282 70.2928L160.219 70.2799C150.566 68.3222 143.014 60.7906 141.031 51.1431L141.018 51.2065C139.06 60.8593 131.528 68.411 121.881 70.3948L121.944 70.4076C131.597 72.3654 139.149 79.8969 141.133 89.5445L141.145 89.481C143.103 79.8283 150.635 72.2766 160.282 70.2928Z" fill="white"/>
<path d="M130.884 104.845L130.856 104.839C126.498 103.956 123.088 100.555 122.193 96.1997L122.187 96.2283C121.303 100.586 117.902 103.996 113.547 104.891L113.575 104.897C117.933 105.781 121.343 109.181 122.238 113.537L122.244 113.508C123.128 109.15 126.528 105.741 130.884 104.845Z" fill="white"/>
<path d="M195.789 61.9637L195.761 61.9581C191.591 61.1124 188.329 57.8586 187.472 53.6909L187.466 53.7183C186.621 57.8883 183.367 61.1508 179.199 62.0078L179.227 62.0133C183.397 62.8591 186.659 66.1128 187.516 70.2805L187.522 70.2532C188.367 66.0831 191.621 62.8207 195.789 61.9637Z" fill="#FF706F"/>
<path d="M209.078 96.8762L209.052 96.8709C205.045 96.0582 201.91 92.9317 201.086 88.9268L201.081 88.953C200.268 92.9601 197.142 96.095 193.137 96.9186L193.163 96.924C197.17 97.7366 200.305 100.863 201.129 104.868L201.134 104.842C201.947 100.835 205.073 97.6998 209.078 96.8762Z" fill="white"/>
<path d="M68.9041 56.1587L52.8145 64.3814L77.1268 72.2483L63.5125 79.2059L95.3057 89.4934L82.563 77.795L92.0518 72.9456L68.9041 56.1587Z" fill="#FF4342"/>
<path d="M262.516 101.929L258.073 83.3115L243.898 106.372L240.139 90.6186L221.604 120.774L236.83 110.581L239.45 121.561L262.516 101.929Z" fill="#FF4342"/>
<path d="M229.817 133.652C229.745 133.652 229.677 133.608 229.65 133.536C226.297 124.577 220.924 118.88 217.006 115.678C212.759 112.207 209.259 110.838 209.224 110.824C209.132 110.789 209.086 110.686 209.121 110.594C209.157 110.502 209.26 110.455 209.352 110.491C209.388 110.505 212.93 111.889 217.22 115.391C221.176 118.622 226.602 124.37 229.985 133.411C230.019 133.503 229.972 133.607 229.88 133.641C229.859 133.649 229.838 133.652 229.817 133.652Z" fill="#363E44"/>
<path d="M85.0323 104.566C85.0117 104.566 84.991 104.563 84.9705 104.555C84.8779 104.521 84.8306 104.418 84.8645 104.326C88.1944 95.2974 94.2464 89.6062 98.7372 86.4216C103.603 82.9711 107.742 81.6358 107.783 81.6227C107.878 81.5927 107.978 81.6451 108.008 81.7391C108.038 81.833 107.986 81.9336 107.892 81.9635C107.851 81.9765 103.755 83.2992 98.9332 86.7211C94.4874 89.8758 88.496 95.5124 85.1999 104.45C85.1733 104.521 85.105 104.566 85.0323 104.566Z" fill="#363E44"/>
<path d="M189.932 269.179C189.56 272.136 189.361 275.224 189.361 278.403C189.361 293.121 193.59 305.926 199.823 312.51H218.998C225.23 305.925 229.459 293.121 229.459 278.403C229.459 275.224 229.261 272.136 228.888 269.179H189.932Z" fill="#363E44"/>
<path d="M194.023 306.428C182.5 306.429 175.047 301.782 171.835 292.574C170.763 289.501 170.905 285.616 172.215 282.182C173.683 278.333 176.382 275.508 179.816 274.228C183.451 272.872 187.76 273.203 191.637 275.134C195.664 277.14 198.861 280.647 200.638 285.009L198.187 286.008C195.487 279.381 187.834 274.064 180.741 276.708C175.979 278.484 172.143 285.42 174.334 291.702C177.589 301.033 185.624 304.897 198.896 303.515L199.17 306.148C197.373 306.335 195.657 306.428 194.023 306.428Z" fill="#363E44"/>
<path d="M208.054 265.276C208.028 265.276 208 265.27 207.975 265.257C207.886 265.213 207.851 265.105 207.895 265.017C209.267 262.281 209.621 259.822 208.948 257.708C208.505 256.32 207.744 255.473 207.009 254.654C206.28 253.843 205.591 253.077 205.225 251.857C204.478 249.364 205.561 246.268 208.447 242.656C208.509 242.579 208.621 242.566 208.698 242.627C208.775 242.689 208.788 242.802 208.726 242.879C205.918 246.394 204.855 249.381 205.568 251.754C205.91 252.898 206.573 253.635 207.274 254.416C208.035 255.263 208.822 256.138 209.288 257.6C209.991 259.806 209.63 262.355 208.214 265.178C208.183 265.24 208.12 265.276 208.054 265.276Z" fill="white"/>
<path d="M202.614 265.276C202.587 265.276 202.56 265.27 202.534 265.257C202.446 265.213 202.41 265.106 202.455 265.018C203.827 262.281 204.181 259.822 203.507 257.709C203.477 257.615 203.529 257.514 203.623 257.484C203.716 257.454 203.818 257.506 203.848 257.6C204.551 259.806 204.19 262.355 202.774 265.178C202.743 265.24 202.679 265.276 202.614 265.276Z" fill="white"/>
<path d="M213.497 265.276C213.47 265.276 213.442 265.27 213.417 265.257C213.329 265.213 213.293 265.106 213.337 265.017C214.71 262.281 215.064 259.822 214.39 257.708C213.948 256.32 213.187 255.473 212.451 254.655C211.722 253.843 211.033 253.077 210.668 251.857C210.639 251.762 210.693 251.663 210.788 251.635C210.882 251.606 210.982 251.66 211.01 251.754C211.353 252.898 212.016 253.635 212.717 254.416C213.478 255.263 214.265 256.139 214.731 257.6C215.434 259.805 215.073 262.355 213.657 265.178C213.625 265.24 213.562 265.276 213.497 265.276Z" fill="white"/>
<path d="M147.132 295.433H85.9482C85.8494 295.433 85.7695 295.353 85.7695 295.254C85.7695 295.155 85.8494 295.075 85.9482 295.075H147.132C147.23 295.075 147.31 295.155 147.31 295.254C147.31 295.353 147.23 295.433 147.132 295.433Z" fill="#363E44"/>
<path d="M143.362 301.838C143.263 301.838 143.184 301.758 143.184 301.659V295.254C143.184 295.155 143.263 295.075 143.362 295.075C143.461 295.075 143.541 295.155 143.541 295.254V301.659C143.541 301.758 143.461 301.838 143.362 301.838Z" fill="#363E44"/>
<path d="M89.7822 301.838C89.6834 301.838 89.6035 301.758 89.6035 301.659V295.254C89.6035 295.155 89.6834 295.075 89.7822 295.075C89.881 295.075 89.9609 295.155 89.9609 295.254V301.659C89.9609 301.758 89.881 301.838 89.7822 301.838Z" fill="#363E44"/>
<path d="M138.658 295.433C138.646 295.433 138.633 295.432 138.621 295.429L89.1889 285.062C89.0922 285.042 89.0304 284.947 89.0508 284.85C89.0709 284.754 89.1657 284.692 89.2623 284.712L138.695 295.08C138.791 295.1 138.853 295.195 138.833 295.291C138.815 295.375 138.741 295.433 138.658 295.433Z" fill="#363E44"/>
<path d="M115.019 290.296C114.872 290.998 114.184 291.447 113.482 291.3L81.5492 284.603C80.8477 284.456 80.3983 283.768 80.5455 283.066C80.6926 282.365 81.3805 281.915 82.0821 282.063L114.015 288.76C114.716 288.907 115.166 289.595 115.019 290.296Z" fill="#363E44"/>
<path d="M91.4977 276.119C91.4709 276.119 91.4434 276.113 91.4179 276.1C91.3296 276.056 91.294 275.948 91.3384 275.86C92.9687 272.61 93.3893 269.687 92.5879 267.173C92.0613 265.521 91.1572 264.515 90.283 263.542C89.4217 262.584 88.6082 261.678 88.1766 260.239C87.2936 257.297 88.576 253.638 91.9888 249.365C92.0504 249.288 92.1626 249.275 92.2398 249.337C92.317 249.399 92.3295 249.511 92.2679 249.588C88.9328 253.764 87.6715 257.313 88.519 260.137C88.9275 261.499 89.715 262.375 90.5489 263.303C91.4482 264.304 92.3785 265.34 92.9285 267.065C93.759 269.67 93.3314 272.683 91.6577 276.02C91.6264 276.083 91.5633 276.119 91.4977 276.119Z" fill="white"/>
<path d="M85.0515 276.12C85.0247 276.12 84.9972 276.113 84.9716 276.101C84.8834 276.056 84.8478 275.949 84.8921 275.861C86.5225 272.61 86.9429 269.687 86.1415 267.174C86.1117 267.08 86.1635 266.979 86.2576 266.949C86.3513 266.919 86.4522 266.971 86.4823 267.065C87.3128 269.671 86.8854 272.684 85.2116 276.021C85.1802 276.083 85.1169 276.12 85.0515 276.12Z" fill="white"/>
<path d="M97.948 276.119C97.9212 276.119 97.8936 276.113 97.8681 276.1C97.7798 276.056 97.7443 275.948 97.7886 275.86C99.4189 272.609 99.8394 269.687 99.038 267.173C98.5114 265.521 97.6074 264.515 96.7331 263.542C95.872 262.583 95.0584 261.678 94.6267 260.239C94.5984 260.145 94.652 260.045 94.7466 260.017C94.8407 259.988 94.9406 260.042 94.969 260.137C95.3777 261.499 96.1652 262.375 96.9989 263.303C97.8985 264.304 98.8285 265.34 99.3785 267.065C100.209 269.67 99.7817 272.683 98.1079 276.02C98.0764 276.083 98.0134 276.119 97.948 276.119Z" fill="white"/>
</svg>
