<svg xmlns="http://www.w3.org/2000/svg" width="23" height="28" fill="none">
  <path fill="#240000" d="M11.264 16.872h.061a2.425 2.425 0 0 1 2.37 2.418 2.426 2.426 0 0 1-1.8 2.34v.98c0 .35-.28.631-.631.631a.629.629 0 0 1-.632-.63v-.982a2.43 2.43 0 0 1-1.798-2.339c0-.35.28-.63.632-.63.35 0 .631.28.631.63 0 .648.518 1.165 1.158 1.165.64 0 1.167-.525 1.167-1.165s-.526-1.165-1.167-1.165h-.061a2.427 2.427 0 0 1-2.36-2.418c0-1.122.763-2.06 1.798-2.34v-.98c0-.351.281-.632.632-.632.35 0 .632.28.632.631v.981a2.427 2.427 0 0 1 1.798 2.34c0 .35-.28.63-.632.63a.629.629 0 0 1-.631-.63c0-.64-.527-1.166-1.167-1.166s-1.167.526-1.167 1.166c0 .64.527 1.165 1.167 1.165Z"/>
  <path fill="#240000" d="m6.608 4.392 2.444 2.856-.264.294C3.758 8.67 0 13.155 0 18.52c0 4.715 3.832 8.542 8.553 8.542h5.413c4.722 0 8.554-3.826 8.554-8.541.008-5.365-3.75-9.851-8.78-10.978a.967.967 0 0 0-.096-.539l2.08-2.377.133-.206a1.71 1.71 0 0 0-.457-2.028 1.717 1.717 0 0 0-2.08-.095l-.74-.876a1.772 1.772 0 0 0-2.638-.005l-.775.864a1.721 1.721 0 0 0-2.67 1.015c-.085.367-.046.753.11 1.097ZM9.94 5.605 8.452 3.888a1.737 1.737 0 0 0 2.075-.438l.702-.91.78.922a1.729 1.729 0 0 0 2.017.45l-1.481 1.693H9.94ZM1.755 18.519c0-5.246 4.256-9.497 9.51-9.497 5.252 0 9.509 4.25 9.5 9.495v.002c0 1.8-.717 3.527-1.992 4.8a6.806 6.806 0 0 1-4.807 1.99H8.553a6.806 6.806 0 0 1-4.806-1.99 6.788 6.788 0 0 1-1.992-4.8Z"/>
</svg>
