<svg width="326" height="331" viewBox="0 0 326 331" fill="none" xmlns="http://www.w3.org/2000/svg">
<path d="M160.991 330.806C249.903 330.806 321.981 258.728 321.981 169.816C321.981 80.9031 249.903 8.8252 160.991 8.8252C72.0779 8.8252 0 80.9031 0 169.816C0 258.728 72.0779 330.806 160.991 330.806Z" fill="#FFD9D9"/>
<path d="M62.2329 74.6665H8.79157C8.79157 74.6665 2.54672 91.2438 3.70092 96.7949C5.84447 107.104 29.1453 122.128 29.1453 132.599C29.1453 143.07 5.84447 158.094 3.70092 168.403C2.54672 173.955 8.79157 190.532 8.79157 190.532H62.2329C62.2329 190.532 68.4777 173.955 67.3235 168.403C65.18 158.094 41.8791 143.07 41.8791 132.599C41.8791 122.128 65.18 107.104 67.3235 96.7949C68.4777 91.2438 62.2329 74.6665 62.2329 74.6665Z" fill="#F7F1EB"/>
<path d="M37.3859 133.156C37.3859 126.964 48.3628 118.818 53.3382 111.895H18.7272C23.9422 118.829 35.81 127.008 35.81 133.156C35.81 140.922 36.9786 171.217 27.5347 178.722C24.2818 181.306 12.1641 187.608 12.1641 187.608H60.649C60.649 187.608 57.2368 185.03 48.1703 180.922C36.4064 175.592 37.3859 140.922 37.3859 133.156Z" fill="#FF4342"/>
<path d="M66.0615 190.92H12.6201C12.4587 190.92 12.3139 190.82 12.2571 190.669C12.0002 189.988 5.98583 173.922 7.14919 168.325C8.17478 163.394 13.7206 157.629 19.5917 151.525C25.98 144.884 32.5859 138.017 32.5859 132.599C32.5859 127.182 25.9802 120.314 19.5917 113.673C13.7206 107.57 8.17478 101.805 7.14919 96.874C5.98583 91.277 12.0002 75.211 12.2571 74.5299C12.3139 74.3787 12.4585 74.2788 12.6201 74.2788H66.0615C66.2229 74.2788 66.3677 74.3789 66.4245 74.5299C66.6814 75.211 72.6957 91.277 71.5324 96.874C70.5068 101.805 64.9612 107.57 59.0898 113.673C52.7016 120.314 46.0957 127.182 46.0957 132.599C46.0957 138.017 52.7014 144.884 59.0898 151.525C64.961 157.629 70.5068 163.394 71.5324 168.325C72.6957 173.922 66.6814 189.988 66.4245 190.669C66.3675 190.82 66.2229 190.92 66.0615 190.92ZM12.8898 190.144H65.7916C66.5626 188.049 71.8141 173.493 70.7721 168.483C69.7925 163.771 64.067 157.819 58.5303 152.063C52.0355 145.311 45.3196 138.33 45.3196 132.599C45.3196 126.869 52.0356 119.887 58.5303 113.135C64.067 107.38 69.7925 101.428 70.7721 96.716C71.8139 91.705 66.5624 77.1492 65.7916 75.0546H12.8898C12.1188 77.1492 6.86732 91.705 7.90928 96.716C8.88894 101.428 14.6142 107.38 20.1511 113.135C26.6459 119.887 33.3618 126.869 33.3618 132.599C33.3618 138.33 26.6458 145.311 20.1511 152.063C14.6144 157.819 8.88894 163.771 7.90928 168.483C6.8675 173.493 12.119 188.049 12.8898 190.144Z" fill="white"/>
<path d="M59.8476 181.938C59.8116 181.938 59.775 181.932 59.7385 181.922C59.5329 181.862 59.415 181.646 59.4751 181.441C61.3113 175.171 62.0392 170.69 61.58 168.483C60.8303 164.877 57.2746 160.601 54.2608 157.278C54.1169 157.119 54.1287 156.874 54.2874 156.73C54.4461 156.586 54.6912 156.598 54.8351 156.757C58.1068 160.363 61.5564 164.557 62.3399 168.325C62.8317 170.689 62.1182 175.176 60.2199 181.659C60.1703 181.828 60.0155 181.938 59.8476 181.938Z" fill="white"/>
<path d="M57.54 105.092C57.4552 105.092 57.3695 105.065 57.2979 105.007C57.1304 104.873 57.1036 104.629 57.2377 104.462C59.7243 101.357 61.1462 98.8235 61.5841 96.7162C62.0926 94.2723 61.1643 89.1277 58.8997 81.8386C58.836 81.634 58.9505 81.4167 59.155 81.353C59.361 81.2895 59.5774 81.404 59.6406 81.6084C61.2468 86.7788 63.0198 93.6242 62.344 96.8742C61.8739 99.135 60.4438 101.7 57.8431 104.947C57.7666 105.043 57.6541 105.092 57.54 105.092Z" fill="white"/>
<path d="M67.4242 189.365H3.66211V197.076H67.4242V189.365Z" fill="#D87355"/>
<path d="M67.4242 68.3794H3.66211V76.0904H67.4242V68.3794Z" fill="#D87355"/>
<path d="M73.1882 185.773L321.139 185.773V9.94873L73.1882 9.94873L73.1882 185.773Z" fill="#FF9493"/>
<path d="M313.359 162.923V17.728L80.9671 17.728L80.9671 162.923L313.359 162.923Z" fill="#F7F1EB"/>
<path d="M171.063 189.499H178.404C178.404 195.005 182.868 199.469 188.374 199.469H205.953C211.459 199.469 215.923 195.005 215.923 189.499H223.263L230.604 228.509V231.772H163.723V228.509L171.063 189.499Z" fill="#FF9493"/>
<path d="M230.603 236.238H163.722C163.507 236.238 163.334 236.064 163.334 235.85C163.334 235.636 163.507 235.462 163.722 235.462H230.603C230.818 235.462 230.991 235.636 230.991 235.85C230.991 236.064 230.818 236.238 230.603 236.238Z" fill="#FF9493"/>
<path d="M108.053 113.141H96.1855V145.68H108.053V113.141Z" fill="#FF706F"/>
<path d="M127.637 106.659H115.77V145.68H127.637V106.659Z" fill="#FF706F"/>
<path d="M147.221 82.7568H135.354V145.681H147.221V82.7568Z" fill="#FF706F"/>
<path d="M166.805 92.6226H154.938V145.68H166.805V92.6226Z" fill="#FF706F"/>
<path d="M186.414 66.5903H174.547V145.681H186.414V66.5903Z" fill="#FF706F"/>
<path d="M206 82.2197H194.133V145.68H206V82.2197Z" fill="#FF706F"/>
<path d="M225.584 104.869H213.717V145.681H225.584V104.869Z" fill="#FF706F"/>
<path d="M245.164 90.2959H233.297V145.681H245.164V90.2959Z" fill="#FF706F"/>
<path d="M264.762 99.0493H252.895V145.68H264.762V99.0493Z" fill="#FF706F"/>
<path d="M284.346 76.3306H272.479V145.681H284.346V76.3306Z" fill="#FF706F"/>
<path d="M303.957 113.142H292.09V145.68H303.957V113.142Z" fill="#FF706F"/>
<path d="M99.1093 330.053H186.328L186.328 200.694H99.1093L99.1093 330.053Z" fill="#FF4342"/>
<path d="M0.745972 330.053H87.9648L87.9648 200.694H0.745972L0.745972 330.053Z" fill="#FF4342"/>
<path d="M99.0304 319.255H181.248L181.248 197.315H99.0304L99.0304 319.255Z" fill="white"/>
<path d="M6.30779 319.255H88.5254L88.5254 197.315H6.30779L6.30779 319.255Z" fill="white"/>
<path d="M108.815 228.503C112.019 228.503 114.617 225.905 114.617 222.7C114.617 219.495 112.019 216.897 108.815 216.897C105.61 216.897 103.012 219.495 103.012 222.7C103.012 225.905 105.61 228.503 108.815 228.503Z" fill="#FF706F"/>
<path d="M108.815 250.768C112.019 250.768 114.617 248.17 114.617 244.965C114.617 241.76 112.019 239.162 108.815 239.162C105.61 239.162 103.012 241.76 103.012 244.965C103.012 248.17 105.61 250.768 108.815 250.768Z" fill="#FF706F"/>
<path d="M108.815 273.032C112.019 273.032 114.617 270.433 114.617 267.229C114.617 264.024 112.019 261.426 108.815 261.426C105.61 261.426 103.012 264.024 103.012 267.229C103.012 270.433 105.61 273.032 108.815 273.032Z" fill="#FF706F"/>
<path d="M112.915 293.595C115.181 291.329 115.181 287.655 112.915 285.388C110.649 283.122 106.975 283.122 104.709 285.388C102.443 287.655 102.443 291.329 104.709 293.595C106.975 295.861 110.649 295.861 112.915 293.595Z" fill="#FF706F"/>
<path d="M78.8615 228.503C82.0663 228.503 84.6643 225.905 84.6643 222.7C84.6643 219.495 82.0663 216.897 78.8615 216.897C75.6566 216.897 73.0586 219.495 73.0586 222.7C73.0586 225.905 75.6566 228.503 78.8615 228.503Z" fill="#FF706F"/>
<path d="M78.8615 250.768C82.0663 250.768 84.6643 248.17 84.6643 244.965C84.6643 241.76 82.0663 239.162 78.8615 239.162C75.6566 239.162 73.0586 241.76 73.0586 244.965C73.0586 248.17 75.6566 250.768 78.8615 250.768Z" fill="#FF706F"/>
<path d="M78.8615 273.032C82.0663 273.032 84.6643 270.433 84.6643 267.229C84.6643 264.024 82.0663 261.426 78.8615 261.426C75.6566 261.426 73.0586 264.024 73.0586 267.229C73.0586 270.433 75.6566 273.032 78.8615 273.032Z" fill="#FF706F"/>
<path d="M79.4157 295.262C82.6048 294.946 84.9342 292.105 84.6185 288.916C84.3028 285.727 81.4616 283.397 78.2725 283.713C75.0834 284.029 72.754 286.87 73.0696 290.059C73.3853 293.248 76.2265 295.578 79.4157 295.262Z" fill="#FF706F"/>
<path d="M77.8196 216.993C80.1537 210.362 86.4769 205.595 93.8958 205.595C101.323 205.595 107.651 210.373 109.979 217.015C110.596 218.776 110.936 220.666 110.936 222.635C110.936 224.656 110.58 226.595 109.932 228.395C109.57 228.466 109.197 228.504 108.815 228.504C108.311 228.504 107.822 228.439 107.356 228.319C108.097 226.571 108.507 224.65 108.507 222.635C108.507 220.666 108.113 218.788 107.404 217.072C105.211 211.767 99.9836 208.023 93.8958 208.023C87.7974 208.023 82.5624 211.78 80.3763 217.1C79.6743 218.808 79.2842 220.676 79.2842 222.635C79.2842 224.638 79.6901 226.549 80.4231 228.289C79.9255 228.428 79.4014 228.504 78.8593 228.504C78.521 228.504 78.1898 228.473 77.8673 228.418C77.2137 226.611 76.8555 224.664 76.8555 222.635C76.8555 220.658 77.1975 218.76 77.8196 216.993Z" fill="#FF4342"/>
<path d="M77.8196 239.257C80.1537 232.626 86.4769 227.858 93.8958 227.858C101.323 227.858 107.651 232.636 109.979 239.279C110.596 241.04 110.936 242.93 110.936 244.899C110.936 246.92 110.58 248.859 109.932 250.659C109.57 250.73 109.197 250.767 108.815 250.767C108.311 250.767 107.822 250.703 107.356 250.582C108.097 248.834 108.507 246.914 108.507 244.899C108.507 242.929 108.113 241.051 107.404 239.335C105.211 234.031 99.9836 230.287 93.8958 230.287C87.7974 230.287 82.5624 234.044 80.3763 239.363C79.6743 241.072 79.2842 242.94 79.2842 244.899C79.2842 246.902 79.6901 248.812 80.4231 250.552C79.9255 250.691 79.4014 250.767 78.8593 250.767C78.521 250.767 78.1898 250.737 77.8673 250.681C77.2137 248.875 76.8555 246.928 76.8555 244.899C76.8555 242.922 77.1975 241.024 77.8196 239.257Z" fill="#FF4342"/>
<path d="M77.8196 261.521C80.1537 254.89 86.4769 250.123 93.8958 250.123C101.323 250.123 107.651 254.901 109.979 261.543C110.596 263.304 110.936 265.194 110.936 267.163C110.936 269.184 110.58 271.123 109.932 272.923C109.57 272.994 109.197 273.032 108.815 273.032C108.311 273.032 107.822 272.967 107.356 272.847C108.097 271.099 108.507 269.178 108.507 267.163C108.507 265.194 108.113 263.316 107.404 261.6C105.211 256.295 99.9836 252.552 93.8958 252.552C87.7974 252.552 82.5624 256.308 80.3763 261.628C79.6743 263.336 79.2842 265.204 79.2842 267.163C79.2842 269.167 79.6901 271.077 80.4231 272.817C79.9255 272.956 79.4014 273.032 78.8593 273.032C78.521 273.032 78.1898 273.001 77.8673 272.946C77.2137 271.139 76.8555 269.192 76.8555 267.163C76.8555 265.186 77.1975 263.288 77.8196 261.521Z" fill="#FF4342"/>
<path d="M77.8196 283.785C80.1537 277.154 86.4769 272.387 93.8958 272.387C101.323 272.387 107.651 277.165 109.979 283.807C110.596 285.568 110.936 287.458 110.936 289.427C110.936 291.448 110.58 293.387 109.932 295.187C109.57 295.258 109.197 295.296 108.815 295.296C108.311 295.296 107.822 295.231 107.356 295.111C108.097 293.363 108.507 291.442 108.507 289.427C108.507 287.458 108.113 285.579 107.404 283.864C105.211 278.559 99.9836 274.815 93.8958 274.815C87.7974 274.815 82.5624 278.572 80.3763 283.892C79.6743 285.6 79.2842 287.468 79.2842 289.427C79.2842 291.43 79.6901 293.341 80.4231 295.081C79.9255 295.22 79.4014 295.296 78.8593 295.296C78.521 295.296 78.1898 295.265 77.8673 295.21C77.2137 293.403 76.8555 291.456 76.8555 289.427C76.8555 287.45 77.1975 285.552 77.8196 283.785Z" fill="#FF4342"/>
<path d="M28.8348 244.982H36.2344V237.583H28.8348V244.982Z" fill="#D87355"/>
<path d="M14.0223 244.982H21.4219V237.583H14.0223V244.982Z" fill="#FF706F"/>
<path d="M58.4618 259.795H65.8613V252.396H58.4618V259.795Z" fill="#FF706F"/>
<path d="M43.6473 259.795H51.0469V252.396H43.6473V259.795Z" fill="#D87355"/>
<path d="M28.8348 259.795H36.2344V252.396H28.8348V259.795Z" fill="#FF706F"/>
<path d="M14.0223 259.795H21.4219V252.396H14.0223V259.795Z" fill="#FF706F"/>
<path d="M58.4618 274.608H65.8613V267.208H58.4618V274.608Z" fill="#D87355"/>
<path d="M43.6473 274.608H51.0469V267.208H43.6473V274.608Z" fill="#FF706F"/>
<path d="M28.8348 274.608H36.2344V267.208H28.8348V274.608Z" fill="#FF706F"/>
<path d="M14.0223 274.608H21.4219V267.208H14.0223V274.608Z" fill="#D87355"/>
<path d="M58.4618 289.42H65.8613V282.02H58.4618V289.42Z" fill="#FF706F"/>
<path d="M43.6473 289.42H51.0469V282.02H43.6473V289.42Z" fill="#FF706F"/>
<path d="M28.8348 289.42H36.2344V282.02H28.8348V289.42Z" fill="#D87355"/>
<path d="M14.0223 289.42H21.4219V282.02H14.0223V289.42Z" fill="#F7F1EB"/>
<path d="M58.4618 304.233H65.8613V296.833H58.4618V304.233Z" fill="#FF706F"/>
<path d="M43.6473 304.233H51.0469V296.833H43.6473V304.233Z" fill="#D87355"/>
<path d="M28.8348 304.233H36.2344V296.833H28.8348V304.233Z" fill="#FF706F"/>
<path d="M14.0223 304.233H21.4219V296.833H14.0223V304.233Z" fill="#FF706F"/>
<path d="M28.8349 222.701H65.8594V209.961H28.8349V222.701Z" fill="#F7F1EB"/>
<path d="M202.28 159.688H117.102V197.033H202.28V159.688Z" fill="#C46565"/>
<path d="M189.57 231.631C189.558 232.46 189.367 261.989 189.367 261.989L205.915 261.207L215.194 231.631H189.57Z" fill="#84524D"/>
<path d="M188.107 259.206L207.39 258.954L218.095 293.631C218.095 293.631 188.653 303.161 188.588 302.539C188.522 301.917 188.107 259.206 188.107 259.206Z" fill="white"/>
<path d="M201.887 269.339H194.093C193.879 269.339 193.705 269.165 193.705 268.951C193.705 268.737 193.879 268.563 194.093 268.563H201.887C202.101 268.563 202.275 268.737 202.275 268.951C202.275 269.165 202.101 269.339 201.887 269.339Z" fill="#363E44"/>
<path d="M201.802 274.2H194.093C193.879 274.2 193.705 274.027 193.705 273.812C193.705 273.598 193.879 273.424 194.093 273.424H201.802C202.016 273.424 202.19 273.598 202.19 273.812C202.189 274.027 202.016 274.2 201.802 274.2Z" fill="#363E44"/>
<path d="M186.252 236.679H216.595L225.267 192.639C227.436 181.623 219.402 171.219 208.196 170.531L191.619 169.514L186.252 236.679Z" fill="#C46565"/>
<path d="M94.8867 178.733L115.713 198.836L133.367 185.647L116.361 162.202L94.8867 178.733Z" fill="#84524D"/>
<path d="M111.908 195.837L122.528 220.002L151.987 200.738L131.354 181.573L111.908 195.837Z" fill="#F7F1EB"/>
<path d="M94.8871 183.248L120.814 164.663L105.265 140.698C99.0141 131.063 85.7866 128.979 76.8757 136.225C67.8144 143.593 67.3141 157.254 75.8121 165.265L94.8871 183.248Z" fill="#C46565"/>
<path d="M121.449 197.536C121.321 197.536 121.195 197.472 121.121 197.356C121.006 197.175 121.06 196.935 121.241 196.82L129.988 191.269C130.17 191.155 130.409 191.208 130.524 191.389C130.639 191.57 130.585 191.81 130.404 191.924L121.657 197.475C121.592 197.516 121.52 197.536 121.449 197.536Z" fill="#363E44"/>
<path d="M123.346 200.312C123.217 200.312 123.091 200.248 123.017 200.132C122.903 199.951 122.956 199.711 123.137 199.596L131.885 194.045C132.066 193.931 132.306 193.984 132.42 194.165C132.535 194.346 132.482 194.586 132.301 194.7L123.553 200.251C123.488 200.292 123.417 200.312 123.346 200.312Z" fill="#363E44"/>
<path d="M122.679 164.009C122.679 164.009 156.965 164.276 183.245 164.663L177.513 110.495C177.513 110.495 151.415 100.72 122.537 102.581L122.679 164.009Z" fill="white"/>
<path d="M170.117 107.761L175.779 166.114L224.493 167.219C224.493 167.219 226.55 147.577 208.85 127.776C204.747 123.186 199.763 119.469 194.224 116.781C188.08 113.799 178.036 109.223 170.117 107.761Z" fill="#FF4342"/>
<path d="M132.098 102.088L133.997 164.35C133.997 164.35 87.2437 176.857 87.2305 145.672C87.2248 132.303 90.8854 122.425 94.5704 115.87C98.212 109.392 104.485 104.839 111.774 103.39C117.19 102.314 124.389 101.45 132.098 102.088Z" fill="#FF4342"/>
<path d="M111.914 133.892C111.88 133.892 111.847 133.888 111.813 133.879C111.606 133.824 111.483 133.611 111.539 133.404L113.653 125.467C113.709 125.259 113.922 125.137 114.128 125.192C114.335 125.247 114.458 125.459 114.403 125.666L112.288 133.604C112.242 133.778 112.085 133.892 111.914 133.892Z" fill="#363E44"/>
<path d="M93.5672 143.439C93.5156 143.439 93.4633 143.429 93.413 143.407C93.2165 143.321 93.1266 143.093 93.2119 142.897C93.2559 142.795 97.764 132.767 110.677 133.963C110.89 133.983 111.047 134.171 111.028 134.385C111.007 134.598 110.825 134.755 110.605 134.735C98.269 133.592 94.0945 142.813 93.9233 143.206C93.8596 143.352 93.7167 143.439 93.5672 143.439Z" fill="#363E44"/>
<path d="M180.381 148.705C178.023 147.163 169.247 139.181 164.077 141.136C158.869 143.105 155.822 148.45 154.752 153.914C154.764 153.933 154.777 153.954 154.789 153.973C155.155 155.47 155.932 157.654 157.787 159.404C159.902 161.4 161.393 160.921 163.952 162.679C168.272 165.647 168.207 170.054 170.017 169.64C171.26 169.355 171.409 166.789 170.936 164.413C170.45 161.973 169.109 160.6 169.421 160.337C169.763 160.049 170.945 161.621 172.594 163.44C173.36 164.285 174.034 167.901 175.789 167.763C177.188 167.653 177.427 163.718 175.797 160.69C174.644 158.548 172.442 157.696 172.681 157.322C172.86 157.041 174.16 157.581 175.142 158.38C176.762 159.699 177.491 163.391 179.104 163.232C180.684 163.076 180.833 159.636 179.51 156.757C178.394 154.328 175.893 153.496 176.188 153.029C176.395 152.701 177.592 152.84 179.9 153.865C181.826 154.72 185.02 157.626 186.216 155.744C187.222 154.161 183.94 151.031 180.381 148.705Z" fill="#84524D"/>
<path d="M112.987 137.646C107.933 138.35 103.656 141.796 101.996 146.622C100.412 151.226 100.564 156.989 107.64 161.492C121.658 170.416 159.682 155.03 159.682 155.03L166.815 140.897C149.353 136.691 130.063 135.271 112.987 137.646Z" fill="#84524D"/>
<path d="M233.695 169.174C232.507 171.713 229.957 173.335 227.154 173.335H182.143L202.301 130.252H251.906L233.695 169.174Z" fill="#363E44"/>
<path d="M152.598 169.01C152.598 171.41 154.544 173.356 156.944 173.356H198.448L200.482 169.01H152.598Z" fill="#363E44"/>
<path d="M246.453 150.447C246.295 152.063 246.03 153.359 243.231 153.085C240.433 152.81 236.16 151.068 236.319 149.452C236.477 147.837 241.007 146.959 243.806 147.233C246.604 147.508 246.612 148.831 246.453 150.447Z" fill="#84524D"/>
<path d="M234.41 153.606C234.569 151.99 239.098 151.112 241.897 151.387C244.696 151.661 244.703 152.985 244.545 154.6L234.41 153.606Z" fill="#84524D"/>
<path d="M244.545 154.601C244.386 156.216 244.122 157.513 241.323 157.238C238.525 156.964 234.252 155.222 234.411 153.606L244.545 154.601Z" fill="#84524D"/>
<path d="M232.502 157.76C232.66 156.144 237.19 155.266 239.989 155.541C242.787 155.815 242.795 157.138 242.636 158.754L232.502 157.76Z" fill="#84524D"/>
<path d="M242.637 158.754C242.478 160.37 242.213 161.667 239.415 161.392C236.616 161.117 232.344 159.375 232.502 157.76L242.637 158.754Z" fill="#84524D"/>
<path d="M232.732 161.517C232.858 160.232 236.459 159.535 238.684 159.753C240.908 159.971 240.914 161.023 240.788 162.308L232.732 161.517Z" fill="#84524D"/>
<path d="M240.788 162.308C240.662 163.592 240.451 164.623 238.227 164.404C236.002 164.186 232.606 162.801 232.732 161.517L240.788 162.308Z" fill="#84524D"/>
<path d="M141.606 84.4557C142.748 85.9968 142.611 88.0343 141.299 89.0062C139.987 89.9781 137.998 89.5166 136.856 87.9755C135.714 86.4342 135.852 84.3969 137.163 83.425C138.475 82.4531 140.464 82.9146 141.606 84.4557Z" fill="#84524D"/>
<path d="M155.709 83.738C154.729 85.3872 155.072 87.4 156.476 88.2338C157.879 89.0676 159.812 88.4066 160.791 86.7574C161.771 85.1083 161.427 83.0955 160.024 82.2617C158.62 81.4277 156.688 82.0887 155.709 83.738Z" fill="#84524D"/>
<path d="M147.967 110.627C144.542 110.469 141.892 107.565 142.05 104.14L142.625 86.5327L155.029 87.1015L154.453 104.709C154.297 108.134 151.393 110.784 147.967 110.627Z" fill="#84524D"/>
<path d="M150.189 100.738C140.239 101.326 139.869 84.7119 139.869 84.7119L157.501 84.1152C157.501 84.1152 159.837 100.167 150.189 100.738Z" fill="#363E44"/>
<path d="M144.737 86.0408C148.138 85.2379 150.243 81.8302 149.44 78.4296C148.637 75.0291 145.23 72.9233 141.829 73.7263C138.429 74.5292 136.323 77.9369 137.126 81.3375C137.929 84.738 141.336 86.8438 144.737 86.0408Z" fill="#363E44"/>
<path d="M157.319 85.3903C157.6 90.9191 154.014 88.0112 149.308 88.2507C144.603 88.4902 140.56 91.7863 140.279 86.2576C139.998 80.7288 143.584 77.5711 148.289 77.3317C152.995 77.0924 157.037 79.8616 157.319 85.3903Z" fill="#84524D"/>
<path d="M157.316 88.4634C157.293 88.4634 157.27 88.4612 157.246 88.457C157.035 88.4187 156.896 88.2167 156.934 88.0059C157.088 87.1603 157.143 86.2871 157.099 85.4103C157.059 84.6297 156.94 83.8566 156.745 83.1127C156.691 82.9054 156.815 82.6934 157.022 82.6392C157.229 82.585 157.441 82.7089 157.496 82.9163C157.704 83.7117 157.831 84.5375 157.874 85.3709C157.921 86.3073 157.862 87.2405 157.697 88.1449C157.664 88.3321 157.5 88.4634 157.316 88.4634Z" fill="#363E44"/>
<path d="M140.537 89.2543C140.369 89.2543 140.213 89.1431 140.164 88.9726C139.917 88.1044 139.768 87.1974 139.721 86.2767C139.678 85.4253 139.723 84.5746 139.855 83.7487C139.889 83.5371 140.089 83.3921 140.299 83.4271C140.511 83.4609 140.655 83.6599 140.621 83.8715C140.498 84.6439 140.455 85.4399 140.496 86.2373C140.54 87.0996 140.679 87.9482 140.911 88.7598C140.97 88.9659 140.85 89.1805 140.644 89.2393C140.609 89.2493 140.572 89.2543 140.537 89.2543Z" fill="#363E44"/>
<path d="M149.389 88.851C149.273 88.851 149.158 88.799 149.081 88.6995C148.951 88.5298 148.982 88.2863 149.153 88.1555C149.318 88.0285 149.417 87.9029 149.419 87.8196C149.42 87.7727 149.382 87.7148 149.295 87.5939C149.182 87.4378 149.029 87.2241 148.963 86.906C148.904 86.6223 148.928 86.3238 149.034 86.0185C149.105 85.816 149.327 85.7092 149.528 85.7794C149.731 85.8498 149.838 86.0709 149.767 86.2733C149.708 86.4443 149.693 86.604 149.723 86.7485C149.755 86.9049 149.834 87.0142 149.925 87.1407C150.048 87.3115 150.201 87.5242 150.195 87.8346C150.188 88.1703 149.997 88.4851 149.626 88.7705C149.555 88.8248 149.472 88.851 149.389 88.851Z" fill="#363E44"/>
<path d="M148.066 91.2991C147.692 91.2991 147.132 91.2245 146.585 90.871C146.238 90.6467 145.942 90.337 145.73 89.9749C145.621 89.7904 145.682 89.5525 145.867 89.4439C146.052 89.3352 146.289 89.3964 146.398 89.5813C146.55 89.8396 146.761 90.0605 147.007 90.2193C147.479 90.5242 147.967 90.5366 148.217 90.5174C148.43 90.5 148.617 90.6602 148.634 90.8738C148.651 91.0874 148.491 91.2741 148.278 91.2908C148.217 91.2958 148.145 91.2991 148.066 91.2991Z" fill="white"/>
<path d="M139.154 83.3576C139.154 83.3576 143.71 84.0326 148.434 78.4649C148.434 78.4649 157.207 89.9377 163.956 76.1028C163.956 76.1028 160.002 77.8475 157.882 75.0906C154.508 70.7039 146.409 67.1609 143.203 75.2594L139.154 83.3576Z" fill="#363E44"/>
<path d="M154.395 84.0049V84.0054L154.374 84.0044C154.365 84.0475 154.34 84.1035 154.294 84.1043C154.244 84.171 154.224 84.2757 154.191 84.3457C154.132 84.4717 153.94 84.3721 153.999 84.2463C154.039 84.1615 153.755 84.3343 153.629 84.3901C153.227 84.5681 152.82 84.7279 152.406 84.875C152.213 84.9436 152.02 85.0138 151.825 85.0757C151.669 85.1253 151.153 85.3168 151.111 85.2943C150.602 85.8098 150.33 86.2866 150.33 86.2866C150.33 86.2866 151.113 86.5878 152.105 86.5904C152.107 86.5771 152.109 86.5639 152.111 86.5502C152.127 86.4163 154.382 85.763 154.449 85.861C155.383 85.1971 155.895 84.301 155.895 84.301C155.895 84.301 155.253 84.0535 154.395 84.0049Z" fill="white"/>
<path d="M152.73 84.2212C152.055 84.4619 151.51 84.8893 151.111 85.2933C151.185 85.7182 151.409 86.1184 151.776 86.4038C151.871 86.4772 151.971 86.5393 152.074 86.591C152.521 86.5949 153.013 86.539 153.495 86.3669C153.844 86.2425 154.156 86.0669 154.433 85.8718C154.769 85.2811 154.737 84.5585 154.374 84.0048C153.87 83.9781 153.294 84.0199 152.73 84.2212Z" fill="#363E44"/>
<path d="M143.219 84.7228V84.7234L143.239 84.7202C143.252 84.7624 143.284 84.8152 143.329 84.8117C143.386 84.8729 143.416 84.9752 143.456 85.0415C143.527 85.161 143.708 85.0424 143.636 84.9233C143.588 84.843 143.889 84.9862 144.02 85.029C144.437 85.1657 144.859 85.2836 145.285 85.3885C145.484 85.4374 145.683 85.4879 145.883 85.5297C146.044 85.5633 146.576 85.702 146.616 85.6752C147.175 86.1369 147.493 86.584 147.493 86.584C147.493 86.584 146.744 86.9625 145.757 87.0649C145.754 87.0518 145.75 87.0388 145.747 87.0255C145.717 86.8938 143.409 86.4705 143.352 86.575C142.355 86.0087 141.756 85.1685 141.756 85.1685C141.756 85.1685 142.37 84.8574 143.219 84.7228Z" fill="white"/>
<path d="M144.894 84.7704C145.59 84.9419 146.175 85.3124 146.613 85.6742C146.582 86.1044 146.399 86.5251 146.062 86.846C145.976 86.9287 145.883 87.0003 145.785 87.0622C145.341 87.1111 144.846 87.1048 144.349 86.9822C143.989 86.8935 143.661 86.7503 143.366 86.5838C142.972 86.03 142.931 85.3077 143.237 84.7202C143.736 84.6431 144.313 84.627 144.894 84.7704Z" fill="#363E44"/>
<path d="M297.598 84.9244C313.233 69.2902 313.233 43.9422 297.598 28.308C281.964 12.6738 256.616 12.6738 240.982 28.308C225.348 43.9422 225.348 69.2902 240.982 84.9244C256.616 100.559 281.964 100.559 297.598 84.9244Z" fill="white"/>
<path d="M269.294 93.0642C249.195 93.0642 232.844 76.7129 232.844 56.6144C232.844 36.5159 249.195 20.1646 269.294 20.1646C289.392 20.1646 305.744 36.5159 305.744 56.6144C305.744 76.7129 289.392 93.0642 269.294 93.0642ZM269.294 20.9405C249.623 20.9405 233.62 36.9438 233.62 56.6144C233.62 76.2851 249.623 92.2885 269.294 92.2885C288.965 92.2885 304.968 76.2851 304.968 56.6144C304.968 36.9436 288.965 20.9405 269.294 20.9405Z" fill="#FFD9D9"/>
<path d="M290.867 73.8168C290.783 73.8168 290.7 73.7901 290.629 73.7348L269.056 56.9213C268.961 56.8477 268.906 56.7349 268.906 56.6153V34.3045C268.906 34.0902 269.08 33.9165 269.294 33.9165C269.509 33.9165 269.682 34.0902 269.682 34.3045V56.4258L291.105 73.1231C291.275 73.2547 291.305 73.4985 291.173 73.6674C291.097 73.7656 290.982 73.8168 290.867 73.8168Z" fill="#D87355"/>
<path d="M268.883 296.287L269.481 294.082C270.476 290.414 273.399 287.586 277.097 286.714L299.684 281.383C299.684 281.383 296.069 302.051 277.989 300.745C277.989 300.745 270.856 299.367 268.883 296.287Z" fill="#C46565"/>
<path d="M292.495 303.799V307.111C292.495 319.848 282.169 330.174 269.432 330.174C256.695 330.174 246.369 319.848 246.369 307.111V303.799H292.495Z" fill="#FF4342"/>
<path d="M320.88 249.883C320.88 249.883 324.93 276.052 309.051 279.185C295.319 281.895 285.639 272.808 285.751 272.354C285.752 272.349 285.753 272.345 285.755 272.339C286.547 269.105 288.705 266.371 291.668 264.852L320.88 249.883Z" fill="#C46565"/>
<path d="M277.348 266.893L277.387 263.279C277.452 257.27 274.22 251.709 268.968 248.789L236.89 230.958C236.89 230.958 233.497 263.965 261.572 269.758C261.572 269.758 273.02 270.73 277.348 266.893Z" fill="#C46565"/>
<path d="M267.339 287.629L267.288 287.126C266.837 282.658 263.7 278.921 259.378 277.701L240.434 272.354C240.434 272.354 238.764 283.947 251.898 288.213C260.454 290.991 267.339 287.629 267.339 287.629Z" fill="#C46565"/>
<path d="M268.885 303.29C268.688 303.29 268.519 303.141 268.499 302.941L267.157 289.661C266.825 286.379 264.451 283.643 261.25 282.851L248.181 279.619C247.974 279.568 247.847 279.357 247.898 279.149C247.949 278.941 248.16 278.814 248.368 278.866L261.436 282.098C264.955 282.968 267.564 285.976 267.929 289.583L269.271 302.863C269.293 303.077 269.138 303.267 268.924 303.288C268.911 303.29 268.898 303.29 268.885 303.29Z" fill="#FF9493"/>
<path d="M275.148 303.29C275.14 303.29 275.132 303.29 275.124 303.29C274.91 303.276 274.747 303.092 274.76 302.879L276.851 268.666C277.166 263.508 274.192 258.663 269.449 256.611L251.638 248.903C251.442 248.818 251.351 248.589 251.436 248.392C251.522 248.196 251.75 248.106 251.946 248.19L269.757 255.898C274.798 258.08 277.96 263.23 277.626 268.713L275.534 302.926C275.522 303.132 275.351 303.29 275.148 303.29Z" fill="#FF9493"/>
<path d="M280.566 303.29C280.544 303.29 280.522 303.288 280.5 303.284C280.289 303.248 280.147 303.048 280.183 302.836L285.149 273.885C285.676 270.813 287.683 268.207 290.518 266.912L314.212 256.097C314.407 256.008 314.637 256.094 314.726 256.289C314.815 256.484 314.729 256.714 314.534 256.803L290.84 267.618C288.239 268.806 286.397 271.197 285.913 274.016L280.948 302.967C280.916 303.157 280.752 303.29 280.566 303.29Z" fill="#FF9493"/>
<path d="M263.566 302.17C262.959 298.297 260.721 294.87 257.418 292.758L253.851 290.476L253.682 292.53C253.227 298.03 257.808 302.633 263.31 302.192C263.394 302.186 263.48 302.178 263.566 302.17Z" fill="#C46565"/>
</svg>
