<svg xmlns="http://www.w3.org/2000/svg" width="326" height="331" fill="none">
  <path fill="#FFD9D9" d="M160.991 330.806c88.912 0 160.99-72.078 160.99-160.99 0-88.913-72.078-160.99-160.99-160.99C72.078 8.825 0 80.902 0 169.815c0 88.912 72.078 160.99 160.991 160.99Z"/>
  <path fill="#F7F1EB" d="M62.233 74.666H8.792S2.547 91.245 3.7 96.796c2.143 10.309 25.444 25.333 25.444 35.804 0 10.471-23.3 25.495-25.444 35.804-1.154 5.552 5.09 22.129 5.09 22.129h53.442s6.245-16.577 5.09-22.129C65.18 158.094 41.88 143.07 41.88 132.599c0-10.471 23.301-25.495 25.444-35.804 1.155-5.551-5.09-22.129-5.09-22.129Z"/>
  <path fill="#FF4342" d="M37.386 133.156c0-6.192 10.977-14.338 15.952-21.261h-34.61c5.214 6.934 17.082 15.113 17.082 21.261 0 7.766 1.169 38.061-8.275 45.566-3.253 2.584-15.37 8.886-15.37 8.886h48.484s-3.412-2.578-12.479-6.686c-11.764-5.33-10.784-40-10.784-47.766Z"/>
  <path fill="#fff" d="M66.061 190.92h-53.44a.388.388 0 0 1-.364-.251c-.257-.681-6.271-16.747-5.108-22.344 1.026-4.931 6.572-10.696 12.443-16.8 6.388-6.641 12.994-13.508 12.994-18.926 0-5.417-6.606-12.285-12.994-18.926-5.871-6.103-11.417-11.868-12.443-16.799C5.986 91.277 12 75.211 12.257 74.53a.387.387 0 0 1 .363-.251h53.441c.162 0 .307.1.363.25.257.682 6.272 16.748 5.108 22.345-1.025 4.931-6.57 10.696-12.442 16.799-6.388 6.641-12.994 13.509-12.994 18.926 0 5.418 6.605 12.285 12.994 18.926 5.871 6.104 11.417 11.869 12.442 16.8 1.164 5.597-4.85 21.663-5.108 22.344a.388.388 0 0 1-.363.251Zm-53.171-.776h52.902c.77-2.095 6.022-16.651 4.98-21.661-.98-4.712-6.705-10.664-12.242-16.42-6.495-6.752-13.21-13.733-13.21-19.464 0-5.73 6.716-12.712 13.21-19.464 5.537-5.755 11.263-11.707 12.242-16.419 1.042-5.011-4.21-19.567-4.98-21.661H12.89c-.771 2.094-6.023 16.65-4.98 21.661.979 4.712 6.704 10.664 12.241 16.419 6.495 6.752 13.21 13.734 13.21 19.464 0 5.731-6.715 12.712-13.21 19.464-5.537 5.756-11.262 11.708-12.242 16.42-1.042 5.01 4.21 19.566 4.98 21.661Z"/>
  <path fill="#fff" d="M59.848 181.938a.388.388 0 0 1-.373-.497c1.836-6.27 2.564-10.751 2.105-12.958-.75-3.606-4.305-7.882-7.32-11.205a.388.388 0 1 1 .575-.521c3.272 3.606 6.721 7.8 7.505 11.568.492 2.364-.222 6.851-2.12 13.334a.389.389 0 0 1-.372.279ZM57.54 105.092a.387.387 0 0 1-.302-.63c2.486-3.105 3.908-5.639 4.346-7.746.509-2.444-.42-7.588-2.684-14.877a.388.388 0 1 1 .74-.23c1.607 5.17 3.38 12.015 2.704 15.265-.47 2.261-1.9 4.826-4.5 8.073a.385.385 0 0 1-.304.145Z"/>
  <path fill="#D87355" d="M67.424 189.365H3.662v7.711h63.762v-7.711ZM67.424 68.38H3.662v7.71h63.762v-7.71Z"/>
  <path fill="#FF9493" d="M73.188 185.773H321.14V9.949H73.189v175.824Z"/>
  <path fill="#F7F1EB" d="M313.359 162.923V17.728H80.967v145.195H313.36Z"/>
  <path fill="#FF9493" d="M171.063 189.499h7.341c0 5.506 4.464 9.97 9.97 9.97h17.579c5.506 0 9.97-4.464 9.97-9.97h7.34l7.341 39.01v3.263h-66.881v-3.263l7.34-39.01ZM230.603 236.238h-66.881a.388.388 0 1 1 0-.776h66.881a.388.388 0 1 1 0 .776Z"/>
  <path fill="#FF706F" d="M108.053 113.141H96.186v32.539h11.867v-32.539ZM127.637 106.659H115.77v39.021h11.867v-39.021ZM147.221 82.757h-11.867v62.924h11.867V82.757ZM166.805 92.623h-11.867v53.057h11.867V92.623ZM186.414 66.59h-11.867v79.091h11.867v-79.09ZM206 82.22h-11.867v63.46H206V82.22ZM225.584 104.869h-11.867v40.812h11.867v-40.812ZM245.164 90.296h-11.867v55.385h11.867V90.296ZM264.762 99.05h-11.867v46.63h11.867V99.05ZM284.346 76.33h-11.867v69.351h11.867v-69.35ZM303.957 113.142H292.09v32.538h11.867v-32.538Z"/>
  <path fill="#FF4342" d="M99.11 330.053h87.218V200.694H99.109v129.359ZM.746 330.053h87.219V200.694H.746v129.359Z"/>
  <path fill="#fff" d="M99.03 319.255h82.218v-121.94H99.03v121.94ZM6.308 319.255h82.217v-121.94H6.308v121.94Z"/>
  <path fill="#FF706F" d="M108.815 228.503a5.803 5.803 0 1 0-.001-11.605 5.803 5.803 0 0 0 .001 11.605ZM108.815 250.768a5.803 5.803 0 1 0-.001-11.605 5.803 5.803 0 0 0 .001 11.605ZM108.815 273.032a5.803 5.803 0 1 0-.003-11.607 5.803 5.803 0 0 0 .003 11.607ZM112.915 293.595a5.804 5.804 0 0 0-8.206-8.207 5.804 5.804 0 0 0 8.206 8.207ZM78.862 228.503a5.803 5.803 0 1 0 0-11.606 5.803 5.803 0 0 0 0 11.606ZM78.862 250.768a5.803 5.803 0 1 0 0-11.606 5.803 5.803 0 0 0 0 11.606ZM78.862 273.032a5.803 5.803 0 1 0-.002-11.607 5.803 5.803 0 0 0 .002 11.607ZM79.416 295.262a5.803 5.803 0 1 0-1.144-11.55 5.803 5.803 0 0 0 1.144 11.55Z"/>
  <path fill="#FF4342" d="M77.82 216.993c2.334-6.631 8.657-11.398 16.076-11.398 7.427 0 13.755 4.778 16.083 11.42.617 1.761.957 3.651.957 5.62 0 2.021-.356 3.96-1.004 5.76a5.796 5.796 0 0 1-2.576-.076 14.53 14.53 0 0 0 1.151-5.684c0-1.969-.394-3.847-1.103-5.563-2.193-5.305-7.42-9.049-13.508-9.049-6.099 0-11.334 3.757-13.52 9.077a14.525 14.525 0 0 0-1.092 5.535c0 2.003.406 3.914 1.14 5.654a5.803 5.803 0 0 1-2.557.129 16.969 16.969 0 0 1-1.011-5.783c0-1.977.342-3.875.964-5.642Z"/>
  <path fill="#FF4342" d="M77.82 239.257c2.334-6.631 8.657-11.399 16.076-11.399 7.427 0 13.755 4.778 16.083 11.421.617 1.761.957 3.651.957 5.62 0 2.021-.356 3.96-1.004 5.76a5.796 5.796 0 0 1-2.576-.077 14.525 14.525 0 0 0 1.151-5.683c0-1.97-.394-3.848-1.103-5.564-2.193-5.304-7.42-9.048-13.508-9.048-6.099 0-11.334 3.757-13.52 9.076a14.534 14.534 0 0 0-1.092 5.536c0 2.003.406 3.913 1.14 5.653a5.803 5.803 0 0 1-2.557.129 16.959 16.959 0 0 1-1.011-5.782c0-1.977.342-3.875.964-5.642Z"/>
  <path fill="#FF4342" d="M77.82 261.521c2.334-6.631 8.657-11.398 16.076-11.398 7.427 0 13.755 4.778 16.083 11.42.617 1.761.957 3.651.957 5.62 0 2.021-.356 3.96-1.004 5.76a5.796 5.796 0 0 1-2.576-.076 14.53 14.53 0 0 0 1.151-5.684c0-1.969-.394-3.847-1.103-5.563-2.193-5.305-7.42-9.048-13.508-9.048-6.099 0-11.334 3.756-13.52 9.076a14.525 14.525 0 0 0-1.092 5.535c0 2.004.406 3.914 1.14 5.654a5.803 5.803 0 0 1-2.557.129 16.969 16.969 0 0 1-1.011-5.783c0-1.977.342-3.875.964-5.642Z"/>
  <path fill="#FF4342" d="M77.82 283.785c2.334-6.631 8.657-11.398 16.076-11.398 7.427 0 13.755 4.778 16.083 11.42.617 1.761.957 3.651.957 5.62 0 2.021-.356 3.96-1.004 5.76a5.796 5.796 0 0 1-2.576-.076 14.53 14.53 0 0 0 1.151-5.684 14.53 14.53 0 0 0-1.103-5.563c-2.193-5.305-7.42-9.049-13.508-9.049-6.099 0-11.334 3.757-13.52 9.077a14.525 14.525 0 0 0-1.092 5.535c0 2.003.406 3.914 1.14 5.654a5.803 5.803 0 0 1-2.557.129 16.969 16.969 0 0 1-1.011-5.783c0-1.977.342-3.875.964-5.642Z"/>
  <path fill="#D87355" d="M28.835 244.982h7.4v-7.399h-7.4v7.399Z"/>
  <path fill="#FF706F" d="M14.022 244.982h7.4v-7.399h-7.4v7.399ZM58.462 259.795h7.4v-7.399h-7.4v7.399Z"/>
  <path fill="#D87355" d="M43.647 259.795h7.4v-7.399h-7.4v7.399Z"/>
  <path fill="#FF706F" d="M28.835 259.795h7.4v-7.399h-7.4v7.399ZM14.022 259.795h7.4v-7.399h-7.4v7.399Z"/>
  <path fill="#D87355" d="M58.462 274.608h7.4v-7.4h-7.4v7.4Z"/>
  <path fill="#FF706F" d="M43.647 274.608h7.4v-7.4h-7.4v7.4ZM28.835 274.608h7.4v-7.4h-7.4v7.4Z"/>
  <path fill="#D87355" d="M14.022 274.608h7.4v-7.4h-7.4v7.4Z"/>
  <path fill="#FF706F" d="M58.462 289.42h7.4v-7.4h-7.4v7.4ZM43.647 289.42h7.4v-7.4h-7.4v7.4Z"/>
  <path fill="#D87355" d="M28.835 289.42h7.4v-7.4h-7.4v7.4Z"/>
  <path fill="#F7F1EB" d="M14.022 289.42h7.4v-7.4h-7.4v7.4Z"/>
  <path fill="#FF706F" d="M58.462 304.233h7.4v-7.4h-7.4v7.4Z"/>
  <path fill="#D87355" d="M43.647 304.233h7.4v-7.4h-7.4v7.4Z"/>
  <path fill="#FF706F" d="M28.835 304.233h7.4v-7.4h-7.4v7.4ZM14.022 304.233h7.4v-7.4h-7.4v7.4Z"/>
  <path fill="#F7F1EB" d="M28.835 222.701h37.024v-12.74H28.835v12.74Z"/>
  <path fill="#C46565" d="M202.28 159.688h-85.178v37.345h85.178v-37.345Z"/>
  <path fill="#84524D" d="M189.57 231.631c-.012.829-.203 30.358-.203 30.358l16.548-.782 9.279-29.576H189.57Z"/>
  <path fill="#fff" d="m188.107 259.206 19.283-.252 10.705 34.677s-29.442 9.53-29.507 8.908c-.066-.622-.481-43.333-.481-43.333Z"/>
  <path fill="#363E44" d="M201.887 269.339h-7.794a.388.388 0 0 1 0-.776h7.794a.388.388 0 0 1 0 .776ZM201.802 274.2h-7.709a.388.388 0 1 1 0-.776h7.709a.388.388 0 0 1 0 .776Z"/>
  <path fill="#C46565" d="M186.252 236.679h30.343l8.672-44.04c2.169-11.016-5.865-21.42-17.071-22.108l-16.577-1.017-5.367 67.165Z"/>
  <path fill="#84524D" d="m94.887 178.733 20.826 20.103 17.654-13.189-17.006-23.445-21.474 16.531Z"/>
  <path fill="#F7F1EB" d="m111.908 195.837 10.62 24.165 29.459-19.264-20.633-19.165-19.446 14.264Z"/>
  <path fill="#C46565" d="m94.887 183.248 25.927-18.585-15.549-23.965c-6.25-9.635-19.478-11.719-28.39-4.473-9.06 7.368-9.56 21.029-1.063 29.04l19.075 17.983Z"/>
  <path fill="#363E44" d="M121.449 197.536a.39.39 0 0 1-.208-.716l8.747-5.551a.387.387 0 1 1 .416.655l-8.747 5.551a.39.39 0 0 1-.208.061ZM123.346 200.312a.39.39 0 0 1-.209-.716l8.748-5.551a.388.388 0 0 1 .416.655l-8.748 5.551a.386.386 0 0 1-.207.061Z"/>
  <path fill="#fff" d="M122.679 164.009s34.286.267 60.566.654l-5.732-54.168s-26.098-9.775-54.976-7.914l.142 61.428Z"/>
  <path fill="#FF4342" d="m170.117 107.761 5.662 58.353 48.714 1.105s2.057-19.642-15.643-39.443c-4.103-4.59-9.087-8.307-14.626-10.995-6.144-2.982-16.188-7.558-24.107-9.02ZM132.098 102.088l1.899 62.262s-46.753 12.507-46.767-18.678c-.005-13.369 3.655-23.247 7.34-29.802a25.402 25.402 0 0 1 17.204-12.48c5.416-1.076 12.615-1.94 20.324-1.302Z"/>
  <path fill="#363E44" d="M111.914 133.892a.387.387 0 0 1-.375-.488l2.114-7.937a.388.388 0 0 1 .75.199l-2.115 7.938a.387.387 0 0 1-.374.288ZM93.567 143.439a.388.388 0 0 1-.355-.542c.044-.102 4.552-10.13 17.465-8.934.213.02.37.208.351.422a.385.385 0 0 1-.423.35c-12.336-1.143-16.51 8.078-16.682 8.471a.389.389 0 0 1-.356.233Z"/>
  <path fill="#84524D" d="M180.381 148.705c-2.358-1.542-11.134-9.524-16.304-7.569-5.208 1.969-8.255 7.314-9.325 12.778l.037.059c.366 1.497 1.143 3.681 2.998 5.431 2.115 1.996 3.606 1.517 6.165 3.275 4.32 2.968 4.255 7.375 6.065 6.961 1.243-.285 1.392-2.851.919-5.227-.486-2.44-1.827-3.813-1.515-4.076.342-.288 1.524 1.284 3.173 3.103.766.845 1.44 4.461 3.195 4.323 1.399-.11 1.638-4.045.008-7.073-1.153-2.142-3.355-2.994-3.116-3.368.179-.281 1.479.259 2.461 1.058 1.62 1.319 2.349 5.011 3.962 4.852 1.58-.156 1.729-3.596.406-6.475-1.116-2.429-3.617-3.261-3.322-3.728.207-.328 1.404-.189 3.712.836 1.926.855 5.12 3.761 6.316 1.879 1.006-1.583-2.276-4.713-5.835-7.039Z"/>
  <path fill="#84524D" d="M112.987 137.646c-5.054.704-9.331 4.15-10.991 8.976-1.584 4.604-1.432 10.367 5.644 14.87 14.018 8.924 52.042-6.462 52.042-6.462l7.133-14.133c-17.462-4.206-36.752-5.626-53.828-3.251Z"/>
  <path fill="#363E44" d="M233.695 169.174a7.222 7.222 0 0 1-6.541 4.161h-45.011l20.158-43.083h49.605l-18.211 38.922Z"/>
  <path fill="#363E44" d="M152.598 169.01c0 2.4 1.946 4.346 4.346 4.346h41.504l2.034-4.346h-47.884Z"/>
  <path fill="#84524D" d="M246.453 150.447c-.158 1.616-.423 2.912-3.222 2.638-2.798-.275-7.071-2.017-6.912-3.633.158-1.615 4.688-2.493 7.487-2.219 2.798.275 2.806 1.598 2.647 3.214Z"/>
  <path fill="#84524D" d="M234.41 153.606c.159-1.616 4.688-2.494 7.487-2.219 2.799.274 2.806 1.598 2.648 3.213l-10.135-.994Z"/>
  <path fill="#84524D" d="M244.545 154.601c-.159 1.615-.423 2.912-3.222 2.637-2.798-.274-7.071-2.016-6.912-3.632l10.134.995Z"/>
  <path fill="#84524D" d="M232.502 157.76c.158-1.616 4.688-2.494 7.487-2.219 2.798.274 2.806 1.597 2.647 3.213l-10.134-.994Z"/>
  <path fill="#84524D" d="M242.637 158.754c-.159 1.616-.424 2.913-3.222 2.638-2.799-.275-7.071-2.017-6.913-3.632l10.135.994Z"/>
  <path fill="#84524D" d="M232.732 161.517c.126-1.285 3.727-1.982 5.952-1.764 2.224.218 2.23 1.27 2.104 2.555l-8.056-.791Z"/>
  <path fill="#84524D" d="M240.788 162.308c-.126 1.284-.337 2.315-2.561 2.096-2.225-.218-5.621-1.603-5.495-2.887l8.056.791ZM141.606 84.456c1.142 1.54 1.005 3.578-.307 4.55-1.312.972-3.301.51-4.443-1.03-1.142-1.542-1.004-3.58.307-4.551 1.312-.972 3.301-.51 4.443 1.03ZM155.709 83.738c-.98 1.65-.637 3.662.767 4.496 1.403.834 3.336.173 4.315-1.477.98-1.649.636-3.662-.767-4.495-1.404-.834-3.336-.173-4.315 1.476Z"/>
  <path fill="#84524D" d="M147.967 110.627a6.209 6.209 0 0 1-5.917-6.487l.575-17.607 12.404.569-.576 17.607a6.208 6.208 0 0 1-6.486 5.918Z"/>
  <path fill="#363E44" d="M150.189 100.738c-9.95.588-10.32-16.026-10.32-16.026l17.632-.597s2.336 16.052-7.312 16.623Z"/>
  <path fill="#363E44" d="M144.737 86.04a6.326 6.326 0 1 0-2.908-12.315 6.326 6.326 0 0 0 2.908 12.316Z"/>
  <path fill="#84524D" d="M157.319 85.39c.281 5.53-3.305 2.621-8.011 2.86-4.705.24-8.748 3.536-9.029-1.992-.281-5.53 3.305-8.687 8.01-8.926 4.706-.24 8.748 2.53 9.03 8.058Z"/>
  <path fill="#363E44" d="M157.316 88.463a.388.388 0 0 1-.382-.457 11.375 11.375 0 0 0-.189-4.893.388.388 0 0 1 .751-.197 12.207 12.207 0 0 1 .201 5.229.387.387 0 0 1-.381.318ZM140.537 89.254a.39.39 0 0 1-.373-.281 12.124 12.124 0 0 1-.443-2.696c-.043-.852.002-1.702.134-2.528a.388.388 0 1 1 .766.123 11.363 11.363 0 0 0-.125 2.365c.044.863.183 1.711.415 2.523a.388.388 0 0 1-.374.494ZM149.389 88.851a.389.389 0 0 1-.236-.695c.165-.128.264-.253.266-.336.001-.047-.037-.105-.124-.226a1.72 1.72 0 0 1-.332-.688 1.653 1.653 0 0 1 .071-.888.389.389 0 0 1 .494-.239c.203.07.31.292.239.494a.895.895 0 0 0-.044.476c.032.156.111.265.202.392.123.17.276.383.27.694-.007.335-.198.65-.569.936a.388.388 0 0 1-.237.08Z"/>
  <path fill="#fff" d="M148.066 91.3c-.374 0-.934-.075-1.481-.429a2.688 2.688 0 0 1-.855-.896.387.387 0 1 1 .668-.394c.152.259.363.48.609.638.472.305.96.318 1.21.298a.388.388 0 0 1 .061.774 2.623 2.623 0 0 1-.212.008Z"/>
  <path fill="#363E44" d="M139.154 83.358s4.556.675 9.28-4.893c0 0 8.773 11.473 15.522-2.362 0 0-3.954 1.745-6.074-1.012-3.374-4.387-11.473-7.93-14.679.168l-4.049 8.099Z"/>
  <path fill="#fff" d="M154.395 84.005h-.021c-.009.043-.034.099-.08.1-.05.066-.07.17-.103.24-.059.127-.251.027-.192-.099.04-.084-.244.088-.37.144-.402.178-.809.338-1.223.485-.193.069-.386.139-.581.2-.156.05-.672.242-.714.22a5.375 5.375 0 0 0-.781.992s.783.3 1.775.303l.006-.04c.016-.134 2.271-.787 2.338-.689a5.504 5.504 0 0 0 1.446-1.56s-.642-.248-1.5-.296Z"/>
  <path fill="#363E44" d="M152.73 84.221c-.675.24-1.22.668-1.619 1.072a1.789 1.789 0 0 0 .963 1.298c.447.004.939-.052 1.421-.224.349-.124.661-.3.938-.495a1.793 1.793 0 0 0-.059-1.867 4.234 4.234 0 0 0-1.644.216Z"/>
  <path fill="#fff" d="m143.219 84.723.02-.003c.013.042.045.095.09.092.057.06.087.163.127.23.071.119.252 0 .18-.119-.048-.08.253.063.384.106.417.137.839.255 1.265.36.199.048.398.099.598.14.161.034.693.173.733.146.559.462.877.909.877.909s-.749.379-1.736.48l-.01-.038c-.03-.132-2.338-.555-2.395-.451-.997-.566-1.596-1.407-1.596-1.407s.614-.31 1.463-.445Z"/>
  <path fill="#363E44" d="M144.894 84.77c.696.172 1.281.542 1.719.904a1.788 1.788 0 0 1-.828 1.388 4.124 4.124 0 0 1-1.436-.08 3.902 3.902 0 0 1-.983-.398 1.792 1.792 0 0 1-.129-1.864 4.238 4.238 0 0 1 1.657.05Z"/>
  <path fill="#fff" d="M297.598 84.924c15.635-15.634 15.635-40.982 0-56.616-15.634-15.634-40.982-15.634-56.616 0s-15.634 40.982 0 56.616c15.634 15.635 40.982 15.635 56.616 0Z"/>
  <path fill="#FFD9D9" d="M269.294 93.064c-20.099 0-36.45-16.351-36.45-36.45 0-20.098 16.351-36.45 36.45-36.45 20.098 0 36.45 16.352 36.45 36.45 0 20.099-16.352 36.45-36.45 36.45Zm0-72.123c-19.671 0-35.674 16.003-35.674 35.673 0 19.671 16.003 35.675 35.674 35.675s35.674-16.004 35.674-35.675c0-19.67-16.003-35.673-35.674-35.673Z"/>
  <path fill="#D87355" d="M290.867 73.817a.384.384 0 0 1-.238-.082L269.056 56.92a.387.387 0 0 1-.15-.306v-22.31a.388.388 0 0 1 .776 0v22.12l21.423 16.698a.387.387 0 0 1-.238.694Z"/>
  <path fill="#C46565" d="m268.883 296.287.598-2.205a10.354 10.354 0 0 1 7.616-7.368l22.587-5.331s-3.615 20.668-21.695 19.362c0 0-7.133-1.378-9.106-4.458Z"/>
  <path fill="#FF4342" d="M292.495 303.799v3.312c0 12.737-10.326 23.063-23.063 23.063-12.737 0-23.063-10.326-23.063-23.063v-3.312h46.126Z"/>
  <path fill="#C46565" d="M320.88 249.883s4.05 26.169-11.829 29.302c-13.732 2.71-23.412-6.377-23.3-6.831a11.485 11.485 0 0 1 5.917-7.502l29.212-14.969ZM277.348 266.893l.039-3.614a16.377 16.377 0 0 0-8.419-14.49l-32.078-17.831s-3.393 33.007 24.682 38.8c0 0 11.448.972 15.776-2.865ZM267.339 287.629l-.051-.503a10.935 10.935 0 0 0-7.91-9.425l-18.944-5.347s-1.67 11.593 11.464 15.859c8.556 2.778 15.441-.584 15.441-.584Z"/>
  <path fill="#FF9493" d="M268.885 303.29a.388.388 0 0 1-.386-.349l-1.342-13.28a7.843 7.843 0 0 0-5.907-6.81l-13.069-3.232a.389.389 0 0 1 .187-.753l13.068 3.232a8.62 8.62 0 0 1 6.493 7.485l1.342 13.28a.386.386 0 0 1-.347.425c-.013.002-.026.002-.039.002ZM275.148 303.29h-.024a.39.39 0 0 1-.364-.411l2.091-34.213a12.351 12.351 0 0 0-7.402-12.055l-17.811-7.708a.39.39 0 0 1-.202-.511.39.39 0 0 1 .51-.202l17.811 7.708a13.133 13.133 0 0 1 7.869 12.815l-2.092 34.213a.387.387 0 0 1-.386.364ZM280.566 303.29a.388.388 0 0 1-.383-.454l4.966-28.951a9.41 9.41 0 0 1 5.369-6.973l23.694-10.815a.388.388 0 1 1 .322.706l-23.694 10.815a8.635 8.635 0 0 0-4.927 6.398l-4.965 28.951a.387.387 0 0 1-.382.323Z"/>
  <path fill="#C46565" d="M263.566 302.17a13.686 13.686 0 0 0-6.148-9.412l-3.567-2.282-.169 2.054c-.455 5.5 4.126 10.103 9.628 9.662.084-.006.17-.014.256-.022Z"/>
</svg>
