<svg xmlns="http://www.w3.org/2000/svg" width="36" height="24" fill="none">
  <path fill="#240000" d="M27.818 21.582c1.358 0 2.455-.963 2.455-2.156s-1.097-2.156-2.455-2.156-2.454.963-2.454 2.156 1.096 2.156 2.454 2.156Zm2.455-12.937h-4.091v3.593h7.298l-3.207-3.593ZM8.182 21.582c1.358 0 2.454-.963 2.454-2.156S9.54 17.27 8.182 17.27s-2.455.963-2.455 2.156 1.097 2.156 2.455 2.156ZM31.09 6.488 36 12.238v7.188h-3.273c0 2.386-2.192 4.312-4.909 4.312-2.716 0-4.909-1.926-4.909-4.312h-9.818c0 2.386-2.193 4.312-4.91 4.312-2.716 0-4.908-1.926-4.908-4.312H0V3.613C0 2.018 1.456.738 3.273.738h22.909v5.75h4.909ZM3.273 3.613v12.938h1.243c.9-.877 2.21-1.438 3.666-1.438s2.765.56 3.665 1.438H22.91V3.613H3.273Z"/>
</svg>
